<svg width="420" height="1280" viewBox="0 0 420 1280" fill="none" xmlns="http://www.w3.org/2000/svg">
<g clip-path="url(#clip0_1702_28622)">
<path d="M495.499 848L-323.829 958.5M280.5 -32L-207.657 1088.89M463.5 1088.89L-358.118 892.912M418.773 594.815L-42.1721 1069.18M-295.502 484.385L495.499 239.5M165 1324L-323.829 17M-323.829 594.815L463.5 59.8148M-42.1721 -15L218.5 1308" stroke="#862227"/>
<path d="M442.5 47L-331.133 1096.75M-222 184L421 -28M188.5 -16.5L-238.57 720.51C-277.803 788.215 -206.525 866.172 -135.585 833.144L442.5 564M-366 258L569 666.5M-50.5 1391L263 -113.5M-313.699 136.5L-124.5 1106.09M-331.133 388.5L472.5 1391M-200.889 1314.17L588 771.5" stroke="#0E3E54"/>
</g>
<defs>
<clipPath id="clip0_1702_28622">
<rect width="420" height="1280" fill="white"/>
</clipPath>
</defs>
</svg>
