<svg width="275" height="407" viewBox="0 0 275 407" fill="none" xmlns="http://www.w3.org/2000/svg">
<rect x="0.5" y="0.5" width="249" height="81" fill="white"/>
<path d="M29.138 30.58C30.062 30.58 30.7947 30.8507 31.336 31.392C31.8867 31.924 32.162 32.7033 32.162 33.73V38H31.168V33.828C31.168 33.0627 30.9767 32.4793 30.594 32.078C30.2113 31.6767 29.6653 31.476 28.956 31.476C28.1627 31.476 27.5327 31.714 27.066 32.19C26.6087 32.6567 26.38 33.3053 26.38 34.136V38H25.386V30.636H26.338V31.994C26.6087 31.546 26.982 31.2007 27.458 30.958C27.9433 30.706 28.5033 30.58 29.138 30.58ZM41.3 34.626H35.14C35.196 35.3913 35.49 36.012 36.022 36.488C36.554 36.9547 37.226 37.188 38.038 37.188C38.4953 37.188 38.9153 37.1087 39.298 36.95C39.6806 36.782 40.012 36.5393 40.292 36.222L40.852 36.866C40.5253 37.258 40.1146 37.5567 39.62 37.762C39.1346 37.9673 38.598 38.07 38.01 38.07C37.254 38.07 36.582 37.9113 35.994 37.594C35.4153 37.2673 34.9626 36.8193 34.636 36.25C34.3093 35.6807 34.146 35.0367 34.146 34.318C34.146 33.5993 34.3 32.9553 34.608 32.386C34.9253 31.8167 35.3546 31.3733 35.896 31.056C36.4466 30.7387 37.0626 30.58 37.744 30.58C38.4253 30.58 39.0366 30.7387 39.578 31.056C40.1193 31.3733 40.544 31.8167 40.852 32.386C41.16 32.946 41.314 33.59 41.314 34.318L41.3 34.626ZM37.744 31.434C37.0346 31.434 36.4373 31.6627 35.952 32.12C35.476 32.568 35.2053 33.156 35.14 33.884H40.362C40.2966 33.156 40.0213 32.568 39.536 32.12C39.06 31.6627 38.4626 31.434 37.744 31.434ZM49.9732 30.636V38H49.0212V36.656C48.7598 37.104 48.4005 37.454 47.9432 37.706C47.4858 37.9487 46.9632 38.07 46.3752 38.07C45.4138 38.07 44.6532 37.804 44.0932 37.272C43.5425 36.7307 43.2672 35.942 43.2672 34.906V30.636H44.2612V34.808C44.2612 35.5827 44.4525 36.1707 44.8352 36.572C45.2178 36.9733 45.7638 37.174 46.4732 37.174C47.2478 37.174 47.8592 36.9407 48.3072 36.474C48.7552 35.998 48.9792 35.34 48.9792 34.5V30.636H49.9732ZM53.7091 32.078C53.9424 31.5833 54.2878 31.21 54.7451 30.958C55.2118 30.706 55.7858 30.58 56.4671 30.58V31.546L56.2291 31.532C55.4544 31.532 54.8478 31.77 54.4091 32.246C53.9704 32.722 53.7511 33.3893 53.7511 34.248V38H52.7571V30.636H53.7091V32.078ZM61.2085 38.07C60.4992 38.07 59.8598 37.9113 59.2905 37.594C58.7212 37.2673 58.2732 36.8193 57.9465 36.25C57.6198 35.6807 57.4565 35.0367 57.4565 34.318C57.4565 33.5993 57.6198 32.9553 57.9465 32.386C58.2732 31.8167 58.7212 31.3733 59.2905 31.056C59.8598 30.7387 60.4992 30.58 61.2085 30.58C61.9178 30.58 62.5572 30.7387 63.1265 31.056C63.6958 31.3733 64.1392 31.8167 64.4565 32.386C64.7832 32.9553 64.9465 33.5993 64.9465 34.318C64.9465 35.0367 64.7832 35.6807 64.4565 36.25C64.1392 36.8193 63.6958 37.2673 63.1265 37.594C62.5572 37.9113 61.9178 38.07 61.2085 38.07ZM61.2085 37.188C61.7312 37.188 62.1978 37.0713 62.6085 36.838C63.0285 36.5953 63.3552 36.2547 63.5885 35.816C63.8218 35.3773 63.9385 34.878 63.9385 34.318C63.9385 33.758 63.8218 33.2587 63.5885 32.82C63.3552 32.3813 63.0285 32.0453 62.6085 31.812C62.1978 31.5693 61.7312 31.448 61.2085 31.448C60.6858 31.448 60.2145 31.5693 59.7945 31.812C59.3838 32.0453 59.0572 32.3813 58.8145 32.82C58.5812 33.2587 58.4645 33.758 58.4645 34.318C58.4645 34.878 58.5812 35.3773 58.8145 35.816C59.0572 36.2547 59.3838 36.5953 59.7945 36.838C60.2145 37.0713 60.6858 37.188 61.2085 37.188ZM70.7278 30.58C71.6518 30.58 72.3845 30.8507 72.9258 31.392C73.4765 31.924 73.7518 32.7033 73.7518 33.73V38H72.7578V33.828C72.7578 33.0627 72.5665 32.4793 72.1838 32.078C71.8012 31.6767 71.2552 31.476 70.5458 31.476C69.7525 31.476 69.1225 31.714 68.6558 32.19C68.1985 32.6567 67.9698 33.3053 67.9698 34.136V38H66.9758V30.636H67.9278V31.994C68.1985 31.546 68.5718 31.2007 69.0478 30.958C69.5332 30.706 70.0932 30.58 70.7278 30.58ZM82.8898 34.626H76.7298C76.7858 35.3913 77.0798 36.012 77.6118 36.488C78.1438 36.9547 78.8158 37.188 79.6278 37.188C80.0851 37.188 80.5051 37.1087 80.8878 36.95C81.2705 36.782 81.6018 36.5393 81.8818 36.222L82.4418 36.866C82.1151 37.258 81.7045 37.5567 81.2098 37.762C80.7245 37.9673 80.1878 38.07 79.5998 38.07C78.8438 38.07 78.1718 37.9113 77.5838 37.594C77.0051 37.2673 76.5525 36.8193 76.2258 36.25C75.8991 35.6807 75.7358 35.0367 75.7358 34.318C75.7358 33.5993 75.8898 32.9553 76.1978 32.386C76.5151 31.8167 76.9445 31.3733 77.4858 31.056C78.0365 30.7387 78.6525 30.58 79.3338 30.58C80.0151 30.58 80.6265 30.7387 81.1678 31.056C81.7091 31.3733 82.1338 31.8167 82.4418 32.386C82.7498 32.946 82.9038 33.59 82.9038 34.318L82.8898 34.626ZM79.3338 31.434C78.6245 31.434 78.0271 31.6627 77.5418 32.12C77.0658 32.568 76.7951 33.156 76.7298 33.884H81.9518C81.8865 33.156 81.6111 32.568 81.1258 32.12C80.6498 31.6627 80.0525 31.434 79.3338 31.434ZM88.805 37.552C88.6183 37.72 88.385 37.8507 88.105 37.944C87.8343 38.028 87.5497 38.07 87.251 38.07C86.5603 38.07 86.0283 37.8833 85.655 37.51C85.2817 37.1367 85.095 36.6093 85.095 35.928V31.476H83.779V30.636H85.095V29.026H86.089V30.636H88.329V31.476H86.089V35.872C86.089 36.3107 86.1963 36.6467 86.411 36.88C86.635 37.104 86.9523 37.216 87.363 37.216C87.5683 37.216 87.7643 37.1833 87.951 37.118C88.147 37.0527 88.315 36.9593 88.455 36.838L88.805 37.552ZM98.1566 37.552C97.9699 37.72 97.7366 37.8507 97.4566 37.944C97.1859 38.028 96.9012 38.07 96.6026 38.07C95.9119 38.07 95.3799 37.8833 95.0066 37.51C94.6332 37.1367 94.4466 36.6093 94.4466 35.928V31.476H93.1306V30.636H94.4466V29.026H95.4406V30.636H97.6806V31.476H95.4406V35.872C95.4406 36.3107 95.5479 36.6467 95.7626 36.88C95.9866 37.104 96.3039 37.216 96.7146 37.216C96.9199 37.216 97.1159 37.1833 97.3026 37.118C97.4986 37.0527 97.6666 36.9593 97.8066 36.838L98.1566 37.552ZM100.918 32.078C101.151 31.5833 101.497 31.21 101.954 30.958C102.421 30.706 102.995 30.58 103.676 30.58V31.546L103.438 31.532C102.663 31.532 102.057 31.77 101.618 32.246C101.179 32.722 100.96 33.3893 100.96 34.248V38H99.9661V30.636H100.918V32.078ZM108.038 30.58C109 30.58 109.737 30.8227 110.25 31.308C110.764 31.784 111.02 32.4933 111.02 33.436V38H110.068V36.852C109.844 37.2347 109.513 37.5333 109.074 37.748C108.645 37.9627 108.132 38.07 107.534 38.07C106.713 38.07 106.06 37.874 105.574 37.482C105.089 37.09 104.846 36.572 104.846 35.928C104.846 35.3027 105.07 34.7987 105.518 34.416C105.976 34.0333 106.699 33.842 107.688 33.842H110.026V33.394C110.026 32.7593 109.849 32.2787 109.494 31.952C109.14 31.616 108.622 31.448 107.94 31.448C107.474 31.448 107.026 31.5273 106.596 31.686C106.167 31.8353 105.798 32.0453 105.49 32.316L105.042 31.574C105.416 31.2567 105.864 31.014 106.386 30.846C106.909 30.6687 107.46 30.58 108.038 30.58ZM107.688 37.286C108.248 37.286 108.729 37.16 109.13 36.908C109.532 36.6467 109.83 36.2733 110.026 35.788V34.584H107.716C106.456 34.584 105.826 35.0227 105.826 35.9C105.826 36.3293 105.99 36.67 106.316 36.922C106.643 37.1647 107.1 37.286 107.688 37.286ZM113.72 30.636H114.714V38H113.72V30.636ZM114.224 29.026C114.019 29.026 113.846 28.956 113.706 28.816C113.566 28.676 113.496 28.508 113.496 28.312C113.496 28.1253 113.566 27.962 113.706 27.822C113.846 27.682 114.019 27.612 114.224 27.612C114.429 27.612 114.602 27.682 114.742 27.822C114.882 27.9527 114.952 28.1113 114.952 28.298C114.952 28.5033 114.882 28.676 114.742 28.816C114.602 28.956 114.429 29.026 114.224 29.026ZM121.232 30.58C122.156 30.58 122.888 30.8507 123.43 31.392C123.98 31.924 124.256 32.7033 124.256 33.73V38H123.262V33.828C123.262 33.0627 123.07 32.4793 122.688 32.078C122.305 31.6767 121.759 31.476 121.05 31.476C120.256 31.476 119.626 31.714 119.16 32.19C118.702 32.6567 118.474 33.3053 118.474 34.136V38H117.48V30.636H118.432V31.994C118.702 31.546 119.076 31.2007 119.552 30.958C120.037 30.706 120.597 30.58 121.232 30.58ZM126.954 30.636H127.948V38H126.954V30.636ZM127.458 29.026C127.253 29.026 127.08 28.956 126.94 28.816C126.8 28.676 126.73 28.508 126.73 28.312C126.73 28.1253 126.8 27.962 126.94 27.822C127.08 27.682 127.253 27.612 127.458 27.612C127.664 27.612 127.836 27.682 127.976 27.822C128.116 27.9527 128.186 28.1113 128.186 28.298C128.186 28.5033 128.116 28.676 127.976 28.816C127.836 28.956 127.664 29.026 127.458 29.026ZM134.466 30.58C135.39 30.58 136.123 30.8507 136.664 31.392C137.215 31.924 137.49 32.7033 137.49 33.73V38H136.496V33.828C136.496 33.0627 136.305 32.4793 135.922 32.078C135.539 31.6767 134.993 31.476 134.284 31.476C133.491 31.476 132.861 31.714 132.394 32.19C131.937 32.6567 131.708 33.3053 131.708 34.136V38H130.714V30.636H131.666V31.994C131.937 31.546 132.31 31.2007 132.786 30.958C133.271 30.706 133.831 30.58 134.466 30.58ZM147.034 30.636V37.104C147.034 38.3547 146.726 39.2787 146.11 39.876C145.503 40.4827 144.584 40.786 143.352 40.786C142.671 40.786 142.022 40.6833 141.406 40.478C140.799 40.282 140.305 40.0067 139.922 39.652L140.426 38.896C140.781 39.2133 141.21 39.4607 141.714 39.638C142.227 39.8153 142.764 39.904 143.324 39.904C144.257 39.904 144.943 39.6847 145.382 39.246C145.821 38.8167 146.04 38.1447 146.04 37.23V36.292C145.732 36.7587 145.326 37.1133 144.822 37.356C144.327 37.5987 143.777 37.72 143.17 37.72C142.479 37.72 141.849 37.5707 141.28 37.272C140.72 36.964 140.277 36.5393 139.95 35.998C139.633 35.4473 139.474 34.8267 139.474 34.136C139.474 33.4453 139.633 32.8293 139.95 32.288C140.277 31.7467 140.72 31.3267 141.28 31.028C141.84 30.7293 142.47 30.58 143.17 30.58C143.795 30.58 144.36 30.706 144.864 30.958C145.368 31.21 145.774 31.574 146.082 32.05V30.636H147.034ZM143.268 36.838C143.8 36.838 144.281 36.726 144.71 36.502C145.139 36.2687 145.471 35.9467 145.704 35.536C145.947 35.1253 146.068 34.6587 146.068 34.136C146.068 33.6133 145.947 33.1513 145.704 32.75C145.471 32.3393 145.139 32.022 144.71 31.798C144.29 31.5647 143.809 31.448 143.268 31.448C142.736 31.448 142.255 31.56 141.826 31.784C141.406 32.008 141.075 32.3253 140.832 32.736C140.599 33.1467 140.482 33.6133 140.482 34.136C140.482 34.6587 140.599 35.1253 140.832 35.536C141.075 35.9467 141.406 36.2687 141.826 36.502C142.255 36.726 142.736 36.838 143.268 36.838ZM29.18 47.58C29.8707 47.58 30.496 47.7387 31.056 48.056C31.616 48.364 32.0547 48.8027 32.372 49.372C32.6893 49.9413 32.848 50.59 32.848 51.318C32.848 52.046 32.6893 52.6947 32.372 53.264C32.0547 53.8333 31.616 54.2767 31.056 54.594C30.496 54.9113 29.8707 55.07 29.18 55.07C28.564 55.07 28.0087 54.9393 27.514 54.678C27.0287 54.4167 26.6367 54.0387 26.338 53.544V55H25.386V44.612H26.38V49.036C26.688 48.56 27.08 48.2007 27.556 47.958C28.0413 47.706 28.5827 47.58 29.18 47.58ZM29.11 54.188C29.6233 54.188 30.09 54.0713 30.51 53.838C30.93 53.5953 31.2567 53.2547 31.49 52.816C31.7327 52.3773 31.854 51.878 31.854 51.318C31.854 50.758 31.7327 50.2587 31.49 49.82C31.2567 49.3813 30.93 49.0453 30.51 48.812C30.09 48.5693 29.6233 48.448 29.11 48.448C28.5873 48.448 28.116 48.5693 27.696 48.812C27.2853 49.0453 26.9587 49.3813 26.716 49.82C26.4827 50.2587 26.366 50.758 26.366 51.318C26.366 51.878 26.4827 52.3773 26.716 52.816C26.9587 53.2547 27.2853 53.5953 27.696 53.838C28.116 54.0713 28.5873 54.188 29.11 54.188ZM37.4093 47.58C38.3706 47.58 39.1079 47.8227 39.6213 48.308C40.1346 48.784 40.3913 49.4933 40.3913 50.436V55H39.4393V53.852C39.2153 54.2347 38.8839 54.5333 38.4453 54.748C38.0159 54.9627 37.5026 55.07 36.9053 55.07C36.0839 55.07 35.4306 54.874 34.9453 54.482C34.4599 54.09 34.2173 53.572 34.2173 52.928C34.2173 52.3027 34.4413 51.7987 34.8893 51.416C35.3466 51.0333 36.0699 50.842 37.0593 50.842H39.3973V50.394C39.3973 49.7593 39.2199 49.2787 38.8653 48.952C38.5106 48.616 37.9926 48.448 37.3113 48.448C36.8446 48.448 36.3966 48.5273 35.9673 48.686C35.5379 48.8353 35.1693 49.0453 34.8613 49.316L34.4133 48.574C34.7866 48.2567 35.2346 48.014 35.7573 47.846C36.2799 47.6687 36.8306 47.58 37.4093 47.58ZM37.0593 54.286C37.6193 54.286 38.0999 54.16 38.5013 53.908C38.9026 53.6467 39.2013 53.2733 39.3973 52.788V51.584H37.0873C35.8273 51.584 35.1973 52.0227 35.1973 52.9C35.1973 53.3293 35.3606 53.67 35.6873 53.922C36.0139 54.1647 36.4713 54.286 37.0593 54.286ZM45.0651 55.07C44.4677 55.07 43.8937 54.986 43.3431 54.818C42.8017 54.6407 42.3771 54.4213 42.0691 54.16L42.5171 53.376C42.8251 53.6187 43.2124 53.8193 43.6791 53.978C44.1457 54.1273 44.6311 54.202 45.1351 54.202C45.8071 54.202 46.3017 54.0993 46.6191 53.894C46.9457 53.6793 47.1091 53.3807 47.1091 52.998C47.1091 52.7273 47.0204 52.5173 46.8431 52.368C46.6657 52.2093 46.4417 52.0927 46.1711 52.018C45.9004 51.934 45.5411 51.8547 45.0931 51.78C44.4957 51.668 44.0151 51.556 43.6511 51.444C43.2871 51.3227 42.9744 51.122 42.7131 50.842C42.4611 50.562 42.3351 50.1747 42.3351 49.68C42.3351 49.064 42.5917 48.56 43.1051 48.168C43.6184 47.776 44.3324 47.58 45.2471 47.58C45.7231 47.58 46.1991 47.6453 46.6751 47.776C47.1511 47.8973 47.5431 48.0607 47.8511 48.266L47.4171 49.064C46.8104 48.644 46.0871 48.434 45.2471 48.434C44.6124 48.434 44.1317 48.546 43.8051 48.77C43.4877 48.994 43.3291 49.288 43.3291 49.652C43.3291 49.932 43.4177 50.156 43.5951 50.324C43.7817 50.492 44.0104 50.618 44.2811 50.702C44.5517 50.7767 44.9251 50.856 45.4011 50.94C45.9891 51.052 46.4604 51.164 46.8151 51.276C47.1697 51.388 47.4731 51.5793 47.7251 51.85C47.9771 52.1207 48.1031 52.494 48.1031 52.97C48.1031 53.614 47.8324 54.1273 47.2911 54.51C46.7591 54.8833 46.0171 55.07 45.0651 55.07ZM56.3527 51.626H50.1927C50.2487 52.3913 50.5427 53.012 51.0747 53.488C51.6067 53.9547 52.2787 54.188 53.0907 54.188C53.548 54.188 53.968 54.1087 54.3507 53.95C54.7334 53.782 55.0647 53.5393 55.3447 53.222L55.9047 53.866C55.578 54.258 55.1674 54.5567 54.6727 54.762C54.1874 54.9673 53.6507 55.07 53.0627 55.07C52.3067 55.07 51.6347 54.9113 51.0467 54.594C50.468 54.2673 50.0154 53.8193 49.6887 53.25C49.362 52.6807 49.1987 52.0367 49.1987 51.318C49.1987 50.5993 49.3527 49.9553 49.6607 49.386C49.978 48.8167 50.4074 48.3733 50.9487 48.056C51.4994 47.7387 52.1154 47.58 52.7967 47.58C53.478 47.58 54.0894 47.7387 54.6307 48.056C55.172 48.3733 55.5967 48.8167 55.9047 49.386C56.2127 49.946 56.3667 50.59 56.3667 51.318L56.3527 51.626ZM52.7967 48.434C52.0874 48.434 51.49 48.6627 51.0047 49.12C50.5287 49.568 50.258 50.156 50.1927 50.884H55.4147C55.3494 50.156 55.074 49.568 54.5887 49.12C54.1127 48.6627 53.5154 48.434 52.7967 48.434ZM65.1099 44.612V55H64.1579V53.544C63.8592 54.0387 63.4626 54.4167 62.9679 54.678C62.4826 54.9393 61.9319 55.07 61.3159 55.07C60.6252 55.07 59.9999 54.9113 59.4399 54.594C58.8799 54.2767 58.4412 53.8333 58.1239 53.264C57.8066 52.6947 57.6479 52.046 57.6479 51.318C57.6479 50.59 57.8066 49.9413 58.1239 49.372C58.4412 48.8027 58.8799 48.364 59.4399 48.056C59.9999 47.7387 60.6252 47.58 61.3159 47.58C61.9132 47.58 62.4499 47.706 62.9259 47.958C63.4112 48.2007 63.8079 48.56 64.1159 49.036V44.612H65.1099ZM61.3999 54.188C61.9132 54.188 62.3752 54.0713 62.7859 53.838C63.2059 53.5953 63.5326 53.2547 63.7659 52.816C64.0086 52.3773 64.1299 51.878 64.1299 51.318C64.1299 50.758 64.0086 50.2587 63.7659 49.82C63.5326 49.3813 63.2059 49.0453 62.7859 48.812C62.3752 48.5693 61.9132 48.448 61.3999 48.448C60.8772 48.448 60.4059 48.5693 59.9859 48.812C59.5752 49.0453 59.2486 49.3813 59.0059 49.82C58.7726 50.2587 58.6559 50.758 58.6559 51.318C58.6559 51.878 58.7726 52.3773 59.0059 52.816C59.2486 53.2547 59.5752 53.5953 59.9859 53.838C60.4059 54.0713 60.8772 54.188 61.3999 54.188ZM74.5523 55.07C73.8429 55.07 73.2036 54.9113 72.6343 54.594C72.0649 54.2673 71.6169 53.8193 71.2903 53.25C70.9636 52.6807 70.8003 52.0367 70.8003 51.318C70.8003 50.5993 70.9636 49.9553 71.2903 49.386C71.6169 48.8167 72.0649 48.3733 72.6343 48.056C73.2036 47.7387 73.8429 47.58 74.5523 47.58C75.2616 47.58 75.9009 47.7387 76.4703 48.056C77.0396 48.3733 77.4829 48.8167 77.8003 49.386C78.1269 49.9553 78.2903 50.5993 78.2903 51.318C78.2903 52.0367 78.1269 52.6807 77.8003 53.25C77.4829 53.8193 77.0396 54.2673 76.4703 54.594C75.9009 54.9113 75.2616 55.07 74.5523 55.07ZM74.5523 54.188C75.0749 54.188 75.5416 54.0713 75.9523 53.838C76.3723 53.5953 76.6989 53.2547 76.9323 52.816C77.1656 52.3773 77.2823 51.878 77.2823 51.318C77.2823 50.758 77.1656 50.2587 76.9323 49.82C76.6989 49.3813 76.3723 49.0453 75.9523 48.812C75.5416 48.5693 75.0749 48.448 74.5523 48.448C74.0296 48.448 73.5583 48.5693 73.1383 48.812C72.7276 49.0453 72.4009 49.3813 72.1583 49.82C71.9249 50.2587 71.8083 50.758 71.8083 51.318C71.8083 51.878 71.9249 52.3773 72.1583 52.816C72.4009 53.2547 72.7276 53.5953 73.1383 53.838C73.5583 54.0713 74.0296 54.188 74.5523 54.188ZM84.0716 47.58C84.9956 47.58 85.7283 47.8507 86.2696 48.392C86.8203 48.924 87.0956 49.7033 87.0956 50.73V55H86.1016V50.828C86.1016 50.0627 85.9103 49.4793 85.5276 49.078C85.1449 48.6767 84.5989 48.476 83.8896 48.476C83.0963 48.476 82.4663 48.714 81.9996 49.19C81.5423 49.6567 81.3136 50.3053 81.3136 51.136V55H80.3196V47.636H81.2716V48.994C81.5423 48.546 81.9156 48.2007 82.3916 47.958C82.8769 47.706 83.4369 47.58 84.0716 47.58ZM97.2103 47.58C98.1343 47.58 98.8669 47.8507 99.4083 48.392C99.9589 48.924 100.234 49.7033 100.234 50.73V55H99.2403V50.828C99.2403 50.0627 99.0489 49.4793 98.6663 49.078C98.2836 48.6767 97.7376 48.476 97.0283 48.476C96.2349 48.476 95.6049 48.714 95.1383 49.19C94.6809 49.6567 94.4523 50.3053 94.4523 51.136V55H93.4583V44.612H94.4523V48.924C94.7229 48.4947 95.0963 48.1633 95.5723 47.93C96.0483 47.6967 96.5943 47.58 97.2103 47.58ZM102.933 47.636H103.927V55H102.933V47.636ZM103.437 46.026C103.232 46.026 103.059 45.956 102.919 45.816C102.779 45.676 102.709 45.508 102.709 45.312C102.709 45.1253 102.779 44.962 102.919 44.822C103.059 44.682 103.232 44.612 103.437 44.612C103.642 44.612 103.815 44.682 103.955 44.822C104.095 44.9527 104.165 45.1113 104.165 45.298C104.165 45.5033 104.095 45.676 103.955 45.816C103.815 45.956 103.642 46.026 103.437 46.026ZM108.667 55.07C108.069 55.07 107.495 54.986 106.945 54.818C106.403 54.6407 105.979 54.4213 105.671 54.16L106.119 53.376C106.427 53.6187 106.814 53.8193 107.281 53.978C107.747 54.1273 108.233 54.202 108.737 54.202C109.409 54.202 109.903 54.0993 110.221 53.894C110.547 53.6793 110.711 53.3807 110.711 52.998C110.711 52.7273 110.622 52.5173 110.445 52.368C110.267 52.2093 110.043 52.0927 109.773 52.018C109.502 51.934 109.143 51.8547 108.695 51.78C108.097 51.668 107.617 51.556 107.253 51.444C106.889 51.3227 106.576 51.122 106.315 50.842C106.063 50.562 105.937 50.1747 105.937 49.68C105.937 49.064 106.193 48.56 106.707 48.168C107.22 47.776 107.934 47.58 108.849 47.58C109.325 47.58 109.801 47.6453 110.277 47.776C110.753 47.8973 111.145 48.0607 111.453 48.266L111.019 49.064C110.412 48.644 109.689 48.434 108.849 48.434C108.214 48.434 107.733 48.546 107.407 48.77C107.089 48.994 106.931 49.288 106.931 49.652C106.931 49.932 107.019 50.156 107.197 50.324C107.383 50.492 107.612 50.618 107.883 50.702C108.153 50.7767 108.527 50.856 109.003 50.94C109.591 51.052 110.062 51.164 110.417 51.276C110.771 51.388 111.075 51.5793 111.327 51.85C111.579 52.1207 111.705 52.494 111.705 52.97C111.705 53.614 111.434 54.1273 110.893 54.51C110.361 54.8833 109.619 55.07 108.667 55.07ZM117.42 54.552C117.234 54.72 117 54.8507 116.72 54.944C116.45 55.028 116.165 55.07 115.866 55.07C115.176 55.07 114.644 54.8833 114.27 54.51C113.897 54.1367 113.71 53.6093 113.71 52.928V48.476H112.394V47.636H113.71V46.026H114.704V47.636H116.944V48.476H114.704V52.872C114.704 53.3107 114.812 53.6467 115.026 53.88C115.25 54.104 115.568 54.216 115.978 54.216C116.184 54.216 116.38 54.1833 116.566 54.118C116.762 54.0527 116.93 53.9593 117.07 53.838L117.42 54.552ZM121.98 55.07C121.271 55.07 120.631 54.9113 120.062 54.594C119.493 54.2673 119.045 53.8193 118.718 53.25C118.391 52.6807 118.228 52.0367 118.228 51.318C118.228 50.5993 118.391 49.9553 118.718 49.386C119.045 48.8167 119.493 48.3733 120.062 48.056C120.631 47.7387 121.271 47.58 121.98 47.58C122.689 47.58 123.329 47.7387 123.898 48.056C124.467 48.3733 124.911 48.8167 125.228 49.386C125.555 49.9553 125.718 50.5993 125.718 51.318C125.718 52.0367 125.555 52.6807 125.228 53.25C124.911 53.8193 124.467 54.2673 123.898 54.594C123.329 54.9113 122.689 55.07 121.98 55.07ZM121.98 54.188C122.503 54.188 122.969 54.0713 123.38 53.838C123.8 53.5953 124.127 53.2547 124.36 52.816C124.593 52.3773 124.71 51.878 124.71 51.318C124.71 50.758 124.593 50.2587 124.36 49.82C124.127 49.3813 123.8 49.0453 123.38 48.812C122.969 48.5693 122.503 48.448 121.98 48.448C121.457 48.448 120.986 48.5693 120.566 48.812C120.155 49.0453 119.829 49.3813 119.586 49.82C119.353 50.2587 119.236 50.758 119.236 51.318C119.236 51.878 119.353 52.3773 119.586 52.816C119.829 53.2547 120.155 53.5953 120.566 53.838C120.986 54.0713 121.457 54.188 121.98 54.188ZM128.699 49.078C128.933 48.5833 129.278 48.21 129.735 47.958C130.202 47.706 130.776 47.58 131.457 47.58V48.546L131.219 48.532C130.445 48.532 129.838 48.77 129.399 49.246C128.961 49.722 128.741 50.3893 128.741 51.248V55H127.747V47.636H128.699V49.078ZM133.257 47.636H134.251V55H133.257V47.636ZM133.761 46.026C133.556 46.026 133.383 45.956 133.243 45.816C133.103 45.676 133.033 45.508 133.033 45.312C133.033 45.1253 133.103 44.962 133.243 44.822C133.383 44.682 133.556 44.612 133.761 44.612C133.966 44.612 134.139 44.682 134.279 44.822C134.419 44.9527 134.489 45.1113 134.489 45.298C134.489 45.5033 134.419 45.676 134.279 45.816C134.139 45.956 133.966 46.026 133.761 46.026ZM140.069 55.07C139.341 55.07 138.688 54.9113 138.109 54.594C137.54 54.2767 137.092 53.8333 136.765 53.264C136.438 52.6853 136.275 52.0367 136.275 51.318C136.275 50.5993 136.438 49.9553 136.765 49.386C137.092 48.8167 137.54 48.3733 138.109 48.056C138.688 47.7387 139.341 47.58 140.069 47.58C140.704 47.58 141.268 47.706 141.763 47.958C142.267 48.2007 142.664 48.56 142.953 49.036L142.211 49.54C141.968 49.176 141.66 48.9053 141.287 48.728C140.914 48.5413 140.508 48.448 140.069 48.448C139.537 48.448 139.056 48.5693 138.627 48.812C138.207 49.0453 137.876 49.3813 137.633 49.82C137.4 50.2587 137.283 50.758 137.283 51.318C137.283 51.8873 137.4 52.3913 137.633 52.83C137.876 53.2593 138.207 53.5953 138.627 53.838C139.056 54.0713 139.537 54.188 140.069 54.188C140.508 54.188 140.914 54.0993 141.287 53.922C141.66 53.7447 141.968 53.474 142.211 53.11L142.953 53.614C142.664 54.09 142.267 54.454 141.763 54.706C141.259 54.9487 140.694 55.07 140.069 55.07ZM147.482 47.58C148.443 47.58 149.18 47.8227 149.694 48.308C150.207 48.784 150.464 49.4933 150.464 50.436V55H149.512V53.852C149.288 54.2347 148.956 54.5333 148.518 54.748C148.088 54.9627 147.575 55.07 146.978 55.07C146.156 55.07 145.503 54.874 145.018 54.482C144.532 54.09 144.29 53.572 144.29 52.928C144.29 52.3027 144.514 51.7987 144.962 51.416C145.419 51.0333 146.142 50.842 147.132 50.842H149.47V50.394C149.47 49.7593 149.292 49.2787 148.938 48.952C148.583 48.616 148.065 48.448 147.384 48.448C146.917 48.448 146.469 48.5273 146.04 48.686C145.61 48.8353 145.242 49.0453 144.934 49.316L144.486 48.574C144.859 48.2567 145.307 48.014 145.83 47.846C146.352 47.6687 146.903 47.58 147.482 47.58ZM147.132 54.286C147.692 54.286 148.172 54.16 148.574 53.908C148.975 53.6467 149.274 53.2733 149.47 52.788V51.584H147.16C145.9 51.584 145.27 52.0227 145.27 52.9C145.27 53.3293 145.433 53.67 145.76 53.922C146.086 54.1647 146.544 54.286 147.132 54.286ZM153.163 44.612H154.157V55H153.163V44.612ZM167.307 44.612V55H166.355V53.544C166.057 54.0387 165.66 54.4167 165.165 54.678C164.68 54.9393 164.129 55.07 163.513 55.07C162.823 55.07 162.197 54.9113 161.637 54.594C161.077 54.2767 160.639 53.8333 160.321 53.264C160.004 52.6947 159.845 52.046 159.845 51.318C159.845 50.59 160.004 49.9413 160.321 49.372C160.639 48.8027 161.077 48.364 161.637 48.056C162.197 47.7387 162.823 47.58 163.513 47.58C164.111 47.58 164.647 47.706 165.123 47.958C165.609 48.2007 166.005 48.56 166.313 49.036V44.612H167.307ZM163.597 54.188C164.111 54.188 164.573 54.0713 164.983 53.838C165.403 53.5953 165.73 53.2547 165.963 52.816C166.206 52.3773 166.327 51.878 166.327 51.318C166.327 50.758 166.206 50.2587 165.963 49.82C165.73 49.3813 165.403 49.0453 164.983 48.812C164.573 48.5693 164.111 48.448 163.597 48.448C163.075 48.448 162.603 48.5693 162.183 48.812C161.773 49.0453 161.446 49.3813 161.203 49.82C160.97 50.2587 160.853 50.758 160.853 51.318C160.853 51.878 160.97 52.3773 161.203 52.816C161.446 53.2547 161.773 53.5953 162.183 53.838C162.603 54.0713 163.075 54.188 163.597 54.188ZM172.651 47.58C173.613 47.58 174.35 47.8227 174.863 48.308C175.377 48.784 175.633 49.4933 175.633 50.436V55H174.681V53.852C174.457 54.2347 174.126 54.5333 173.687 54.748C173.258 54.9627 172.745 55.07 172.147 55.07C171.326 55.07 170.673 54.874 170.187 54.482C169.702 54.09 169.459 53.572 169.459 52.928C169.459 52.3027 169.683 51.7987 170.131 51.416C170.589 51.0333 171.312 50.842 172.301 50.842H174.639V50.394C174.639 49.7593 174.462 49.2787 174.107 48.952C173.753 48.616 173.235 48.448 172.553 48.448C172.087 48.448 171.639 48.5273 171.209 48.686C170.78 48.8353 170.411 49.0453 170.103 49.316L169.655 48.574C170.029 48.2567 170.477 48.014 170.999 47.846C171.522 47.6687 172.073 47.58 172.651 47.58ZM172.301 54.286C172.861 54.286 173.342 54.16 173.743 53.908C174.145 53.6467 174.443 53.2733 174.639 52.788V51.584H172.329C171.069 51.584 170.439 52.0227 170.439 52.9C170.439 53.3293 170.603 53.67 170.929 53.922C171.256 54.1647 171.713 54.286 172.301 54.286ZM182.211 54.552C182.025 54.72 181.791 54.8507 181.511 54.944C181.241 55.028 180.956 55.07 180.657 55.07C179.967 55.07 179.435 54.8833 179.061 54.51C178.688 54.1367 178.501 53.6093 178.501 52.928V48.476H177.185V47.636H178.501V46.026H179.495V47.636H181.735V48.476H179.495V52.872C179.495 53.3107 179.603 53.6467 179.817 53.88C180.041 54.104 180.359 54.216 180.769 54.216C180.975 54.216 181.171 54.1833 181.357 54.118C181.553 54.0527 181.721 53.9593 181.861 53.838L182.211 54.552ZM186.597 47.58C187.558 47.58 188.295 47.8227 188.809 48.308C189.322 48.784 189.579 49.4933 189.579 50.436V55H188.627V53.852C188.403 54.2347 188.071 54.5333 187.633 54.748C187.203 54.9627 186.69 55.07 186.093 55.07C185.271 55.07 184.618 54.874 184.133 54.482C183.647 54.09 183.405 53.572 183.405 52.928C183.405 52.3027 183.629 51.7987 184.077 51.416C184.534 51.0333 185.257 50.842 186.247 50.842H188.585V50.394C188.585 49.7593 188.407 49.2787 188.053 48.952C187.698 48.616 187.18 48.448 186.499 48.448C186.032 48.448 185.584 48.5273 185.155 48.686C184.725 48.8353 184.357 49.0453 184.049 49.316L183.601 48.574C183.974 48.2567 184.422 48.014 184.945 47.846C185.467 47.6687 186.018 47.58 186.597 47.58ZM186.247 54.286C186.807 54.286 187.287 54.16 187.689 53.908C188.09 53.6467 188.389 53.2733 188.585 52.788V51.584H186.275C185.015 51.584 184.385 52.0227 184.385 52.9C184.385 53.3293 184.548 53.67 184.875 53.922C185.201 54.1647 185.659 54.286 186.247 54.286Z" fill="#2C2F32"/>
<rect x="0.5" y="0.5" width="249" height="81" stroke="#2C2F32"/>
<rect x="0.5" y="114.5" width="249" height="64" fill="white"/>
<path d="M29.264 151.552C29.0773 151.72 28.844 151.851 28.564 151.944C28.2933 152.028 28.0087 152.07 27.71 152.07C27.0193 152.07 26.4873 151.883 26.114 151.51C25.7407 151.137 25.554 150.609 25.554 149.928V145.476H24.238V144.636H25.554V143.026H26.548V144.636H28.788V145.476H26.548V149.872C26.548 150.311 26.6553 150.647 26.87 150.88C27.094 151.104 27.4113 151.216 27.822 151.216C28.0273 151.216 28.2233 151.183 28.41 151.118C28.606 151.053 28.774 150.959 28.914 150.838L29.264 151.552ZM32.0255 146.078C32.2588 145.583 32.6042 145.21 33.0615 144.958C33.5282 144.706 34.1022 144.58 34.7835 144.58V145.546L34.5455 145.532C33.7708 145.532 33.1642 145.77 32.7255 146.246C32.2868 146.722 32.0675 147.389 32.0675 148.248V152H31.0735V144.636H32.0255V146.078ZM39.1456 144.58C40.1069 144.58 40.8443 144.823 41.3576 145.308C41.8709 145.784 42.1276 146.493 42.1276 147.436V152H41.1756V150.852C40.9516 151.235 40.6203 151.533 40.1816 151.748C39.7523 151.963 39.2389 152.07 38.6416 152.07C37.8203 152.07 37.1669 151.874 36.6816 151.482C36.1963 151.09 35.9536 150.572 35.9536 149.928C35.9536 149.303 36.1776 148.799 36.6256 148.416C37.0829 148.033 37.8063 147.842 38.7956 147.842H41.1336V147.394C41.1336 146.759 40.9563 146.279 40.6016 145.952C40.2469 145.616 39.7289 145.448 39.0476 145.448C38.5809 145.448 38.1329 145.527 37.7036 145.686C37.2743 145.835 36.9056 146.045 36.5976 146.316L36.1496 145.574C36.5229 145.257 36.9709 145.014 37.4936 144.846C38.0163 144.669 38.5669 144.58 39.1456 144.58ZM38.7956 151.286C39.3556 151.286 39.8363 151.16 40.2376 150.908C40.6389 150.647 40.9376 150.273 41.1336 149.788V148.584H38.8236C37.5636 148.584 36.9336 149.023 36.9336 149.9C36.9336 150.329 37.0969 150.67 37.4236 150.922C37.7503 151.165 38.2076 151.286 38.7956 151.286ZM47.9068 152.07C47.1788 152.07 46.5254 151.911 45.9468 151.594C45.3774 151.277 44.9294 150.833 44.6028 150.264C44.2761 149.685 44.1128 149.037 44.1128 148.318C44.1128 147.599 44.2761 146.955 44.6028 146.386C44.9294 145.817 45.3774 145.373 45.9468 145.056C46.5254 144.739 47.1788 144.58 47.9068 144.58C48.5414 144.58 49.1061 144.706 49.6008 144.958C50.1048 145.201 50.5014 145.56 50.7908 146.036L50.0488 146.54C49.8061 146.176 49.4981 145.905 49.1248 145.728C48.7514 145.541 48.3454 145.448 47.9068 145.448C47.3748 145.448 46.8941 145.569 46.4648 145.812C46.0448 146.045 45.7134 146.381 45.4708 146.82C45.2374 147.259 45.1208 147.758 45.1208 148.318C45.1208 148.887 45.2374 149.391 45.4708 149.83C45.7134 150.259 46.0448 150.595 46.4648 150.838C46.8941 151.071 47.3748 151.188 47.9068 151.188C48.3454 151.188 48.7514 151.099 49.1248 150.922C49.4981 150.745 49.8061 150.474 50.0488 150.11L50.7908 150.614C50.5014 151.09 50.1048 151.454 49.6008 151.706C49.0968 151.949 48.5321 152.07 47.9068 152.07ZM55.364 148.304L53.628 149.9V152H52.634V141.612H53.628V148.654L58.024 144.636H59.256L56.106 147.646L59.55 152H58.332L55.364 148.304ZM60.9329 144.636H61.9269V152H60.9329V144.636ZM61.4369 143.026C61.2315 143.026 61.0589 142.956 60.9189 142.816C60.7789 142.676 60.7089 142.508 60.7089 142.312C60.7089 142.125 60.7789 141.962 60.9189 141.822C61.0589 141.682 61.2315 141.612 61.4369 141.612C61.6422 141.612 61.8149 141.682 61.9549 141.822C62.0949 141.953 62.1649 142.111 62.1649 142.298C62.1649 142.503 62.0949 142.676 61.9549 142.816C61.8149 142.956 61.6422 143.026 61.4369 143.026ZM68.4446 144.58C69.3686 144.58 70.1013 144.851 70.6426 145.392C71.1933 145.924 71.4686 146.703 71.4686 147.73V152H70.4746V147.828C70.4746 147.063 70.2833 146.479 69.9006 146.078C69.518 145.677 68.972 145.476 68.2626 145.476C67.4693 145.476 66.8393 145.714 66.3726 146.19C65.9153 146.657 65.6866 147.305 65.6866 148.136V152H64.6926V144.636H65.6446V145.994C65.9153 145.546 66.2886 145.201 66.7646 144.958C67.25 144.706 67.81 144.58 68.4446 144.58ZM81.0126 144.636V151.104C81.0126 152.355 80.7046 153.279 80.0886 153.876C79.4819 154.483 78.5626 154.786 77.3306 154.786C76.6493 154.786 76.0006 154.683 75.3846 154.478C74.7779 154.282 74.2833 154.007 73.9006 153.652L74.4046 152.896C74.7593 153.213 75.1886 153.461 75.6926 153.638C76.2059 153.815 76.7426 153.904 77.3026 153.904C78.2359 153.904 78.9219 153.685 79.3606 153.246C79.7993 152.817 80.0186 152.145 80.0186 151.23V150.292C79.7106 150.759 79.3046 151.113 78.8006 151.356C78.3059 151.599 77.7553 151.72 77.1486 151.72C76.4579 151.72 75.8279 151.571 75.2586 151.272C74.6986 150.964 74.2553 150.539 73.9286 149.998C73.6113 149.447 73.4526 148.827 73.4526 148.136C73.4526 147.445 73.6113 146.829 73.9286 146.288C74.2553 145.747 74.6986 145.327 75.2586 145.028C75.8186 144.729 76.4486 144.58 77.1486 144.58C77.7739 144.58 78.3386 144.706 78.8426 144.958C79.3466 145.21 79.7526 145.574 80.0606 146.05V144.636H81.0126ZM77.2466 150.838C77.7786 150.838 78.2593 150.726 78.6886 150.502C79.1179 150.269 79.4493 149.947 79.6826 149.536C79.9253 149.125 80.0466 148.659 80.0466 148.136C80.0466 147.613 79.9253 147.151 79.6826 146.75C79.4493 146.339 79.1179 146.022 78.6886 145.798C78.2686 145.565 77.7879 145.448 77.2466 145.448C76.7146 145.448 76.2339 145.56 75.8046 145.784C75.3846 146.008 75.0533 146.325 74.8106 146.736C74.5773 147.147 74.4606 147.613 74.4606 148.136C74.4606 148.659 74.5773 149.125 74.8106 149.536C75.0533 149.947 75.3846 150.269 75.8046 150.502C76.2339 150.726 76.7146 150.838 77.2466 150.838ZM94.6803 152.154L93.3223 150.754C92.4916 151.641 91.3996 152.084 90.0463 152.084C89.4116 152.084 88.8423 151.981 88.3383 151.776C87.8436 151.561 87.4563 151.267 87.1763 150.894C86.8963 150.511 86.7563 150.077 86.7563 149.592C86.7563 149.004 86.943 148.477 87.3163 148.01C87.6896 147.543 88.3243 147.053 89.2203 146.54C88.7536 146.055 88.4316 145.644 88.2543 145.308C88.077 144.963 87.9883 144.599 87.9883 144.216C87.9883 143.591 88.2123 143.087 88.6603 142.704C89.1083 142.321 89.7103 142.13 90.4663 142.13C91.1663 142.13 91.7216 142.303 92.1323 142.648C92.543 142.993 92.7483 143.469 92.7483 144.076C92.7483 144.561 92.585 145 92.2583 145.392C91.9316 145.775 91.367 146.199 90.5643 146.666L93.2523 149.438C93.551 148.906 93.7703 148.276 93.9103 147.548L94.7223 147.8C94.545 148.677 94.2556 149.429 93.8543 150.054L95.2543 151.496L94.6803 152.154ZM90.4663 142.872C89.981 142.872 89.5983 142.993 89.3183 143.236C89.0476 143.479 88.9123 143.801 88.9123 144.202C88.9123 144.491 88.987 144.767 89.1363 145.028C89.2856 145.289 89.5796 145.644 90.0183 146.092C90.7276 145.681 91.2176 145.331 91.4883 145.042C91.759 144.753 91.8943 144.435 91.8943 144.09C91.8943 143.717 91.7683 143.423 91.5163 143.208C91.2643 142.984 90.9143 142.872 90.4663 142.872ZM90.1023 151.258C91.185 151.258 92.0623 150.889 92.7343 150.152L89.7803 147.114C89.0056 147.553 88.469 147.949 88.1703 148.304C87.881 148.659 87.7363 149.055 87.7363 149.494C87.7363 150.026 87.951 150.455 88.3803 150.782C88.819 151.099 89.393 151.258 90.1023 151.258ZM104.28 144.58C104.97 144.58 105.596 144.739 106.156 145.056C106.716 145.364 107.154 145.803 107.472 146.372C107.789 146.941 107.948 147.59 107.948 148.318C107.948 149.055 107.789 149.709 107.472 150.278C107.154 150.847 106.716 151.291 106.156 151.608C105.605 151.916 104.98 152.07 104.28 152.07C103.682 152.07 103.141 151.949 102.656 151.706C102.18 151.454 101.788 151.09 101.48 150.614V154.716H100.486V144.636H101.438V146.092C101.736 145.607 102.128 145.233 102.614 144.972C103.108 144.711 103.664 144.58 104.28 144.58ZM104.21 151.188C104.723 151.188 105.19 151.071 105.61 150.838C106.03 150.595 106.356 150.255 106.59 149.816C106.832 149.377 106.954 148.878 106.954 148.318C106.954 147.758 106.832 147.263 106.59 146.834C106.356 146.395 106.03 146.055 105.61 145.812C105.19 145.569 104.723 145.448 104.21 145.448C103.687 145.448 103.216 145.569 102.796 145.812C102.385 146.055 102.058 146.395 101.816 146.834C101.582 147.263 101.466 147.758 101.466 148.318C101.466 148.878 101.582 149.377 101.816 149.816C102.058 150.255 102.385 150.595 102.796 150.838C103.216 151.071 103.687 151.188 104.21 151.188ZM112.509 144.58C113.47 144.58 114.208 144.823 114.721 145.308C115.234 145.784 115.491 146.493 115.491 147.436V152H114.539V150.852C114.315 151.235 113.984 151.533 113.545 151.748C113.116 151.963 112.602 152.07 112.005 152.07C111.184 152.07 110.53 151.874 110.045 151.482C109.56 151.09 109.317 150.572 109.317 149.928C109.317 149.303 109.541 148.799 109.989 148.416C110.446 148.033 111.17 147.842 112.159 147.842H114.497V147.394C114.497 146.759 114.32 146.279 113.965 145.952C113.61 145.616 113.092 145.448 112.411 145.448C111.944 145.448 111.496 145.527 111.067 145.686C110.638 145.835 110.269 146.045 109.961 146.316L109.513 145.574C109.886 145.257 110.334 145.014 110.857 144.846C111.38 144.669 111.93 144.58 112.509 144.58ZM112.159 151.286C112.719 151.286 113.2 151.16 113.601 150.908C114.002 150.647 114.301 150.273 114.497 149.788V148.584H112.187C110.927 148.584 110.297 149.023 110.297 149.9C110.297 150.329 110.46 150.67 110.787 150.922C111.114 151.165 111.571 151.286 112.159 151.286ZM122.069 151.552C121.882 151.72 121.649 151.851 121.369 151.944C121.098 152.028 120.813 152.07 120.515 152.07C119.824 152.07 119.292 151.883 118.919 151.51C118.545 151.137 118.359 150.609 118.359 149.928V145.476H117.043V144.636H118.359V143.026H119.353V144.636H121.593V145.476H119.353V149.872C119.353 150.311 119.46 150.647 119.675 150.88C119.899 151.104 120.216 151.216 120.627 151.216C120.832 151.216 121.028 151.183 121.215 151.118C121.411 151.053 121.579 150.959 121.719 150.838L122.069 151.552ZM127.565 151.552C127.378 151.72 127.145 151.851 126.865 151.944C126.594 152.028 126.309 152.07 126.011 152.07C125.32 152.07 124.788 151.883 124.415 151.51C124.041 151.137 123.855 150.609 123.855 149.928V145.476H122.539V144.636H123.855V143.026H124.849V144.636H127.089V145.476H124.849V149.872C124.849 150.311 124.956 150.647 125.171 150.88C125.395 151.104 125.712 151.216 126.123 151.216C126.328 151.216 126.524 151.183 126.711 151.118C126.907 151.053 127.075 150.959 127.215 150.838L127.565 151.552ZM135.527 148.626H129.367C129.423 149.391 129.717 150.012 130.249 150.488C130.781 150.955 131.453 151.188 132.265 151.188C132.722 151.188 133.142 151.109 133.525 150.95C133.907 150.782 134.239 150.539 134.519 150.222L135.079 150.866C134.752 151.258 134.341 151.557 133.847 151.762C133.361 151.967 132.825 152.07 132.237 152.07C131.481 152.07 130.809 151.911 130.221 151.594C129.642 151.267 129.189 150.819 128.863 150.25C128.536 149.681 128.373 149.037 128.373 148.318C128.373 147.599 128.527 146.955 128.835 146.386C129.152 145.817 129.581 145.373 130.123 145.056C130.673 144.739 131.289 144.58 131.971 144.58C132.652 144.58 133.263 144.739 133.805 145.056C134.346 145.373 134.771 145.817 135.079 146.386C135.387 146.946 135.541 147.59 135.541 148.318L135.527 148.626ZM131.971 145.434C131.261 145.434 130.664 145.663 130.179 146.12C129.703 146.568 129.432 147.156 129.367 147.884H134.589C134.523 147.156 134.248 146.568 133.763 146.12C133.287 145.663 132.689 145.434 131.971 145.434ZM138.516 146.078C138.749 145.583 139.094 145.21 139.552 144.958C140.018 144.706 140.592 144.58 141.274 144.58V145.546L141.036 145.532C140.261 145.532 139.654 145.77 139.216 146.246C138.777 146.722 138.558 147.389 138.558 148.248V152H137.564V144.636H138.516V146.078ZM146.826 144.58C147.75 144.58 148.482 144.851 149.024 145.392C149.574 145.924 149.85 146.703 149.85 147.73V152H148.856V147.828C148.856 147.063 148.664 146.479 148.282 146.078C147.899 145.677 147.353 145.476 146.644 145.476C145.85 145.476 145.22 145.714 144.754 146.19C144.296 146.657 144.068 147.305 144.068 148.136V152H143.074V144.636H144.026V145.994C144.296 145.546 144.67 145.201 145.146 144.958C145.631 144.706 146.191 144.58 146.826 144.58ZM158.648 142.382C158.219 142.382 157.892 142.499 157.668 142.732C157.454 142.965 157.346 143.311 157.346 143.768V144.636H159.614V145.476H157.374V152H156.38V145.476H155.064V144.636H156.38V143.726C156.38 143.054 156.572 142.522 156.954 142.13C157.346 141.738 157.897 141.542 158.606 141.542C158.886 141.542 159.157 141.584 159.418 141.668C159.68 141.743 159.899 141.855 160.076 142.004L159.74 142.746C159.451 142.503 159.087 142.382 158.648 142.382ZM163.843 152.07C163.134 152.07 162.495 151.911 161.925 151.594C161.356 151.267 160.908 150.819 160.581 150.25C160.255 149.681 160.091 149.037 160.091 148.318C160.091 147.599 160.255 146.955 160.581 146.386C160.908 145.817 161.356 145.373 161.925 145.056C162.495 144.739 163.134 144.58 163.843 144.58C164.553 144.58 165.192 144.739 165.761 145.056C166.331 145.373 166.774 145.817 167.091 146.386C167.418 146.955 167.581 147.599 167.581 148.318C167.581 149.037 167.418 149.681 167.091 150.25C166.774 150.819 166.331 151.267 165.761 151.594C165.192 151.911 164.553 152.07 163.843 152.07ZM163.843 151.188C164.366 151.188 164.833 151.071 165.243 150.838C165.663 150.595 165.99 150.255 166.223 149.816C166.457 149.377 166.573 148.878 166.573 148.318C166.573 147.758 166.457 147.259 166.223 146.82C165.99 146.381 165.663 146.045 165.243 145.812C164.833 145.569 164.366 145.448 163.843 145.448C163.321 145.448 162.849 145.569 162.429 145.812C162.019 146.045 161.692 146.381 161.449 146.82C161.216 147.259 161.099 147.758 161.099 148.318C161.099 148.878 161.216 149.377 161.449 149.816C161.692 150.255 162.019 150.595 162.429 150.838C162.849 151.071 163.321 151.188 163.843 151.188ZM170.563 146.078C170.796 145.583 171.141 145.21 171.599 144.958C172.065 144.706 172.639 144.58 173.321 144.58V145.546L173.083 145.532C172.308 145.532 171.701 145.77 171.263 146.246C170.824 146.722 170.605 147.389 170.605 148.248V152H169.611V144.636H170.563V146.078ZM184.304 144.58C185.228 144.58 185.952 144.846 186.474 145.378C187.006 145.91 187.272 146.694 187.272 147.73V152H186.278V147.828C186.278 147.063 186.092 146.479 185.718 146.078C185.354 145.677 184.836 145.476 184.164 145.476C183.399 145.476 182.797 145.714 182.358 146.19C181.92 146.657 181.7 147.305 181.7 148.136V152H180.706V147.828C180.706 147.063 180.52 146.479 180.146 146.078C179.782 145.677 179.26 145.476 178.578 145.476C177.822 145.476 177.22 145.714 176.772 146.19C176.334 146.657 176.114 147.305 176.114 148.136V152H175.12V144.636H176.072V145.98C176.334 145.532 176.698 145.187 177.164 144.944C177.631 144.701 178.168 144.58 178.774 144.58C179.39 144.58 179.922 144.711 180.37 144.972C180.828 145.233 181.168 145.621 181.392 146.134C181.663 145.649 182.05 145.271 182.554 145C183.068 144.72 183.651 144.58 184.304 144.58ZM192.544 144.58C193.505 144.58 194.243 144.823 194.756 145.308C195.269 145.784 195.526 146.493 195.526 147.436V152H194.574V150.852C194.35 151.235 194.019 151.533 193.58 151.748C193.151 151.963 192.637 152.07 192.04 152.07C191.219 152.07 190.565 151.874 190.08 151.482C189.595 151.09 189.352 150.572 189.352 149.928C189.352 149.303 189.576 148.799 190.024 148.416C190.481 148.033 191.205 147.842 192.194 147.842H194.532V147.394C194.532 146.759 194.355 146.279 194 145.952C193.645 145.616 193.127 145.448 192.446 145.448C191.979 145.448 191.531 145.527 191.102 145.686C190.673 145.835 190.304 146.045 189.996 146.316L189.548 145.574C189.921 145.257 190.369 145.014 190.892 144.846C191.415 144.669 191.965 144.58 192.544 144.58ZM192.194 151.286C192.754 151.286 193.235 151.16 193.636 150.908C194.037 150.647 194.336 150.273 194.532 149.788V148.584H192.222C190.962 148.584 190.332 149.023 190.332 149.9C190.332 150.329 190.495 150.67 190.822 150.922C191.149 151.165 191.606 151.286 192.194 151.286ZM202.104 151.552C201.917 151.72 201.684 151.851 201.404 151.944C201.133 152.028 200.849 152.07 200.55 152.07C199.859 152.07 199.327 151.883 198.954 151.51C198.581 151.137 198.394 150.609 198.394 149.928V145.476H197.078V144.636H198.394V143.026H199.388V144.636H201.628V145.476H199.388V149.872C199.388 150.311 199.495 150.647 199.71 150.88C199.934 151.104 200.251 151.216 200.662 151.216C200.867 151.216 201.063 151.183 201.25 151.118C201.446 151.053 201.614 150.959 201.754 150.838L202.104 151.552ZM203.913 144.636H204.907V152H203.913V144.636ZM204.417 143.026C204.212 143.026 204.039 142.956 203.899 142.816C203.759 142.676 203.689 142.508 203.689 142.312C203.689 142.125 203.759 141.962 203.899 141.822C204.039 141.682 204.212 141.612 204.417 141.612C204.623 141.612 204.795 141.682 204.935 141.822C205.075 141.953 205.145 142.111 205.145 142.298C205.145 142.503 205.075 142.676 204.935 142.816C204.795 142.956 204.623 143.026 204.417 143.026ZM210.683 152.07C209.974 152.07 209.334 151.911 208.765 151.594C208.196 151.267 207.748 150.819 207.421 150.25C207.094 149.681 206.931 149.037 206.931 148.318C206.931 147.599 207.094 146.955 207.421 146.386C207.748 145.817 208.196 145.373 208.765 145.056C209.334 144.739 209.974 144.58 210.683 144.58C211.392 144.58 212.032 144.739 212.601 145.056C213.17 145.373 213.614 145.817 213.931 146.386C214.258 146.955 214.421 147.599 214.421 148.318C214.421 149.037 214.258 149.681 213.931 150.25C213.614 150.819 213.17 151.267 212.601 151.594C212.032 151.911 211.392 152.07 210.683 152.07ZM210.683 151.188C211.206 151.188 211.672 151.071 212.083 150.838C212.503 150.595 212.83 150.255 213.063 149.816C213.296 149.377 213.413 148.878 213.413 148.318C213.413 147.758 213.296 147.259 213.063 146.82C212.83 146.381 212.503 146.045 212.083 145.812C211.672 145.569 211.206 145.448 210.683 145.448C210.16 145.448 209.689 145.569 209.269 145.812C208.858 146.045 208.532 146.381 208.289 146.82C208.056 147.259 207.939 147.758 207.939 148.318C207.939 148.878 208.056 149.377 208.289 149.816C208.532 150.255 208.858 150.595 209.269 150.838C209.689 151.071 210.16 151.188 210.683 151.188ZM220.202 144.58C221.126 144.58 221.859 144.851 222.4 145.392C222.951 145.924 223.226 146.703 223.226 147.73V152H222.232V147.828C222.232 147.063 222.041 146.479 221.658 146.078C221.276 145.677 220.73 145.476 220.02 145.476C219.227 145.476 218.597 145.714 218.13 146.19C217.673 146.657 217.444 147.305 217.444 148.136V152H216.45V144.636H217.402V145.994C217.673 145.546 218.046 145.201 218.522 144.958C219.008 144.706 219.568 144.58 220.202 144.58Z" fill="#2C2F32"/>
<rect x="0.5" y="114.5" width="249" height="64" stroke="#2C2F32"/>
<rect x="0.5" y="211.5" width="249" height="81" fill="white"/>
<path d="M27.36 249.07C26.7627 249.07 26.1887 248.986 25.638 248.818C25.0967 248.641 24.672 248.421 24.364 248.16L24.812 247.376C25.12 247.619 25.5073 247.819 25.974 247.978C26.4407 248.127 26.926 248.202 27.43 248.202C28.102 248.202 28.5967 248.099 28.914 247.894C29.2407 247.679 29.404 247.381 29.404 246.998C29.404 246.727 29.3153 246.517 29.138 246.368C28.9607 246.209 28.7367 246.093 28.466 246.018C28.1953 245.934 27.836 245.855 27.388 245.78C26.7907 245.668 26.31 245.556 25.946 245.444C25.582 245.323 25.2693 245.122 25.008 244.842C24.756 244.562 24.63 244.175 24.63 243.68C24.63 243.064 24.8867 242.56 25.4 242.168C25.9133 241.776 26.6273 241.58 27.542 241.58C28.018 241.58 28.494 241.645 28.97 241.776C29.446 241.897 29.838 242.061 30.146 242.266L29.712 243.064C29.1053 242.644 28.382 242.434 27.542 242.434C26.9073 242.434 26.4267 242.546 26.1 242.77C25.7827 242.994 25.624 243.288 25.624 243.652C25.624 243.932 25.7127 244.156 25.89 244.324C26.0767 244.492 26.3053 244.618 26.576 244.702C26.8467 244.777 27.22 244.856 27.696 244.94C28.284 245.052 28.7553 245.164 29.11 245.276C29.4647 245.388 29.768 245.579 30.02 245.85C30.272 246.121 30.398 246.494 30.398 246.97C30.398 247.614 30.1273 248.127 29.586 248.51C29.054 248.883 28.312 249.07 27.36 249.07ZM36.1136 248.552C35.9269 248.72 35.6936 248.851 35.4136 248.944C35.1429 249.028 34.8583 249.07 34.5596 249.07C33.8689 249.07 33.3369 248.883 32.9636 248.51C32.5903 248.137 32.4036 247.609 32.4036 246.928V242.476H31.0876V241.636H32.4036V240.026H33.3976V241.636H35.6376V242.476H33.3976V246.872C33.3976 247.311 33.5049 247.647 33.7196 247.88C33.9436 248.104 34.2609 248.216 34.6716 248.216C34.8769 248.216 35.0729 248.183 35.2596 248.118C35.4556 248.053 35.6236 247.959 35.7636 247.838L36.1136 248.552ZM38.8751 243.078C39.1084 242.583 39.4538 242.21 39.9111 241.958C40.3778 241.706 40.9518 241.58 41.6331 241.58V242.546L41.3951 242.532C40.6204 242.532 40.0138 242.77 39.5751 243.246C39.1364 243.722 38.9171 244.389 38.9171 245.248V249H37.9231V241.636H38.8751V243.078ZM45.9952 241.58C46.9565 241.58 47.6939 241.823 48.2072 242.308C48.7205 242.784 48.9772 243.493 48.9772 244.436V249H48.0252V247.852C47.8012 248.235 47.4699 248.533 47.0312 248.748C46.6019 248.963 46.0885 249.07 45.4912 249.07C44.6699 249.07 44.0165 248.874 43.5312 248.482C43.0459 248.09 42.8032 247.572 42.8032 246.928C42.8032 246.303 43.0272 245.799 43.4752 245.416C43.9325 245.033 44.6559 244.842 45.6452 244.842H47.9832V244.394C47.9832 243.759 47.8059 243.279 47.4512 242.952C47.0965 242.616 46.5785 242.448 45.8972 242.448C45.4305 242.448 44.9825 242.527 44.5532 242.686C44.1239 242.835 43.7552 243.045 43.4472 243.316L42.9992 242.574C43.3725 242.257 43.8205 242.014 44.3432 241.846C44.8659 241.669 45.4165 241.58 45.9952 241.58ZM45.6452 248.286C46.2052 248.286 46.6859 248.16 47.0872 247.908C47.4885 247.647 47.7872 247.273 47.9832 246.788V245.584H45.6732C44.4132 245.584 43.7832 246.023 43.7832 246.9C43.7832 247.329 43.9465 247.67 44.2732 247.922C44.5999 248.165 45.0572 248.286 45.6452 248.286ZM55.555 248.552C55.3683 248.72 55.135 248.851 54.855 248.944C54.5843 249.028 54.2997 249.07 54.001 249.07C53.3103 249.07 52.7783 248.883 52.405 248.51C52.0317 248.137 51.845 247.609 51.845 246.928V242.476H50.529V241.636H51.845V240.026H52.839V241.636H55.079V242.476H52.839V246.872C52.839 247.311 52.9463 247.647 53.161 247.88C53.385 248.104 53.7023 248.216 54.113 248.216C54.3183 248.216 54.5143 248.183 54.701 248.118C54.897 248.053 55.065 247.959 55.205 247.838L55.555 248.552ZM63.5168 245.626H57.3568C57.4128 246.391 57.7068 247.012 58.2388 247.488C58.7708 247.955 59.4428 248.188 60.2548 248.188C60.7121 248.188 61.1321 248.109 61.5148 247.95C61.8974 247.782 62.2288 247.539 62.5088 247.222L63.0688 247.866C62.7421 248.258 62.3314 248.557 61.8368 248.762C61.3514 248.967 60.8148 249.07 60.2268 249.07C59.4708 249.07 58.7988 248.911 58.2108 248.594C57.6321 248.267 57.1794 247.819 56.8528 247.25C56.5261 246.681 56.3628 246.037 56.3628 245.318C56.3628 244.599 56.5168 243.955 56.8248 243.386C57.1421 242.817 57.5714 242.373 58.1128 242.056C58.6634 241.739 59.2794 241.58 59.9608 241.58C60.6421 241.58 61.2534 241.739 61.7948 242.056C62.3361 242.373 62.7608 242.817 63.0688 243.386C63.3768 243.946 63.5308 244.59 63.5308 245.318L63.5168 245.626ZM59.9608 242.434C59.2514 242.434 58.6541 242.663 58.1688 243.12C57.6928 243.568 57.4221 244.156 57.3568 244.884H62.5788C62.5134 244.156 62.2381 243.568 61.7528 243.12C61.2768 242.663 60.6794 242.434 59.9608 242.434ZM72.372 241.636V248.104C72.372 249.355 72.064 250.279 71.448 250.876C70.8413 251.483 69.922 251.786 68.69 251.786C68.0086 251.786 67.36 251.683 66.744 251.478C66.1373 251.282 65.6426 251.007 65.26 250.652L65.764 249.896C66.1186 250.213 66.548 250.461 67.052 250.638C67.5653 250.815 68.102 250.904 68.662 250.904C69.5953 250.904 70.2813 250.685 70.72 250.246C71.1586 249.817 71.378 249.145 71.378 248.23V247.292C71.07 247.759 70.664 248.113 70.16 248.356C69.6653 248.599 69.1146 248.72 68.508 248.72C67.8173 248.72 67.1873 248.571 66.618 248.272C66.058 247.964 65.6146 247.539 65.288 246.998C64.9706 246.447 64.812 245.827 64.812 245.136C64.812 244.445 64.9706 243.829 65.288 243.288C65.6146 242.747 66.058 242.327 66.618 242.028C67.178 241.729 67.808 241.58 68.508 241.58C69.1333 241.58 69.698 241.706 70.202 241.958C70.706 242.21 71.112 242.574 71.42 243.05V241.636H72.372ZM68.606 247.838C69.138 247.838 69.6186 247.726 70.048 247.502C70.4773 247.269 70.8086 246.947 71.042 246.536C71.2846 246.125 71.406 245.659 71.406 245.136C71.406 244.613 71.2846 244.151 71.042 243.75C70.8086 243.339 70.4773 243.022 70.048 242.798C69.628 242.565 69.1473 242.448 68.606 242.448C68.074 242.448 67.5933 242.56 67.164 242.784C66.744 243.008 66.4126 243.325 66.17 243.736C65.9366 244.147 65.82 244.613 65.82 245.136C65.82 245.659 65.9366 246.125 66.17 246.536C66.4126 246.947 66.744 247.269 67.164 247.502C67.5933 247.726 68.074 247.838 68.606 247.838ZM81.3396 241.636L77.6576 249.882C77.359 250.573 77.0136 251.063 76.6216 251.352C76.2296 251.641 75.7583 251.786 75.2076 251.786C74.853 251.786 74.5216 251.73 74.2136 251.618C73.9056 251.506 73.6396 251.338 73.4156 251.114L73.8776 250.372C74.251 250.745 74.699 250.932 75.2216 250.932C75.5576 250.932 75.8423 250.839 76.0756 250.652C76.3183 250.465 76.5423 250.148 76.7476 249.7L77.0696 248.986L73.7796 241.636H74.8156L77.5876 247.894L80.3596 241.636H81.3396ZM92.8156 245.626H86.6556C86.7116 246.391 87.0056 247.012 87.5376 247.488C88.0696 247.955 88.7416 248.188 89.5536 248.188C90.0109 248.188 90.4309 248.109 90.8136 247.95C91.1962 247.782 91.5276 247.539 91.8076 247.222L92.3676 247.866C92.0409 248.258 91.6302 248.557 91.1356 248.762C90.6502 248.967 90.1136 249.07 89.5256 249.07C88.7696 249.07 88.0976 248.911 87.5096 248.594C86.9309 248.267 86.4782 247.819 86.1516 247.25C85.8249 246.681 85.6616 246.037 85.6616 245.318C85.6616 244.599 85.8156 243.955 86.1236 243.386C86.4409 242.817 86.8702 242.373 87.4116 242.056C87.9622 241.739 88.5782 241.58 89.2596 241.58C89.9409 241.58 90.5522 241.739 91.0936 242.056C91.6349 242.373 92.0596 242.817 92.3676 243.386C92.6756 243.946 92.8296 244.59 92.8296 245.318L92.8156 245.626ZM89.2596 242.434C88.5502 242.434 87.9529 242.663 87.4676 243.12C86.9916 243.568 86.7209 244.156 86.6556 244.884H91.8776C91.8122 244.156 91.5369 243.568 91.0516 243.12C90.5756 242.663 89.9782 242.434 89.2596 242.434ZM99.3377 249L96.9997 245.92L94.6477 249H93.5277L96.4397 245.22L93.6677 241.636H94.7877L96.9997 244.52L99.2117 241.636H100.304L97.5317 245.22L100.472 249H99.3377ZM108.278 245.626H102.118C102.174 246.391 102.468 247.012 103 247.488C103.532 247.955 104.204 248.188 105.016 248.188C105.474 248.188 105.894 248.109 106.276 247.95C106.659 247.782 106.99 247.539 107.27 247.222L107.83 247.866C107.504 248.258 107.093 248.557 106.598 248.762C106.113 248.967 105.576 249.07 104.988 249.07C104.232 249.07 103.56 248.911 102.972 248.594C102.394 248.267 101.941 247.819 101.614 247.25C101.288 246.681 101.124 246.037 101.124 245.318C101.124 244.599 101.278 243.955 101.586 243.386C101.904 242.817 102.333 242.373 102.874 242.056C103.425 241.739 104.041 241.58 104.722 241.58C105.404 241.58 106.015 241.739 106.556 242.056C107.098 242.373 107.522 242.817 107.83 243.386C108.138 243.946 108.292 244.59 108.292 245.318L108.278 245.626ZM104.722 242.434C104.013 242.434 103.416 242.663 102.93 243.12C102.454 243.568 102.184 244.156 102.118 244.884H107.34C107.275 244.156 107 243.568 106.514 243.12C106.038 242.663 105.441 242.434 104.722 242.434ZM113.368 249.07C112.64 249.07 111.986 248.911 111.408 248.594C110.838 248.277 110.39 247.833 110.064 247.264C109.737 246.685 109.574 246.037 109.574 245.318C109.574 244.599 109.737 243.955 110.064 243.386C110.39 242.817 110.838 242.373 111.408 242.056C111.986 241.739 112.64 241.58 113.368 241.58C114.002 241.58 114.567 241.706 115.062 241.958C115.566 242.201 115.962 242.56 116.252 243.036L115.51 243.54C115.267 243.176 114.959 242.905 114.586 242.728C114.212 242.541 113.806 242.448 113.368 242.448C112.836 242.448 112.355 242.569 111.926 242.812C111.506 243.045 111.174 243.381 110.932 243.82C110.698 244.259 110.582 244.758 110.582 245.318C110.582 245.887 110.698 246.391 110.932 246.83C111.174 247.259 111.506 247.595 111.926 247.838C112.355 248.071 112.836 248.188 113.368 248.188C113.806 248.188 114.212 248.099 114.586 247.922C114.959 247.745 115.267 247.474 115.51 247.11L116.252 247.614C115.962 248.09 115.566 248.454 115.062 248.706C114.558 248.949 113.993 249.07 113.368 249.07ZM124.84 241.636V249H123.888V247.656C123.627 248.104 123.268 248.454 122.81 248.706C122.353 248.949 121.83 249.07 121.242 249.07C120.281 249.07 119.52 248.804 118.96 248.272C118.41 247.731 118.134 246.942 118.134 245.906V241.636H119.128V245.808C119.128 246.583 119.32 247.171 119.702 247.572C120.085 247.973 120.631 248.174 121.34 248.174C122.115 248.174 122.726 247.941 123.174 247.474C123.622 246.998 123.846 246.34 123.846 245.5V241.636H124.84ZM131.502 248.552C131.316 248.72 131.082 248.851 130.802 248.944C130.532 249.028 130.247 249.07 129.948 249.07C129.258 249.07 128.726 248.883 128.352 248.51C127.979 248.137 127.792 247.609 127.792 246.928V242.476H126.476V241.636H127.792V240.026H128.786V241.636H131.026V242.476H128.786V246.872C128.786 247.311 128.894 247.647 129.108 247.88C129.332 248.104 129.65 248.216 130.06 248.216C130.266 248.216 130.462 248.183 130.648 248.118C130.844 248.053 131.012 247.959 131.152 247.838L131.502 248.552ZM133.312 241.636H134.306V249H133.312V241.636ZM133.816 240.026C133.61 240.026 133.438 239.956 133.298 239.816C133.158 239.676 133.088 239.508 133.088 239.312C133.088 239.125 133.158 238.962 133.298 238.822C133.438 238.682 133.61 238.612 133.816 238.612C134.021 238.612 134.194 238.682 134.334 238.822C134.474 238.953 134.544 239.111 134.544 239.298C134.544 239.503 134.474 239.676 134.334 239.816C134.194 239.956 134.021 240.026 133.816 240.026ZM140.082 249.07C139.372 249.07 138.733 248.911 138.164 248.594C137.594 248.267 137.146 247.819 136.82 247.25C136.493 246.681 136.33 246.037 136.33 245.318C136.33 244.599 136.493 243.955 136.82 243.386C137.146 242.817 137.594 242.373 138.164 242.056C138.733 241.739 139.372 241.58 140.082 241.58C140.791 241.58 141.43 241.739 142 242.056C142.569 242.373 143.012 242.817 143.33 243.386C143.656 243.955 143.82 244.599 143.82 245.318C143.82 246.037 143.656 246.681 143.33 247.25C143.012 247.819 142.569 248.267 142 248.594C141.43 248.911 140.791 249.07 140.082 249.07ZM140.082 248.188C140.604 248.188 141.071 248.071 141.482 247.838C141.902 247.595 142.228 247.255 142.462 246.816C142.695 246.377 142.812 245.878 142.812 245.318C142.812 244.758 142.695 244.259 142.462 243.82C142.228 243.381 141.902 243.045 141.482 242.812C141.071 242.569 140.604 242.448 140.082 242.448C139.559 242.448 139.088 242.569 138.668 242.812C138.257 243.045 137.93 243.381 137.688 243.82C137.454 244.259 137.338 244.758 137.338 245.318C137.338 245.878 137.454 246.377 137.688 246.816C137.93 247.255 138.257 247.595 138.668 247.838C139.088 248.071 139.559 248.188 140.082 248.188ZM149.601 241.58C150.525 241.58 151.258 241.851 151.799 242.392C152.35 242.924 152.625 243.703 152.625 244.73V249H151.631V244.828C151.631 244.063 151.44 243.479 151.057 243.078C150.674 242.677 150.128 242.476 149.419 242.476C148.626 242.476 147.996 242.714 147.529 243.19C147.072 243.657 146.843 244.305 146.843 245.136V249H145.849V241.636H146.801V242.994C147.072 242.546 147.445 242.201 147.921 241.958C148.406 241.706 148.966 241.58 149.601 241.58ZM27.962 258.58C28.9233 258.58 29.6607 258.823 30.174 259.308C30.6873 259.784 30.944 260.493 30.944 261.436V266H29.992V264.852C29.768 265.235 29.4367 265.533 28.998 265.748C28.5687 265.963 28.0553 266.07 27.458 266.07C26.6367 266.07 25.9833 265.874 25.498 265.482C25.0127 265.09 24.77 264.572 24.77 263.928C24.77 263.303 24.994 262.799 25.442 262.416C25.8993 262.033 26.6227 261.842 27.612 261.842H29.95V261.394C29.95 260.759 29.7727 260.279 29.418 259.952C29.0633 259.616 28.5453 259.448 27.864 259.448C27.3973 259.448 26.9493 259.527 26.52 259.686C26.0907 259.835 25.722 260.045 25.414 260.316L24.966 259.574C25.3393 259.257 25.7873 259.014 26.31 258.846C26.8327 258.669 27.3833 258.58 27.962 258.58ZM27.612 265.286C28.172 265.286 28.6527 265.16 29.054 264.908C29.4553 264.647 29.754 264.273 29.95 263.788V262.584H27.64C26.38 262.584 25.75 263.023 25.75 263.9C25.75 264.329 25.9133 264.67 26.24 264.922C26.5667 265.165 27.024 265.286 27.612 265.286ZM36.7232 266.07C35.9952 266.07 35.3418 265.911 34.7632 265.594C34.1938 265.277 33.7458 264.833 33.4192 264.264C33.0925 263.685 32.9292 263.037 32.9292 262.318C32.9292 261.599 33.0925 260.955 33.4192 260.386C33.7458 259.817 34.1938 259.373 34.7632 259.056C35.3418 258.739 35.9952 258.58 36.7232 258.58C37.3578 258.58 37.9225 258.706 38.4172 258.958C38.9212 259.201 39.3178 259.56 39.6072 260.036L38.8652 260.54C38.6225 260.176 38.3145 259.905 37.9412 259.728C37.5678 259.541 37.1618 259.448 36.7232 259.448C36.1912 259.448 35.7105 259.569 35.2812 259.812C34.8612 260.045 34.5298 260.381 34.2872 260.82C34.0538 261.259 33.9372 261.758 33.9372 262.318C33.9372 262.887 34.0538 263.391 34.2872 263.83C34.5298 264.259 34.8612 264.595 35.2812 264.838C35.7105 265.071 36.1912 265.188 36.7232 265.188C37.1618 265.188 37.5678 265.099 37.9412 264.922C38.3145 264.745 38.6225 264.474 38.8652 264.11L39.6072 264.614C39.3178 265.09 38.9212 265.454 38.4172 265.706C37.9132 265.949 37.3485 266.07 36.7232 266.07ZM44.4888 266.07C43.7608 266.07 43.1074 265.911 42.5288 265.594C41.9594 265.277 41.5114 264.833 41.1848 264.264C40.8581 263.685 40.6948 263.037 40.6948 262.318C40.6948 261.599 40.8581 260.955 41.1848 260.386C41.5114 259.817 41.9594 259.373 42.5288 259.056C43.1074 258.739 43.7608 258.58 44.4888 258.58C45.1234 258.58 45.6881 258.706 46.1828 258.958C46.6868 259.201 47.0834 259.56 47.3728 260.036L46.6308 260.54C46.3881 260.176 46.0801 259.905 45.7068 259.728C45.3334 259.541 44.9274 259.448 44.4888 259.448C43.9568 259.448 43.4761 259.569 43.0468 259.812C42.6268 260.045 42.2954 260.381 42.0528 260.82C41.8194 261.259 41.7028 261.758 41.7028 262.318C41.7028 262.887 41.8194 263.391 42.0528 263.83C42.2954 264.259 42.6268 264.595 43.0468 264.838C43.4761 265.071 43.9568 265.188 44.4888 265.188C44.9274 265.188 45.3334 265.099 45.7068 264.922C46.0801 264.745 46.3881 264.474 46.6308 264.11L47.3728 264.614C47.0834 265.09 46.6868 265.454 46.1828 265.706C45.6788 265.949 45.1141 266.07 44.4888 266.07ZM52.2124 266.07C51.5031 266.07 50.8637 265.911 50.2944 265.594C49.7251 265.267 49.2771 264.819 48.9504 264.25C48.6237 263.681 48.4604 263.037 48.4604 262.318C48.4604 261.599 48.6237 260.955 48.9504 260.386C49.2771 259.817 49.7251 259.373 50.2944 259.056C50.8637 258.739 51.5031 258.58 52.2124 258.58C52.9217 258.58 53.5611 258.739 54.1304 259.056C54.6997 259.373 55.1431 259.817 55.4604 260.386C55.7871 260.955 55.9504 261.599 55.9504 262.318C55.9504 263.037 55.7871 263.681 55.4604 264.25C55.1431 264.819 54.6997 265.267 54.1304 265.594C53.5611 265.911 52.9217 266.07 52.2124 266.07ZM52.2124 265.188C52.7351 265.188 53.2017 265.071 53.6124 264.838C54.0324 264.595 54.3591 264.255 54.5924 263.816C54.8257 263.377 54.9424 262.878 54.9424 262.318C54.9424 261.758 54.8257 261.259 54.5924 260.82C54.3591 260.381 54.0324 260.045 53.6124 259.812C53.2017 259.569 52.7351 259.448 52.2124 259.448C51.6897 259.448 51.2184 259.569 50.7984 259.812C50.3877 260.045 50.0611 260.381 49.8184 260.82C49.5851 261.259 49.4684 261.758 49.4684 262.318C49.4684 262.878 49.5851 263.377 49.8184 263.816C50.0611 264.255 50.3877 264.595 50.7984 264.838C51.2184 265.071 51.6897 265.188 52.2124 265.188ZM58.9318 260.078C59.1651 259.583 59.5104 259.21 59.9678 258.958C60.4344 258.706 61.0084 258.58 61.6898 258.58V259.546L61.4518 259.532C60.6771 259.532 60.0704 259.77 59.6318 260.246C59.1931 260.722 58.9738 261.389 58.9738 262.248V266H57.9798V258.636H58.9318V260.078ZM70.1412 255.612V266H69.1892V264.544C68.8905 265.039 68.4938 265.417 67.9992 265.678C67.5138 265.939 66.9632 266.07 66.3472 266.07C65.6565 266.07 65.0312 265.911 64.4712 265.594C63.9112 265.277 63.4725 264.833 63.1552 264.264C62.8378 263.695 62.6792 263.046 62.6792 262.318C62.6792 261.59 62.8378 260.941 63.1552 260.372C63.4725 259.803 63.9112 259.364 64.4712 259.056C65.0312 258.739 65.6565 258.58 66.3472 258.58C66.9445 258.58 67.4812 258.706 67.9572 258.958C68.4425 259.201 68.8392 259.56 69.1472 260.036V255.612H70.1412ZM66.4312 265.188C66.9445 265.188 67.4065 265.071 67.8172 264.838C68.2372 264.595 68.5638 264.255 68.7972 263.816C69.0398 263.377 69.1612 262.878 69.1612 262.318C69.1612 261.758 69.0398 261.259 68.7972 260.82C68.5638 260.381 68.2372 260.045 67.8172 259.812C67.4065 259.569 66.9445 259.448 66.4312 259.448C65.9085 259.448 65.4372 259.569 65.0172 259.812C64.6065 260.045 64.2798 260.381 64.0372 260.82C63.8038 261.259 63.6872 261.758 63.6872 262.318C63.6872 262.878 63.8038 263.377 64.0372 263.816C64.2798 264.255 64.6065 264.595 65.0172 264.838C65.4372 265.071 65.9085 265.188 66.4312 265.188ZM72.9094 258.636H73.9034V266H72.9094V258.636ZM73.4134 257.026C73.2081 257.026 73.0354 256.956 72.8954 256.816C72.7554 256.676 72.6854 256.508 72.6854 256.312C72.6854 256.125 72.7554 255.962 72.8954 255.822C73.0354 255.682 73.2081 255.612 73.4134 255.612C73.6188 255.612 73.7914 255.682 73.9314 255.822C74.0714 255.953 74.1414 256.111 74.1414 256.298C74.1414 256.503 74.0714 256.676 73.9314 256.816C73.7914 256.956 73.6188 257.026 73.4134 257.026ZM80.4212 258.58C81.3452 258.58 82.0779 258.851 82.6192 259.392C83.1699 259.924 83.4452 260.703 83.4452 261.73V266H82.4512V261.828C82.4512 261.063 82.2599 260.479 81.8772 260.078C81.4945 259.677 80.9485 259.476 80.2392 259.476C79.4459 259.476 78.8159 259.714 78.3492 260.19C77.8919 260.657 77.6632 261.305 77.6632 262.136V266H76.6692V258.636H77.6212V259.994C77.8919 259.546 78.2652 259.201 78.7412 258.958C79.2265 258.706 79.7865 258.58 80.4212 258.58ZM92.9892 258.636V265.104C92.9892 266.355 92.6812 267.279 92.0652 267.876C91.4585 268.483 90.5392 268.786 89.3072 268.786C88.6258 268.786 87.9772 268.683 87.3612 268.478C86.7545 268.282 86.2598 268.007 85.8772 267.652L86.3812 266.896C86.7358 267.213 87.1652 267.461 87.6692 267.638C88.1825 267.815 88.7192 267.904 89.2792 267.904C90.2125 267.904 90.8985 267.685 91.3372 267.246C91.7758 266.817 91.9952 266.145 91.9952 265.23V264.292C91.6872 264.759 91.2812 265.113 90.7772 265.356C90.2825 265.599 89.7318 265.72 89.1252 265.72C88.4345 265.72 87.8045 265.571 87.2352 265.272C86.6752 264.964 86.2318 264.539 85.9052 263.998C85.5878 263.447 85.4292 262.827 85.4292 262.136C85.4292 261.445 85.5878 260.829 85.9052 260.288C86.2318 259.747 86.6752 259.327 87.2352 259.028C87.7952 258.729 88.4252 258.58 89.1252 258.58C89.7505 258.58 90.3152 258.706 90.8192 258.958C91.3232 259.21 91.7292 259.574 92.0372 260.05V258.636H92.9892ZM89.2232 264.838C89.7552 264.838 90.2358 264.726 90.6652 264.502C91.0945 264.269 91.4258 263.947 91.6592 263.536C91.9018 263.125 92.0232 262.659 92.0232 262.136C92.0232 261.613 91.9018 261.151 91.6592 260.75C91.4258 260.339 91.0945 260.022 90.6652 259.798C90.2452 259.565 89.7645 259.448 89.2232 259.448C88.6912 259.448 88.2105 259.56 87.7812 259.784C87.3612 260.008 87.0298 260.325 86.7872 260.736C86.5538 261.147 86.4372 261.613 86.4372 262.136C86.4372 262.659 86.5538 263.125 86.7872 263.536C87.0298 263.947 87.3612 264.269 87.7812 264.502C88.2105 264.726 88.6912 264.838 89.2232 264.838ZM103.311 265.552C103.124 265.72 102.891 265.851 102.611 265.944C102.34 266.028 102.056 266.07 101.757 266.07C101.066 266.07 100.534 265.883 100.161 265.51C99.7875 265.137 99.6009 264.609 99.6009 263.928V259.476H98.2849V258.636H99.6009V257.026H100.595V258.636H102.835V259.476H100.595V263.872C100.595 264.311 100.702 264.647 100.917 264.88C101.141 265.104 101.458 265.216 101.869 265.216C102.074 265.216 102.27 265.183 102.457 265.118C102.653 265.053 102.821 264.959 102.961 264.838L103.311 265.552ZM107.871 266.07C107.161 266.07 106.522 265.911 105.953 265.594C105.383 265.267 104.935 264.819 104.609 264.25C104.282 263.681 104.119 263.037 104.119 262.318C104.119 261.599 104.282 260.955 104.609 260.386C104.935 259.817 105.383 259.373 105.953 259.056C106.522 258.739 107.161 258.58 107.871 258.58C108.58 258.58 109.219 258.739 109.789 259.056C110.358 259.373 110.801 259.817 111.119 260.386C111.445 260.955 111.609 261.599 111.609 262.318C111.609 263.037 111.445 263.681 111.119 264.25C110.801 264.819 110.358 265.267 109.789 265.594C109.219 265.911 108.58 266.07 107.871 266.07ZM107.871 265.188C108.393 265.188 108.86 265.071 109.271 264.838C109.691 264.595 110.017 264.255 110.251 263.816C110.484 263.377 110.601 262.878 110.601 262.318C110.601 261.758 110.484 261.259 110.251 260.82C110.017 260.381 109.691 260.045 109.271 259.812C108.86 259.569 108.393 259.448 107.871 259.448C107.348 259.448 106.877 259.569 106.457 259.812C106.046 260.045 105.719 260.381 105.477 260.82C105.243 261.259 105.127 261.758 105.127 262.318C105.127 262.878 105.243 263.377 105.477 263.816C105.719 264.255 106.046 264.595 106.457 264.838C106.877 265.071 107.348 265.188 107.871 265.188ZM121.096 258.58C121.787 258.58 122.412 258.739 122.972 259.056C123.532 259.364 123.971 259.803 124.288 260.372C124.605 260.941 124.764 261.59 124.764 262.318C124.764 263.055 124.605 263.709 124.288 264.278C123.971 264.847 123.532 265.291 122.972 265.608C122.421 265.916 121.796 266.07 121.096 266.07C120.499 266.07 119.957 265.949 119.472 265.706C118.996 265.454 118.604 265.09 118.296 264.614V268.716H117.302V258.636H118.254V260.092C118.553 259.607 118.945 259.233 119.43 258.972C119.925 258.711 120.48 258.58 121.096 258.58ZM121.026 265.188C121.539 265.188 122.006 265.071 122.426 264.838C122.846 264.595 123.173 264.255 123.406 263.816C123.649 263.377 123.77 262.878 123.77 262.318C123.77 261.758 123.649 261.263 123.406 260.834C123.173 260.395 122.846 260.055 122.426 259.812C122.006 259.569 121.539 259.448 121.026 259.448C120.503 259.448 120.032 259.569 119.612 259.812C119.201 260.055 118.875 260.395 118.632 260.834C118.399 261.263 118.282 261.758 118.282 262.318C118.282 262.878 118.399 263.377 118.632 263.816C118.875 264.255 119.201 264.595 119.612 264.838C120.032 265.071 120.503 265.188 121.026 265.188ZM129.325 258.58C130.287 258.58 131.024 258.823 131.537 259.308C132.051 259.784 132.307 260.493 132.307 261.436V266H131.355V264.852C131.131 265.235 130.8 265.533 130.361 265.748C129.932 265.963 129.419 266.07 128.821 266.07C128 266.07 127.347 265.874 126.861 265.482C126.376 265.09 126.133 264.572 126.133 263.928C126.133 263.303 126.357 262.799 126.805 262.416C127.263 262.033 127.986 261.842 128.975 261.842H131.313V261.394C131.313 260.759 131.136 260.279 130.781 259.952C130.427 259.616 129.909 259.448 129.227 259.448C128.761 259.448 128.313 259.527 127.883 259.686C127.454 259.835 127.085 260.045 126.777 260.316L126.329 259.574C126.703 259.257 127.151 259.014 127.673 258.846C128.196 258.669 128.747 258.58 129.325 258.58ZM128.975 265.286C129.535 265.286 130.016 265.16 130.417 264.908C130.819 264.647 131.117 264.273 131.313 263.788V262.584H129.003C127.743 262.584 127.113 263.023 127.113 263.9C127.113 264.329 127.277 264.67 127.603 264.922C127.93 265.165 128.387 265.286 128.975 265.286ZM138.885 265.552C138.698 265.72 138.465 265.851 138.185 265.944C137.914 266.028 137.63 266.07 137.331 266.07C136.64 266.07 136.108 265.883 135.735 265.51C135.362 265.137 135.175 264.609 135.175 263.928V259.476H133.859V258.636H135.175V257.026H136.169V258.636H138.409V259.476H136.169V263.872C136.169 264.311 136.276 264.647 136.491 264.88C136.715 265.104 137.032 265.216 137.443 265.216C137.648 265.216 137.844 265.183 138.031 265.118C138.227 265.053 138.395 264.959 138.535 264.838L138.885 265.552ZM144.381 265.552C144.195 265.72 143.961 265.851 143.681 265.944C143.411 266.028 143.126 266.07 142.827 266.07C142.137 266.07 141.605 265.883 141.231 265.51C140.858 265.137 140.671 264.609 140.671 263.928V259.476H139.355V258.636H140.671V257.026H141.665V258.636H143.905V259.476H141.665V263.872C141.665 264.311 141.773 264.647 141.987 264.88C142.211 265.104 142.529 265.216 142.939 265.216C143.145 265.216 143.341 265.183 143.527 265.118C143.723 265.053 143.891 264.959 144.031 264.838L144.381 265.552ZM152.343 262.626H146.183C146.239 263.391 146.533 264.012 147.065 264.488C147.597 264.955 148.269 265.188 149.081 265.188C149.538 265.188 149.958 265.109 150.341 264.95C150.724 264.782 151.055 264.539 151.335 264.222L151.895 264.866C151.568 265.258 151.158 265.557 150.663 265.762C150.178 265.967 149.641 266.07 149.053 266.07C148.297 266.07 147.625 265.911 147.037 265.594C146.458 265.267 146.006 264.819 145.679 264.25C145.352 263.681 145.189 263.037 145.189 262.318C145.189 261.599 145.343 260.955 145.651 260.386C145.968 259.817 146.398 259.373 146.939 259.056C147.49 258.739 148.106 258.58 148.787 258.58C149.468 258.58 150.08 258.739 150.621 259.056C151.162 259.373 151.587 259.817 151.895 260.386C152.203 260.946 152.357 261.59 152.357 262.318L152.343 262.626ZM148.787 259.434C148.078 259.434 147.48 259.663 146.995 260.12C146.519 260.568 146.248 261.156 146.183 261.884H151.405C151.34 261.156 151.064 260.568 150.579 260.12C150.103 259.663 149.506 259.434 148.787 259.434ZM155.332 260.078C155.565 259.583 155.911 259.21 156.368 258.958C156.835 258.706 157.409 258.58 158.09 258.58V259.546L157.852 259.532C157.077 259.532 156.471 259.77 156.032 260.246C155.593 260.722 155.374 261.389 155.374 262.248V266H154.38V258.636H155.332V260.078ZM163.642 258.58C164.566 258.58 165.299 258.851 165.84 259.392C166.391 259.924 166.666 260.703 166.666 261.73V266H165.672V261.828C165.672 261.063 165.481 260.479 165.098 260.078C164.715 259.677 164.169 259.476 163.46 259.476C162.667 259.476 162.037 259.714 161.57 260.19C161.113 260.657 160.884 261.305 160.884 262.136V266H159.89V258.636H160.842V259.994C161.113 259.546 161.486 259.201 161.962 258.958C162.447 258.706 163.007 258.58 163.642 258.58ZM171.339 266.07C170.741 266.07 170.167 265.986 169.617 265.818C169.075 265.641 168.651 265.421 168.343 265.16L168.791 264.376C169.099 264.619 169.486 264.819 169.953 264.978C170.419 265.127 170.905 265.202 171.409 265.202C172.081 265.202 172.575 265.099 172.893 264.894C173.219 264.679 173.383 264.381 173.383 263.998C173.383 263.727 173.294 263.517 173.117 263.368C172.939 263.209 172.715 263.093 172.445 263.018C172.174 262.934 171.815 262.855 171.367 262.78C170.769 262.668 170.289 262.556 169.925 262.444C169.561 262.323 169.248 262.122 168.987 261.842C168.735 261.562 168.609 261.175 168.609 260.68C168.609 260.064 168.865 259.56 169.379 259.168C169.892 258.776 170.606 258.58 171.521 258.58C171.997 258.58 172.473 258.645 172.949 258.776C173.425 258.897 173.817 259.061 174.125 259.266L173.691 260.064C173.084 259.644 172.361 259.434 171.521 259.434C170.886 259.434 170.405 259.546 170.079 259.77C169.761 259.994 169.603 260.288 169.603 260.652C169.603 260.932 169.691 261.156 169.869 261.324C170.055 261.492 170.284 261.618 170.555 261.702C170.825 261.777 171.199 261.856 171.675 261.94C172.263 262.052 172.734 262.164 173.089 262.276C173.443 262.388 173.747 262.579 173.999 262.85C174.251 263.121 174.377 263.494 174.377 263.97C174.377 264.614 174.106 265.127 173.565 265.51C173.033 265.883 172.291 266.07 171.339 266.07Z" fill="#2C2F32"/>
<rect x="0.5" y="211.5" width="249" height="81" stroke="#2C2F32"/>
<rect x="0.5" y="325.5" width="249" height="81" fill="white"/>
<path d="M29.138 355.58C30.062 355.58 30.7947 355.851 31.336 356.392C31.8867 356.924 32.162 357.703 32.162 358.73V363H31.168V358.828C31.168 358.063 30.9767 357.479 30.594 357.078C30.2113 356.677 29.6653 356.476 28.956 356.476C28.1627 356.476 27.5327 356.714 27.066 357.19C26.6087 357.657 26.38 358.305 26.38 359.136V363H25.386V355.636H26.338V356.994C26.6087 356.546 26.982 356.201 27.458 355.958C27.9433 355.706 28.5033 355.58 29.138 355.58ZM41.3 359.626H35.14C35.196 360.391 35.49 361.012 36.022 361.488C36.554 361.955 37.226 362.188 38.038 362.188C38.4953 362.188 38.9153 362.109 39.298 361.95C39.6806 361.782 40.012 361.539 40.292 361.222L40.852 361.866C40.5253 362.258 40.1146 362.557 39.62 362.762C39.1346 362.967 38.598 363.07 38.01 363.07C37.254 363.07 36.582 362.911 35.994 362.594C35.4153 362.267 34.9626 361.819 34.636 361.25C34.3093 360.681 34.146 360.037 34.146 359.318C34.146 358.599 34.3 357.955 34.608 357.386C34.9253 356.817 35.3546 356.373 35.896 356.056C36.4466 355.739 37.0626 355.58 37.744 355.58C38.4253 355.58 39.0366 355.739 39.578 356.056C40.1193 356.373 40.544 356.817 40.852 357.386C41.16 357.946 41.314 358.59 41.314 359.318L41.3 359.626ZM37.744 356.434C37.0346 356.434 36.4373 356.663 35.952 357.12C35.476 357.568 35.2053 358.156 35.14 358.884H40.362C40.2966 358.156 40.0213 357.568 39.536 357.12C39.06 356.663 38.4626 356.434 37.744 356.434ZM54.0085 355.636L51.2225 363H50.2845L47.9605 356.966L45.6365 363H44.6985L41.9265 355.636H42.8785L45.1885 361.894L47.5545 355.636H48.4085L50.7605 361.894L53.0985 355.636H54.0085ZM65.8892 352.612V363H64.9372V361.544C64.6385 362.039 64.2419 362.417 63.7472 362.678C63.2619 362.939 62.7112 363.07 62.0952 363.07C61.4045 363.07 60.7792 362.911 60.2192 362.594C59.6592 362.277 59.2205 361.833 58.9032 361.264C58.5859 360.695 58.4272 360.046 58.4272 359.318C58.4272 358.59 58.5859 357.941 58.9032 357.372C59.2205 356.803 59.6592 356.364 60.2192 356.056C60.7792 355.739 61.4045 355.58 62.0952 355.58C62.6925 355.58 63.2292 355.706 63.7052 355.958C64.1905 356.201 64.5872 356.56 64.8952 357.036V352.612H65.8892ZM62.1792 362.188C62.6925 362.188 63.1545 362.071 63.5652 361.838C63.9852 361.595 64.3119 361.255 64.5452 360.816C64.7879 360.377 64.9092 359.878 64.9092 359.318C64.9092 358.758 64.7879 358.259 64.5452 357.82C64.3119 357.381 63.9852 357.045 63.5652 356.812C63.1545 356.569 62.6925 356.448 62.1792 356.448C61.6565 356.448 61.1852 356.569 60.7652 356.812C60.3545 357.045 60.0279 357.381 59.7852 357.82C59.5519 358.259 59.4352 358.758 59.4352 359.318C59.4352 359.878 59.5519 360.377 59.7852 360.816C60.0279 361.255 60.3545 361.595 60.7652 361.838C61.1852 362.071 61.6565 362.188 62.1792 362.188ZM71.2335 355.58C72.1948 355.58 72.9322 355.823 73.4455 356.308C73.9588 356.784 74.2155 357.493 74.2155 358.436V363H73.2635V361.852C73.0395 362.235 72.7082 362.533 72.2695 362.748C71.8402 362.963 71.3268 363.07 70.7295 363.07C69.9082 363.07 69.2548 362.874 68.7695 362.482C68.2842 362.09 68.0415 361.572 68.0415 360.928C68.0415 360.303 68.2655 359.799 68.7135 359.416C69.1708 359.033 69.8942 358.842 70.8835 358.842H73.2215V358.394C73.2215 357.759 73.0442 357.279 72.6895 356.952C72.3348 356.616 71.8168 356.448 71.1355 356.448C70.6688 356.448 70.2208 356.527 69.7915 356.686C69.3622 356.835 68.9935 357.045 68.6855 357.316L68.2375 356.574C68.6108 356.257 69.0588 356.014 69.5815 355.846C70.1042 355.669 70.6548 355.58 71.2335 355.58ZM70.8835 362.286C71.4435 362.286 71.9242 362.16 72.3255 361.908C72.7268 361.647 73.0255 361.273 73.2215 360.788V359.584H70.9115C69.6515 359.584 69.0215 360.023 69.0215 360.9C69.0215 361.329 69.1848 361.67 69.5115 361.922C69.8382 362.165 70.2955 362.286 70.8835 362.286ZM80.7933 362.552C80.6066 362.72 80.3733 362.851 80.0933 362.944C79.8226 363.028 79.538 363.07 79.2393 363.07C78.5486 363.07 78.0166 362.883 77.6433 362.51C77.27 362.137 77.0833 361.609 77.0833 360.928V356.476H75.7673V355.636H77.0833V354.026H78.0773V355.636H80.3173V356.476H78.0773V360.872C78.0773 361.311 78.1846 361.647 78.3993 361.88C78.6233 362.104 78.9406 362.216 79.3513 362.216C79.5566 362.216 79.7526 362.183 79.9393 362.118C80.1353 362.053 80.3033 361.959 80.4433 361.838L80.7933 362.552ZM85.1788 355.58C86.1401 355.58 86.8775 355.823 87.3908 356.308C87.9041 356.784 88.1608 357.493 88.1608 358.436V363H87.2088V361.852C86.9848 362.235 86.6535 362.533 86.2148 362.748C85.7855 362.963 85.2721 363.07 84.6748 363.07C83.8535 363.07 83.2001 362.874 82.7148 362.482C82.2295 362.09 81.9868 361.572 81.9868 360.928C81.9868 360.303 82.2108 359.799 82.6588 359.416C83.1161 359.033 83.8395 358.842 84.8288 358.842H87.1668V358.394C87.1668 357.759 86.9895 357.279 86.6348 356.952C86.2801 356.616 85.7621 356.448 85.0808 356.448C84.6141 356.448 84.1661 356.527 83.7368 356.686C83.3075 356.835 82.9388 357.045 82.6308 357.316L82.1828 356.574C82.5561 356.257 83.0041 356.014 83.5268 355.846C84.0495 355.669 84.6001 355.58 85.1788 355.58ZM84.8288 362.286C85.3888 362.286 85.8695 362.16 86.2708 361.908C86.6721 361.647 86.9708 361.273 87.1668 360.788V359.584H84.8568C83.5968 359.584 82.9668 360.023 82.9668 360.9C82.9668 361.329 83.1301 361.67 83.4568 361.922C83.7835 362.165 84.2408 362.286 84.8288 362.286ZM97.5767 363.07C96.8487 363.07 96.1953 362.911 95.6167 362.594C95.0473 362.277 94.5993 361.833 94.2727 361.264C93.946 360.685 93.7827 360.037 93.7827 359.318C93.7827 358.599 93.946 357.955 94.2727 357.386C94.5993 356.817 95.0473 356.373 95.6167 356.056C96.1953 355.739 96.8487 355.58 97.5767 355.58C98.2113 355.58 98.776 355.706 99.2707 355.958C99.7747 356.201 100.171 356.56 100.461 357.036L99.7187 357.54C99.476 357.176 99.168 356.905 98.7947 356.728C98.4213 356.541 98.0153 356.448 97.5767 356.448C97.0447 356.448 96.564 356.569 96.1347 356.812C95.7147 357.045 95.3833 357.381 95.1407 357.82C94.9073 358.259 94.7907 358.758 94.7907 359.318C94.7907 359.887 94.9073 360.391 95.1407 360.83C95.3833 361.259 95.7147 361.595 96.1347 361.838C96.564 362.071 97.0447 362.188 97.5767 362.188C98.0153 362.188 98.4213 362.099 98.7947 361.922C99.168 361.745 99.476 361.474 99.7187 361.11L100.461 361.614C100.171 362.09 99.7747 362.454 99.2707 362.706C98.7667 362.949 98.202 363.07 97.5767 363.07ZM105.3 363.07C104.591 363.07 103.952 362.911 103.382 362.594C102.813 362.267 102.365 361.819 102.038 361.25C101.712 360.681 101.548 360.037 101.548 359.318C101.548 358.599 101.712 357.955 102.038 357.386C102.365 356.817 102.813 356.373 103.382 356.056C103.952 355.739 104.591 355.58 105.3 355.58C106.01 355.58 106.649 355.739 107.218 356.056C107.788 356.373 108.231 356.817 108.548 357.386C108.875 357.955 109.038 358.599 109.038 359.318C109.038 360.037 108.875 360.681 108.548 361.25C108.231 361.819 107.788 362.267 107.218 362.594C106.649 362.911 106.01 363.07 105.3 363.07ZM105.3 362.188C105.823 362.188 106.29 362.071 106.7 361.838C107.12 361.595 107.447 361.255 107.68 360.816C107.914 360.377 108.03 359.878 108.03 359.318C108.03 358.758 107.914 358.259 107.68 357.82C107.447 357.381 107.12 357.045 106.7 356.812C106.29 356.569 105.823 356.448 105.3 356.448C104.778 356.448 104.306 356.569 103.886 356.812C103.476 357.045 103.149 357.381 102.906 357.82C102.673 358.259 102.556 358.758 102.556 359.318C102.556 359.878 102.673 360.377 102.906 360.816C103.149 361.255 103.476 361.595 103.886 361.838C104.306 362.071 104.778 362.188 105.3 362.188ZM111.068 352.612H112.062V363H111.068V352.612ZM114.827 352.612H115.821V363H114.827V352.612ZM124.999 359.626H118.839C118.895 360.391 119.189 361.012 119.721 361.488C120.253 361.955 120.925 362.188 121.737 362.188C122.195 362.188 122.615 362.109 122.997 361.95C123.38 361.782 123.711 361.539 123.991 361.222L124.551 361.866C124.225 362.258 123.814 362.557 123.319 362.762C122.834 362.967 122.297 363.07 121.709 363.07C120.953 363.07 120.281 362.911 119.693 362.594C119.115 362.267 118.662 361.819 118.335 361.25C118.009 360.681 117.845 360.037 117.845 359.318C117.845 358.599 117.999 357.955 118.307 357.386C118.625 356.817 119.054 356.373 119.595 356.056C120.146 355.739 120.762 355.58 121.443 355.58C122.125 355.58 122.736 355.739 123.277 356.056C123.819 356.373 124.243 356.817 124.551 357.386C124.859 357.946 125.013 358.59 125.013 359.318L124.999 359.626ZM121.443 356.434C120.734 356.434 120.137 356.663 119.651 357.12C119.175 357.568 118.905 358.156 118.839 358.884H124.061C123.996 358.156 123.721 357.568 123.235 357.12C122.759 356.663 122.162 356.434 121.443 356.434ZM130.088 363.07C129.36 363.07 128.707 362.911 128.128 362.594C127.559 362.277 127.111 361.833 126.784 361.264C126.458 360.685 126.294 360.037 126.294 359.318C126.294 358.599 126.458 357.955 126.784 357.386C127.111 356.817 127.559 356.373 128.128 356.056C128.707 355.739 129.36 355.58 130.088 355.58C130.723 355.58 131.288 355.706 131.782 355.958C132.286 356.201 132.683 356.56 132.972 357.036L132.23 357.54C131.988 357.176 131.68 356.905 131.306 356.728C130.933 356.541 130.527 356.448 130.088 356.448C129.556 356.448 129.076 356.569 128.646 356.812C128.226 357.045 127.895 357.381 127.652 357.82C127.419 358.259 127.302 358.758 127.302 359.318C127.302 359.887 127.419 360.391 127.652 360.83C127.895 361.259 128.226 361.595 128.646 361.838C129.076 362.071 129.556 362.188 130.088 362.188C130.527 362.188 130.933 362.099 131.306 361.922C131.68 361.745 131.988 361.474 132.23 361.11L132.972 361.614C132.683 362.09 132.286 362.454 131.782 362.706C131.278 362.949 130.714 363.07 130.088 363.07ZM138.885 362.552C138.698 362.72 138.465 362.851 138.185 362.944C137.914 363.028 137.63 363.07 137.331 363.07C136.64 363.07 136.108 362.883 135.735 362.51C135.362 362.137 135.175 361.609 135.175 360.928V356.476H133.859V355.636H135.175V354.026H136.169V355.636H138.409V356.476H136.169V360.872C136.169 361.311 136.276 361.647 136.491 361.88C136.715 362.104 137.032 362.216 137.443 362.216C137.648 362.216 137.844 362.183 138.031 362.118C138.227 362.053 138.395 361.959 138.535 361.838L138.885 362.552ZM140.695 355.636H141.689V363H140.695V355.636ZM141.199 354.026C140.993 354.026 140.821 353.956 140.681 353.816C140.541 353.676 140.471 353.508 140.471 353.312C140.471 353.125 140.541 352.962 140.681 352.822C140.821 352.682 140.993 352.612 141.199 352.612C141.404 352.612 141.577 352.682 141.717 352.822C141.857 352.953 141.927 353.111 141.927 353.298C141.927 353.503 141.857 353.676 141.717 353.816C141.577 353.956 141.404 354.026 141.199 354.026ZM147.464 363.07C146.755 363.07 146.116 362.911 145.546 362.594C144.977 362.267 144.529 361.819 144.202 361.25C143.876 360.681 143.712 360.037 143.712 359.318C143.712 358.599 143.876 357.955 144.202 357.386C144.529 356.817 144.977 356.373 145.546 356.056C146.116 355.739 146.755 355.58 147.464 355.58C148.174 355.58 148.813 355.739 149.382 356.056C149.952 356.373 150.395 356.817 150.712 357.386C151.039 357.955 151.202 358.599 151.202 359.318C151.202 360.037 151.039 360.681 150.712 361.25C150.395 361.819 149.952 362.267 149.382 362.594C148.813 362.911 148.174 363.07 147.464 363.07ZM147.464 362.188C147.987 362.188 148.454 362.071 148.864 361.838C149.284 361.595 149.611 361.255 149.844 360.816C150.078 360.377 150.194 359.878 150.194 359.318C150.194 358.758 150.078 358.259 149.844 357.82C149.611 357.381 149.284 357.045 148.864 356.812C148.454 356.569 147.987 356.448 147.464 356.448C146.942 356.448 146.47 356.569 146.05 356.812C145.64 357.045 145.313 357.381 145.07 357.82C144.837 358.259 144.72 358.758 144.72 359.318C144.72 359.878 144.837 360.377 145.07 360.816C145.313 361.255 145.64 361.595 146.05 361.838C146.47 362.071 146.942 362.188 147.464 362.188ZM156.984 355.58C157.908 355.58 158.64 355.851 159.182 356.392C159.732 356.924 160.008 357.703 160.008 358.73V363H159.014V358.828C159.014 358.063 158.822 357.479 158.44 357.078C158.057 356.677 157.511 356.476 156.802 356.476C156.008 356.476 155.378 356.714 154.912 357.19C154.454 357.657 154.226 358.305 154.226 359.136V363H153.232V355.636H154.184V356.994C154.454 356.546 154.828 356.201 155.304 355.958C155.789 355.706 156.349 355.58 156.984 355.58ZM27.962 372.58C28.9233 372.58 29.6607 372.823 30.174 373.308C30.6873 373.784 30.944 374.493 30.944 375.436V380H29.992V378.852C29.768 379.235 29.4367 379.533 28.998 379.748C28.5687 379.963 28.0553 380.07 27.458 380.07C26.6367 380.07 25.9833 379.874 25.498 379.482C25.0127 379.09 24.77 378.572 24.77 377.928C24.77 377.303 24.994 376.799 25.442 376.416C25.8993 376.033 26.6227 375.842 27.612 375.842H29.95V375.394C29.95 374.759 29.7727 374.279 29.418 373.952C29.0633 373.616 28.5453 373.448 27.864 373.448C27.3973 373.448 26.9493 373.527 26.52 373.686C26.0907 373.835 25.722 374.045 25.414 374.316L24.966 373.574C25.3393 373.257 25.7873 373.014 26.31 372.846C26.8327 372.669 27.3833 372.58 27.962 372.58ZM27.612 379.286C28.172 379.286 28.6527 379.16 29.054 378.908C29.4553 378.647 29.754 378.273 29.95 377.788V376.584H27.64C26.38 376.584 25.75 377.023 25.75 377.9C25.75 378.329 25.9133 378.67 26.24 378.922C26.5667 379.165 27.024 379.286 27.612 379.286ZM37.3958 372.58C38.3198 372.58 39.0525 372.851 39.5938 373.392C40.1445 373.924 40.4198 374.703 40.4198 375.73V380H39.4258V375.828C39.4258 375.063 39.2345 374.479 38.8518 374.078C38.4691 373.677 37.9231 373.476 37.2138 373.476C36.4205 373.476 35.7905 373.714 35.3238 374.19C34.8665 374.657 34.6378 375.305 34.6378 376.136V380H33.6438V372.636H34.5958V373.994C34.8665 373.546 35.2398 373.201 35.7158 372.958C36.2011 372.706 36.7611 372.58 37.3958 372.58ZM49.8658 369.612V380H48.9138V378.544C48.6151 379.039 48.2184 379.417 47.7238 379.678C47.2384 379.939 46.6878 380.07 46.0718 380.07C45.3811 380.07 44.7558 379.911 44.1958 379.594C43.6358 379.277 43.1971 378.833 42.8798 378.264C42.5624 377.695 42.4038 377.046 42.4038 376.318C42.4038 375.59 42.5624 374.941 42.8798 374.372C43.1971 373.803 43.6358 373.364 44.1958 373.056C44.7558 372.739 45.3811 372.58 46.0718 372.58C46.6691 372.58 47.2058 372.706 47.6818 372.958C48.1671 373.201 48.5638 373.56 48.8718 374.036V369.612H49.8658ZM46.1558 379.188C46.6691 379.188 47.1311 379.071 47.5418 378.838C47.9618 378.595 48.2884 378.255 48.5218 377.816C48.7644 377.377 48.8858 376.878 48.8858 376.318C48.8858 375.758 48.7644 375.259 48.5218 374.82C48.2884 374.381 47.9618 374.045 47.5418 373.812C47.1311 373.569 46.6691 373.448 46.1558 373.448C45.6331 373.448 45.1618 373.569 44.7418 373.812C44.3311 374.045 44.0044 374.381 43.7618 374.82C43.5284 375.259 43.4118 375.758 43.4118 376.318C43.4118 376.878 43.5284 377.377 43.7618 377.816C44.0044 378.255 44.3311 378.595 44.7418 378.838C45.1618 379.071 45.6331 379.188 46.1558 379.188ZM59.3081 380.07C58.5988 380.07 57.9594 379.911 57.3901 379.594C56.8208 379.267 56.3728 378.819 56.0461 378.25C55.7194 377.681 55.5561 377.037 55.5561 376.318C55.5561 375.599 55.7194 374.955 56.0461 374.386C56.3728 373.817 56.8208 373.373 57.3901 373.056C57.9594 372.739 58.5988 372.58 59.3081 372.58C60.0174 372.58 60.6568 372.739 61.2261 373.056C61.7954 373.373 62.2388 373.817 62.5561 374.386C62.8828 374.955 63.0461 375.599 63.0461 376.318C63.0461 377.037 62.8828 377.681 62.5561 378.25C62.2388 378.819 61.7954 379.267 61.2261 379.594C60.6568 379.911 60.0174 380.07 59.3081 380.07ZM59.3081 379.188C59.8308 379.188 60.2974 379.071 60.7081 378.838C61.1281 378.595 61.4548 378.255 61.6881 377.816C61.9214 377.377 62.0381 376.878 62.0381 376.318C62.0381 375.758 61.9214 375.259 61.6881 374.82C61.4548 374.381 61.1281 374.045 60.7081 373.812C60.2974 373.569 59.8308 373.448 59.3081 373.448C58.7854 373.448 58.3141 373.569 57.8941 373.812C57.4834 374.045 57.1568 374.381 56.9141 374.82C56.6808 375.259 56.5641 375.758 56.5641 376.318C56.5641 376.878 56.6808 377.377 56.9141 377.816C57.1568 378.255 57.4834 378.595 57.8941 378.838C58.3141 379.071 58.7854 379.188 59.3081 379.188ZM68.8695 372.58C69.5601 372.58 70.1855 372.739 70.7455 373.056C71.3055 373.364 71.7441 373.803 72.0615 374.372C72.3788 374.941 72.5375 375.59 72.5375 376.318C72.5375 377.055 72.3788 377.709 72.0615 378.278C71.7441 378.847 71.3055 379.291 70.7455 379.608C70.1948 379.916 69.5695 380.07 68.8695 380.07C68.2721 380.07 67.7308 379.949 67.2455 379.706C66.7695 379.454 66.3775 379.09 66.0695 378.614V382.716H65.0755V372.636H66.0275V374.092C66.3261 373.607 66.7181 373.233 67.2035 372.972C67.6981 372.711 68.2535 372.58 68.8695 372.58ZM68.7995 379.188C69.3128 379.188 69.7795 379.071 70.1995 378.838C70.6195 378.595 70.9461 378.255 71.1795 377.816C71.4221 377.377 71.5435 376.878 71.5435 376.318C71.5435 375.758 71.4221 375.263 71.1795 374.834C70.9461 374.395 70.6195 374.055 70.1995 373.812C69.7795 373.569 69.3128 373.448 68.7995 373.448C68.2768 373.448 67.8055 373.569 67.3855 373.812C66.9748 374.055 66.6481 374.395 66.4055 374.834C66.1721 375.263 66.0555 375.758 66.0555 376.318C66.0555 376.878 66.1721 377.377 66.4055 377.816C66.6481 378.255 66.9748 378.595 67.3855 378.838C67.8055 379.071 68.2768 379.188 68.7995 379.188ZM78.4417 379.552C78.2551 379.72 78.0217 379.851 77.7417 379.944C77.4711 380.028 77.1864 380.07 76.8877 380.07C76.1971 380.07 75.6651 379.883 75.2917 379.51C74.9184 379.137 74.7317 378.609 74.7317 377.928V373.476H73.4157V372.636H74.7317V371.026H75.7257V372.636H77.9657V373.476H75.7257V377.872C75.7257 378.311 75.8331 378.647 76.0477 378.88C76.2717 379.104 76.5891 379.216 76.9997 379.216C77.2051 379.216 77.4011 379.183 77.5877 379.118C77.7837 379.053 77.9517 378.959 78.0917 378.838L78.4417 379.552ZM80.2512 372.636H81.2452V380H80.2512V372.636ZM80.7552 371.026C80.5499 371.026 80.3772 370.956 80.2372 370.816C80.0972 370.676 80.0272 370.508 80.0272 370.312C80.0272 370.125 80.0972 369.962 80.2372 369.822C80.3772 369.682 80.5499 369.612 80.7552 369.612C80.9606 369.612 81.1332 369.682 81.2732 369.822C81.4132 369.953 81.4832 370.111 81.4832 370.298C81.4832 370.503 81.4132 370.676 81.2732 370.816C81.1332 370.956 80.9606 371.026 80.7552 371.026ZM93.195 372.58C94.119 372.58 94.8423 372.846 95.365 373.378C95.897 373.91 96.163 374.694 96.163 375.73V380H95.169V375.828C95.169 375.063 94.9823 374.479 94.609 374.078C94.245 373.677 93.727 373.476 93.055 373.476C92.2897 373.476 91.6877 373.714 91.249 374.19C90.8103 374.657 90.591 375.305 90.591 376.136V380H89.597V375.828C89.597 375.063 89.4103 374.479 89.037 374.078C88.673 373.677 88.1503 373.476 87.469 373.476C86.713 373.476 86.111 373.714 85.663 374.19C85.2243 374.657 85.005 375.305 85.005 376.136V380H84.011V372.636H84.963V373.98C85.2243 373.532 85.5883 373.187 86.055 372.944C86.5217 372.701 87.0583 372.58 87.665 372.58C88.281 372.58 88.813 372.711 89.261 372.972C89.7183 373.233 90.059 373.621 90.283 374.134C90.5537 373.649 90.941 373.271 91.445 373C91.9583 372.72 92.5417 372.58 93.195 372.58ZM98.8587 372.636H99.8527V380H98.8587V372.636ZM99.3627 371.026C99.1573 371.026 98.9847 370.956 98.8447 370.816C98.7047 370.676 98.6347 370.508 98.6347 370.312C98.6347 370.125 98.7047 369.962 98.8447 369.822C98.9847 369.682 99.1573 369.612 99.3627 369.612C99.568 369.612 99.7407 369.682 99.8807 369.822C100.021 369.953 100.091 370.111 100.091 370.298C100.091 370.503 100.021 370.676 99.8807 370.816C99.7407 370.956 99.568 371.026 99.3627 371.026ZM107.812 379.174V380H101.82V379.342L106.454 373.476H101.904V372.636H107.728V373.294L103.094 379.174H107.812ZM112.345 372.58C113.306 372.58 114.043 372.823 114.557 373.308C115.07 373.784 115.327 374.493 115.327 375.436V380H114.375V378.852C114.151 379.235 113.819 379.533 113.381 379.748C112.951 379.963 112.438 380.07 111.841 380.07C111.019 380.07 110.366 379.874 109.881 379.482C109.395 379.09 109.153 378.572 109.153 377.928C109.153 377.303 109.377 376.799 109.825 376.416C110.282 376.033 111.005 375.842 111.995 375.842H114.333V375.394C114.333 374.759 114.155 374.279 113.801 373.952C113.446 373.616 112.928 373.448 112.247 373.448C111.78 373.448 111.332 373.527 110.903 373.686C110.473 373.835 110.105 374.045 109.797 374.316L109.349 373.574C109.722 373.257 110.17 373.014 110.693 372.846C111.215 372.669 111.766 372.58 112.345 372.58ZM111.995 379.286C112.555 379.286 113.035 379.16 113.437 378.908C113.838 378.647 114.137 378.273 114.333 377.788V376.584H112.023C110.763 376.584 110.133 377.023 110.133 377.9C110.133 378.329 110.296 378.67 110.623 378.922C110.949 379.165 111.407 379.286 111.995 379.286ZM121.905 379.552C121.718 379.72 121.485 379.851 121.205 379.944C120.934 380.028 120.649 380.07 120.351 380.07C119.66 380.07 119.128 379.883 118.755 379.51C118.381 379.137 118.195 378.609 118.195 377.928V373.476H116.879V372.636H118.195V371.026H119.189V372.636H121.429V373.476H119.189V377.872C119.189 378.311 119.296 378.647 119.511 378.88C119.735 379.104 120.052 379.216 120.463 379.216C120.668 379.216 120.864 379.183 121.051 379.118C121.247 379.053 121.415 378.959 121.555 378.838L121.905 379.552ZM123.714 372.636H124.708V380H123.714V372.636ZM124.218 371.026C124.013 371.026 123.84 370.956 123.7 370.816C123.56 370.676 123.49 370.508 123.49 370.312C123.49 370.125 123.56 369.962 123.7 369.822C123.84 369.682 124.013 369.612 124.218 369.612C124.423 369.612 124.596 369.682 124.736 369.822C124.876 369.953 124.946 370.111 124.946 370.298C124.946 370.503 124.876 370.676 124.736 370.816C124.596 370.956 124.423 371.026 124.218 371.026ZM130.484 380.07C129.775 380.07 129.135 379.911 128.566 379.594C127.997 379.267 127.549 378.819 127.222 378.25C126.895 377.681 126.732 377.037 126.732 376.318C126.732 375.599 126.895 374.955 127.222 374.386C127.549 373.817 127.997 373.373 128.566 373.056C129.135 372.739 129.775 372.58 130.484 372.58C131.193 372.58 131.833 372.739 132.402 373.056C132.971 373.373 133.415 373.817 133.732 374.386C134.059 374.955 134.222 375.599 134.222 376.318C134.222 377.037 134.059 377.681 133.732 378.25C133.415 378.819 132.971 379.267 132.402 379.594C131.833 379.911 131.193 380.07 130.484 380.07ZM130.484 379.188C131.007 379.188 131.473 379.071 131.884 378.838C132.304 378.595 132.631 378.255 132.864 377.816C133.097 377.377 133.214 376.878 133.214 376.318C133.214 375.758 133.097 375.259 132.864 374.82C132.631 374.381 132.304 374.045 131.884 373.812C131.473 373.569 131.007 373.448 130.484 373.448C129.961 373.448 129.49 373.569 129.07 373.812C128.659 374.045 128.333 374.381 128.09 374.82C127.857 375.259 127.74 375.758 127.74 376.318C127.74 376.878 127.857 377.377 128.09 377.816C128.333 378.255 128.659 378.595 129.07 378.838C129.49 379.071 129.961 379.188 130.484 379.188ZM140.003 372.58C140.927 372.58 141.66 372.851 142.201 373.392C142.752 373.924 143.027 374.703 143.027 375.73V380H142.033V375.828C142.033 375.063 141.842 374.479 141.459 374.078C141.077 373.677 140.531 373.476 139.821 373.476C139.028 373.476 138.398 373.714 137.931 374.19C137.474 374.657 137.245 375.305 137.245 376.136V380H136.251V372.636H137.203V373.994C137.474 373.546 137.847 373.201 138.323 372.958C138.809 372.706 139.369 372.58 140.003 372.58Z" fill="#2C2F32"/>
<rect x="0.5" y="325.5" width="249" height="81" stroke="#2C2F32"/>
<path d="M124.646 114.354C124.842 114.549 125.158 114.549 125.354 114.354L128.536 111.172C128.731 110.976 128.731 110.66 128.536 110.464C128.34 110.269 128.024 110.269 127.828 110.464L125 113.293L122.172 110.464C121.976 110.269 121.66 110.269 121.464 110.464C121.269 110.66 121.269 110.976 121.464 111.172L124.646 114.354ZM124.5 82V114H125.5V82H124.5Z" fill="#2C2F32"/>
<path d="M124.646 211.354C124.842 211.549 125.158 211.549 125.354 211.354L128.536 208.172C128.731 207.976 128.731 207.66 128.536 207.464C128.34 207.269 128.024 207.269 127.828 207.464L125 210.293L122.172 207.464C121.976 207.269 121.66 207.269 121.464 207.464C121.269 207.66 121.269 207.976 121.464 208.172L124.646 211.354ZM124.5 179V211H125.5V179H124.5Z" fill="#2C2F32"/>
<path d="M124.646 325.354C124.842 325.549 125.158 325.549 125.354 325.354L128.536 322.172C128.731 321.976 128.731 321.66 128.536 321.464C128.34 321.269 128.024 321.269 127.828 321.464L125 324.293L122.172 321.464C121.976 321.269 121.66 321.269 121.464 321.464C121.269 321.66 121.269 321.976 121.464 322.172L124.646 325.354ZM124.5 293L124.5 325L125.5 325L125.5 293L124.5 293Z" fill="#2C2F32"/>
<path d="M274 368V368.5H274.5V368H274ZM274 147H274.5V146.5H274V147ZM249.646 146.646C249.451 146.842 249.451 147.158 249.646 147.354L252.828 150.536C253.024 150.731 253.34 150.731 253.536 150.536C253.731 150.34 253.731 150.024 253.536 149.828L250.707 147L253.536 144.172C253.731 143.976 253.731 143.66 253.536 143.464C253.34 143.269 253.024 143.269 252.828 143.464L249.646 146.646ZM250 368.5H274V367.5H250V368.5ZM274.5 368V147H273.5V368H274.5ZM274 146.5L250 146.5L250 147.5L274 147.5V146.5Z" fill="#2C2F32"/>
</svg>
