<svg width="200" height="43" viewBox="0 0 200 43" fill="none" xmlns="http://www.w3.org/2000/svg">
<path d="M59.3815 1.14097C57.9982 0.452881 56.4741 0.0947776 54.9291 0.0947776C53.384 0.0947776 51.86 0.452881 50.4766 1.14097C49.1898 1.79111 48.1046 2.77985 47.3378 4.00078C46.5705 5.23569 46.1675 6.66221 46.1753 8.11609C46.1585 9.56481 46.5449 10.9897 47.2913 12.2314C48.0652 13.4464 49.1486 14.4335 50.4301 15.0912C51.8027 15.7952 53.3287 16.1468 54.871 16.1142C56.4361 16.1535 57.9864 15.8019 59.3815 15.0912C60.6612 14.4396 61.7385 13.4507 62.4971 12.2314C63.267 10.9988 63.6628 9.5692 63.6364 8.11609C63.659 6.67016 63.2713 5.24742 62.5182 4.01287C61.7652 2.77832 60.6775 1.78253 59.3815 1.14097ZM59.8698 10.9294C59.3783 11.7464 58.6807 12.4199 57.847 12.8824C56.9383 13.3262 55.9404 13.5568 54.9291 13.5568C53.9178 13.5568 52.9199 13.3262 52.0112 12.8824C51.1504 12.4222 50.4327 11.7341 49.9365 10.8935C49.4404 10.0529 49.1848 9.09211 49.1979 8.11609C49.1792 7.13469 49.437 6.16785 49.9419 5.32605C50.4133 4.49328 51.1159 3.81491 51.9647 3.373C52.8647 2.9005 53.866 2.65365 54.8826 2.65365C55.8991 2.65365 56.9005 2.9005 57.8005 3.373C58.6493 3.81491 59.3519 4.49328 59.8233 5.32605C60.3181 6.17207 60.5751 7.13604 60.5673 8.11609C60.5553 9.07146 60.2992 10.0079 59.8233 10.8364L59.8698 10.9294Z" fill="#E1E7EC"/>
<path d="M78.4004 3.2335C79.3443 2.75807 80.3894 2.51871 81.4462 2.53598C82.2719 2.52245 83.0921 2.67381 83.8587 2.98122C84.6252 3.28864 85.3227 3.74592 85.9103 4.32627L87.8168 2.53598C87.043 1.69239 86.0783 1.04659 85.0035 0.652706C83.8248 0.199244 82.5694 -0.0218213 81.3067 0.0016975C79.7479 -0.0217296 78.2071 0.337513 76.8194 1.04796C75.5144 1.67816 74.4188 2.6714 73.6642 3.90858C72.9095 5.14576 72.5277 6.57436 72.5645 8.02308C72.5415 9.47259 72.9284 10.8991 73.6806 12.1384C74.4416 13.3876 75.5261 14.4078 76.8194 15.0912C78.1919 15.7952 79.718 16.1468 81.2602 16.1142C82.4266 16.1205 83.5871 15.948 84.7012 15.6027C85.753 15.3002 86.7387 14.8033 87.6075 14.1379V7.83707H84.771V12.7662C83.7413 13.3127 82.5883 13.585 81.4229 13.5567C80.3739 13.5711 79.337 13.3318 78.4004 12.8592C77.5534 12.3979 76.8405 11.725 76.3311 10.9061C75.8442 10.0442 75.5883 9.07114 75.5883 8.08121C75.5883 7.09128 75.8442 6.11816 76.3311 5.25628C76.8149 4.3993 77.5326 3.69772 78.4004 3.2335Z" fill="#E1E7EC"/>
<path d="M113.694 0.234202L107.394 10.5341L100.977 0.234202H98.4887V15.7887H101.372V5.60505L106.673 13.9984H108.021L113.322 5.46554L113.369 15.7887H116.206L116.182 0.234202H113.694Z" fill="#E1E7EC"/>
<path d="M132.504 0.234203L125.227 15.7887H128.319L129.923 12.1849H137.991L139.619 15.7887H142.758L135.457 0.234203H132.504ZM130.923 9.90636L133.946 3.11725L137.015 9.90636H130.923Z" fill="#E1E7EC"/>
<path d="M148.849 2.67549H154.22V15.7887H157.219V2.67549H162.59V0.234202H148.849V2.67549Z" fill="#E1E7EC"/>
<path d="M174.773 0.234202H171.774V15.7887H174.773V0.234202Z" fill="#E1E7EC"/>
<path d="M193.746 13.4637C192.713 13.491 191.69 13.2592 190.77 12.7894C189.918 12.3344 189.204 11.6601 188.7 10.8364C188.213 9.9745 187.957 9.00139 187.957 8.01146C187.957 7.02154 188.213 6.04841 188.7 5.18653C189.184 4.35313 189.904 3.68168 190.77 3.25676C191.681 2.76006 192.708 2.5115 193.746 2.53599C194.555 2.52143 195.358 2.67746 196.104 2.99393C196.849 3.31039 197.519 3.78019 198.07 4.37277L200 2.60573C199.24 1.75659 198.293 1.09593 197.233 0.675963C196.079 0.218889 194.847 -0.0100924 193.606 0.00169944C192.062 -0.0236786 190.536 0.33589 189.165 1.04796C187.894 1.69179 186.824 2.67314 186.073 3.88451C185.334 5.13014 184.945 6.55163 184.945 7.99983C184.945 9.44802 185.334 10.8695 186.073 12.1152C186.806 13.368 187.867 14.397 189.142 15.0912C190.515 15.7952 192.041 16.1468 193.583 16.1142C194.823 16.1334 196.054 15.9124 197.21 15.4632C198.279 15.0495 199.236 14.3882 200 13.5334L198.07 11.7431C197.509 12.3147 196.834 12.7629 196.089 13.0591C195.345 13.3554 194.546 13.4932 193.746 13.4637Z" fill="#E1E7EC"/>
<path d="M10.3232 0.885209C9.15521 0.4223 7.90554 0.200844 6.64962 0.2342H0V2.55924H6.51012C7.5709 2.47172 8.6296 2.75074 9.50943 3.34975C9.83709 3.64201 10.0993 4.00023 10.2788 4.40092C10.4583 4.80161 10.5511 5.23572 10.5511 5.67479C10.5511 6.11386 10.4583 6.54798 10.2788 6.94867C10.0993 7.34936 9.83709 7.70756 9.50943 7.99983C8.63257 8.60702 7.57363 8.89435 6.51012 8.81361H0V15.7887H2.9993V11.3014H6.64962C7.90714 11.3274 9.15686 11.098 10.3232 10.6271C11.2991 10.259 12.1354 9.59475 12.7149 8.72754C13.2944 7.86033 13.5882 6.83355 13.555 5.79105C13.5833 4.74449 13.2913 3.71426 12.718 2.83825C12.1273 1.96762 11.2948 1.28874 10.3232 0.885209Z" fill="#E1E7EC"/>
<path d="M36.1311 8.79036C36.7003 7.89781 37.0027 6.86125 37.0027 5.80268C37.0027 4.7441 36.7003 3.70756 36.1311 2.81501C35.5529 1.96598 34.7471 1.29714 33.8061 0.88522C32.6466 0.421023 31.4043 0.19946 30.1558 0.234211H23.4829V2.55925H29.993C31.0526 2.48455 32.1072 2.76249 32.9923 3.34976C33.3319 3.62983 33.5998 3.98689 33.7737 4.39126C33.9475 4.79564 34.0224 5.23567 33.9921 5.6748C34.0205 6.11372 33.9448 6.55315 33.771 6.95721C33.5973 7.36128 33.3305 7.71853 32.9923 7.99984C32.1101 8.5953 31.0553 8.88149 29.993 8.81362H23.4829V15.7887H26.4822V11.1387H30.7603L34.0619 15.7887H37.2937L33.5736 10.6736C34.6 10.3247 35.4933 9.66691 36.1311 8.79036Z" fill="#E1E7EC"/>
<g opacity="0.5">
<path d="M3.14893 42.2852H2.36654C2.21751 42.2852 2.143 42.2147 2.143 42.0736V35.4671C2.143 35.3842 2.1016 35.3427 2.01881 35.3427H0.454011C0.304983 35.3427 0.230469 35.2722 0.230469 35.1312V34.4967C0.230469 34.3557 0.304983 34.2852 0.454011 34.2852H5.06146C5.21049 34.2852 5.285 34.3557 5.285 34.4967V35.1312C5.285 35.2722 5.21049 35.3427 5.06146 35.3427H3.49667C3.40559 35.3427 3.36006 35.3842 3.36006 35.4671V42.0736C3.36006 42.2147 3.28968 42.2852 3.14893 42.2852Z" fill="white"/>
<path d="M13.551 42.2852H12.7686C12.6279 42.2852 12.5575 42.2147 12.5575 42.0736V34.4967C12.5575 34.3557 12.6279 34.2852 12.7686 34.2852H15.6747C16.2791 34.2852 16.751 34.4593 17.0904 34.8077C17.4382 35.1478 17.612 35.6206 17.612 36.2261V37.2712C17.612 38.225 17.2188 38.8264 16.4322 39.0752V39.125L17.8107 42.0363C17.9018 42.2022 17.848 42.2852 17.6493 42.2852H16.8793C16.6806 42.2852 16.5523 42.2147 16.4943 42.0736L15.1655 39.2121H13.9112C13.8118 39.2121 13.7621 39.2535 13.7621 39.3365V42.0736C13.7621 42.2147 13.6918 42.2852 13.551 42.2852ZM13.8987 38.2167H15.476C16.0886 38.2167 16.395 37.914 16.395 37.3085V36.2634C16.395 35.6496 16.0886 35.3427 15.476 35.3427H13.8987C13.8077 35.3427 13.7621 35.3842 13.7621 35.4671V38.0923C13.7621 38.1753 13.8077 38.2167 13.8987 38.2167Z" fill="white"/>
<path d="M25.9327 42.2852H25.0385C24.9226 42.2852 24.8812 42.2147 24.9143 42.0736L27.0752 34.4967C27.1166 34.3557 27.216 34.2852 27.3733 34.2852H28.6152C28.7808 34.2852 28.8801 34.3557 28.9132 34.4967L31.0741 42.0736C31.1072 42.2147 31.0617 42.2852 30.9375 42.2852H30.0558C29.9813 42.2852 29.9274 42.2727 29.8943 42.2478C29.8695 42.2147 29.8488 42.1566 29.8322 42.0736L29.3603 40.4562H26.6281L26.1562 42.0736C26.1231 42.2147 26.0486 42.2852 25.9327 42.2852ZM27.9694 35.4796L26.8765 39.4609H29.1243L28.0191 35.4796H27.9694Z" fill="white"/>
<path d="M39.8525 41.2276H41.6036C42.1997 41.2276 42.4978 40.9207 42.4978 40.3069V36.2634C42.4978 35.6496 42.1997 35.3427 41.6036 35.3427H39.8525C39.7614 35.3427 39.7159 35.3842 39.7159 35.4671V41.0908C39.7159 41.182 39.7614 41.2276 39.8525 41.2276ZM38.5113 42.0736V34.4967C38.5113 34.3557 38.5816 34.2852 38.7224 34.2852H41.7775C42.3819 34.2852 42.8538 34.4552 43.1932 34.7953C43.541 35.127 43.7148 35.5998 43.7148 36.2136V40.3567C43.7148 40.9622 43.541 41.435 43.1932 41.775C42.8538 42.1151 42.3819 42.2852 41.7775 42.2852H38.7224C38.5816 42.2852 38.5113 42.2147 38.5113 42.0736Z" fill="white"/>
<path d="M52.8762 34.4967V42.0736C52.8762 42.2147 52.8058 42.2852 52.6651 42.2852H51.8827C51.7419 42.2852 51.6715 42.2147 51.6715 42.0736V34.4967C51.6715 34.3557 51.7419 34.2852 51.8827 34.2852H52.6651C52.8058 34.2852 52.8762 34.3557 52.8762 34.4967Z" fill="white"/>
<path d="M61.9412 42.2852H61.1712C61.0304 42.2852 60.9601 42.2147 60.9601 42.0736V34.4967C60.9601 34.3557 61.0304 34.2852 61.1712 34.2852H61.8667C61.9991 34.2852 62.0902 34.3308 62.1399 34.422L65.1453 39.8341H65.195V34.4967C65.195 34.3557 65.2653 34.2852 65.4061 34.2852H66.1761C66.3168 34.2852 66.3872 34.3557 66.3872 34.4967V42.0736C66.3872 42.2147 66.3168 42.2852 66.1761 42.2852H65.5054C65.373 42.2852 65.2653 42.2188 65.1825 42.0861L62.202 36.7362H62.1523V42.0736C62.1523 42.2147 62.0819 42.2852 61.9412 42.2852Z" fill="white"/>
<path d="M77.5395 42.2852H76.2107C75.598 42.2852 75.122 42.1151 74.7825 41.775C74.4513 41.435 74.2858 40.9622 74.2858 40.3567V36.2136C74.2858 35.5998 74.4513 35.127 74.7825 34.7953C75.122 34.4552 75.598 34.2852 76.2107 34.2852H77.5395C78.1522 34.2852 78.6241 34.4552 78.9553 34.7953C79.2948 35.127 79.4645 35.5998 79.4645 36.2136V36.6615C79.4645 36.8108 79.3941 36.8855 79.2534 36.8855H78.471C78.3302 36.8855 78.2598 36.8108 78.2598 36.6615V36.2634C78.2598 35.6496 77.9618 35.3427 77.3657 35.3427H76.3846C75.7885 35.3427 75.4904 35.6496 75.4904 36.2634V40.3069C75.4904 40.9207 75.7885 41.2276 76.3846 41.2276H77.3657C77.9618 41.2276 78.2598 40.9207 78.2598 40.3069V39.1872C78.2598 39.1042 78.2143 39.0628 78.1232 39.0628H77.1173C76.9765 39.0628 76.9062 38.9923 76.9062 38.8513V38.2167C76.9062 38.0757 76.9765 38.0052 77.1173 38.0052H79.2037C79.3776 38.0052 79.4645 38.0923 79.4645 38.2665V40.3567C79.4645 40.9622 79.2948 41.435 78.9553 41.775C78.6158 42.1151 78.1439 42.2852 77.5395 42.2852Z" fill="white"/>
<path d="M97.5124 42.2852H96.7424C96.6017 42.2852 96.5313 42.2147 96.5313 42.0736V34.4967C96.5313 34.3557 96.6017 34.2852 96.7424 34.2852H97.4379C97.5704 34.2852 97.6614 34.3308 97.7111 34.422L100.716 39.8341H100.766V34.4967C100.766 34.3557 100.837 34.2852 100.977 34.2852H101.747C101.888 34.2852 101.958 34.3557 101.958 34.4967V42.0736C101.958 42.2147 101.888 42.2852 101.747 42.2852H101.077C100.944 42.2852 100.837 42.2188 100.754 42.0861L97.7732 36.7362H97.7235V42.0736C97.7235 42.2147 97.6531 42.2852 97.5124 42.2852Z" fill="white"/>
<path d="M114.166 42.2852H110.192C110.052 42.2852 109.981 42.2147 109.981 42.0736V34.4967C109.981 34.3557 110.052 34.2852 110.192 34.2852H114.166C114.299 34.2852 114.365 34.3557 114.365 34.4967V35.1312C114.365 35.2722 114.299 35.3427 114.166 35.3427H111.335C111.235 35.3427 111.186 35.3842 111.186 35.4671V37.5698C111.186 37.6527 111.235 37.6942 111.335 37.6942H113.732C113.881 37.6942 113.955 37.7647 113.955 37.9057V38.5402C113.955 38.6812 113.881 38.7517 113.732 38.7517H111.335C111.235 38.7517 111.186 38.7932 111.186 38.8761V41.0908C111.186 41.182 111.235 41.2276 111.335 41.2276H114.166C114.299 41.2276 114.365 41.2981 114.365 41.4391V42.0736C114.365 42.2147 114.299 42.2852 114.166 42.2852Z" fill="white"/>
<path d="M126.33 34.2852H127.113C127.262 34.2852 127.336 34.3515 127.336 34.4842V40.3567C127.336 40.9622 127.162 41.435 126.815 41.775C126.475 42.1151 126.003 42.2852 125.399 42.2852H124.02C123.416 42.2852 122.944 42.1151 122.605 41.775C122.265 41.435 122.096 40.9622 122.096 40.3567V34.4967C122.096 34.3557 122.166 34.2852 122.307 34.2852H123.089C123.23 34.2852 123.3 34.3557 123.3 34.4967V40.3069C123.3 40.9207 123.598 41.2276 124.194 41.2276H125.213C125.817 41.2276 126.119 40.9207 126.119 40.3069V34.4967C126.119 34.3557 126.19 34.2852 126.33 34.2852Z" fill="white"/>
<path d="M136.274 42.2852H135.491C135.35 42.2852 135.28 42.2147 135.28 42.0736V34.4967C135.28 34.3557 135.35 34.2852 135.491 34.2852H138.397C139.002 34.2852 139.474 34.4593 139.813 34.8077C140.161 35.1478 140.335 35.6206 140.335 36.2261V37.2712C140.335 38.225 139.941 38.8264 139.155 39.0752V39.125L140.533 42.0363C140.624 42.2022 140.571 42.2852 140.372 42.2852H139.602C139.403 42.2852 139.275 42.2147 139.217 42.0736L137.888 39.2121H136.634C136.534 39.2121 136.485 39.2535 136.485 39.3365V42.0736C136.485 42.2147 136.414 42.2852 136.274 42.2852ZM136.621 38.2167H138.199C138.811 38.2167 139.118 37.914 139.118 37.3085V36.2634C139.118 35.6496 138.811 35.3427 138.199 35.3427H136.621C136.53 35.3427 136.485 35.3842 136.485 35.4671V38.0923C136.485 38.1753 136.53 38.2167 136.621 38.2167Z" fill="white"/>
<path d="M150.195 41.2276H151.276C151.88 41.2276 152.182 40.9207 152.182 40.3069V36.2634C152.182 35.6496 151.88 35.3427 151.276 35.3427H150.195C149.599 35.3427 149.301 35.6496 149.301 36.2634V40.3069C149.301 40.9207 149.599 41.2276 150.195 41.2276ZM151.462 42.2852H150.021C149.409 42.2852 148.933 42.1151 148.593 41.775C148.262 41.435 148.096 40.9622 148.096 40.3567V36.2136C148.096 35.5998 148.262 35.127 148.593 34.7953C148.933 34.4552 149.409 34.2852 150.021 34.2852H151.462C152.075 34.2852 152.551 34.4552 152.89 34.7953C153.23 35.127 153.399 35.5998 153.399 36.2136V40.3567C153.399 40.9622 153.23 41.435 152.89 41.775C152.551 42.1151 152.075 42.2852 151.462 42.2852Z" fill="white"/>
<path d="M162.263 42.2852H161.493C161.353 42.2852 161.282 42.2147 161.282 42.0736V34.4967C161.282 34.3557 161.353 34.2852 161.493 34.2852H162.189C162.321 34.2852 162.412 34.3308 162.462 34.422L165.468 39.8341H165.517V34.4967C165.517 34.3557 165.588 34.2852 165.728 34.2852H166.498C166.639 34.2852 166.709 34.3557 166.709 34.4967V42.0736C166.709 42.2147 166.639 42.2852 166.498 42.2852H165.828C165.695 42.2852 165.588 42.2188 165.505 42.0861L162.524 36.7362H162.475V42.0736C162.475 42.2147 162.404 42.2852 162.263 42.2852Z" fill="white"/>
<path d="M178.917 42.2852H174.943C174.803 42.2852 174.732 42.2147 174.732 42.0736V34.4967C174.732 34.3557 174.803 34.2852 174.943 34.2852H178.917C179.05 34.2852 179.116 34.3557 179.116 34.4967V35.1312C179.116 35.2722 179.05 35.3427 178.917 35.3427H176.086C175.987 35.3427 175.937 35.3842 175.937 35.4671V37.5698C175.937 37.6527 175.987 37.6942 176.086 37.6942H178.483C178.632 37.6942 178.706 37.7647 178.706 37.9057V38.5402C178.706 38.6812 178.632 38.7517 178.483 38.7517H176.086C175.987 38.7517 175.937 38.7932 175.937 38.8761V41.0908C175.937 41.182 175.987 41.2276 176.086 41.2276H178.917C179.05 41.2276 179.116 41.2981 179.116 41.4391V42.0736C179.116 42.2147 179.05 42.2852 178.917 42.2852Z" fill="white"/>
<path d="M189.094 42.2852H188.312C188.163 42.2852 188.088 42.2147 188.088 42.0736V35.4671C188.088 35.3842 188.047 35.3427 187.964 35.3427H186.399C186.25 35.3427 186.176 35.2722 186.176 35.1312V34.4967C186.176 34.3557 186.25 34.2852 186.399 34.2852H191.007C191.156 34.2852 191.23 34.3557 191.23 34.4967V35.1312C191.23 35.2722 191.156 35.3427 191.007 35.3427H189.442C189.351 35.3427 189.306 35.3842 189.306 35.4671V42.0736C189.306 42.2147 189.235 42.2852 189.094 42.2852Z" fill="white"/>
</g>
</svg>
