<svg width="185" height="50" viewBox="0 0 185 50" fill="none" xmlns="http://www.w3.org/2000/svg">
<path d="M4.84251 0.166667C5.86257 0.166667 6.74812 0.333333 7.49916 0.666667C8.26141 1 8.8443 1.47778 9.24785 2.1C9.65139 2.72222 9.85316 3.46111 9.85316 4.31667C9.85316 5.16111 9.65139 5.9 9.24785 6.53333C8.8443 7.15556 8.26141 7.63333 7.49916 7.96667C6.74812 8.3 5.86257 8.46667 4.84251 8.46667H2.18585V11.8333H0V0.166667H4.84251ZM4.74162 6.63333C5.69443 6.63333 6.41744 6.43333 6.91066 6.03333C7.40388 5.63333 7.65049 5.06111 7.65049 4.31667C7.65049 3.57222 7.40388 3 6.91066 2.6C6.41744 2.2 5.69443 2 4.74162 2H0V6.63333H4.74162Z" fill="#2C2F32"/>
<path d="M24.7812 11.8333L22.3768 8.41667C22.2759 8.42778 22.1245 8.43333 21.9228 8.43333H19.2661V11.8333H17.0803V0.166667H21.9228C22.9428 0.166667 23.8284 0.333333 24.5794 0.666667C25.3417 1 25.9246 1.47778 26.3281 2.1C26.7317 2.72222 26.9334 3.46111 26.9334 4.31667C26.9334 5.19444 26.7148 5.95 26.2777 6.58333C25.8517 7.21667 25.2352 7.68889 24.4281 8L27.1352 11.8333H24.7812ZM24.7308 4.31667C24.7308 3.57222 24.4842 3 23.9909 2.6C23.4977 2.2 22.7747 2 21.8219 2H17.0803V6.65H21.8219C22.7747 6.65 23.4977 6.45 23.9909 6.05C24.4842 5.63889 24.7308 5.06111 24.7308 4.31667Z" fill="#2C2F32"/>
<path d="M39.9215 12C38.7221 12 37.6404 11.7444 36.6764 11.2333C35.7124 10.7111 34.9557 9.99444 34.4064 9.08333C33.8572 8.16111 33.5826 7.13333 33.5826 6C33.5826 4.86667 33.8572 3.84444 34.4064 2.93333C34.9557 2.01111 35.7124 1.29444 36.6764 0.783333C37.6404 0.261111 38.7221 0 39.9215 0C41.1209 0 42.2027 0.261111 43.1667 0.783333C44.1307 1.29444 44.8873 2.00556 45.4366 2.91667C45.9859 3.82778 46.2605 4.85556 46.2605 6C46.2605 7.14444 45.9859 8.17222 45.4366 9.08333C44.8873 9.99444 44.1307 10.7111 43.1667 11.2333C42.2027 11.7444 41.1209 12 39.9215 12ZM39.9215 10.1C40.7062 10.1 41.4124 9.92778 42.0401 9.58333C42.6679 9.22778 43.1611 8.73889 43.5198 8.11667C43.8785 7.48333 44.0578 6.77778 44.0578 6C44.0578 5.22222 43.8785 4.52222 43.5198 3.9C43.1611 3.26667 42.6679 2.77778 42.0401 2.43333C41.4124 2.07778 40.7062 1.9 39.9215 1.9C39.1369 1.9 38.4307 2.07778 37.8029 2.43333C37.1752 2.77778 36.682 3.26667 36.3233 3.9C35.9646 4.52222 35.7852 5.22222 35.7852 6C35.7852 6.77778 35.9646 7.48333 36.3233 8.11667C36.682 8.73889 37.1752 9.22778 37.8029 9.58333C38.4307 9.92778 39.1369 10.1 39.9215 10.1Z" fill="#2C2F32"/>
<path d="M61.659 5.86667H63.7271V10.5167C63.1218 10.9944 62.4156 11.3611 61.6085 11.6167C60.8014 11.8722 59.9719 12 59.12 12C57.9206 12 56.8389 11.7444 55.8748 11.2333C54.9108 10.7111 54.1542 9.99444 53.6049 9.08333C53.0557 8.17222 52.781 7.14444 52.781 6C52.781 4.85556 53.0557 3.82778 53.6049 2.91667C54.1542 2.00556 54.9108 1.29444 55.8748 0.783333C56.8501 0.261111 57.943 0 59.1536 0C60.1401 0 61.0368 0.161111 61.8439 0.483333C62.651 0.805556 63.3292 1.27778 63.8784 1.9L62.4997 3.23333C61.6029 2.34444 60.5212 1.9 59.2545 1.9C58.425 1.9 57.6852 2.07222 57.035 2.41667C56.3961 2.76111 55.8917 3.24444 55.5218 3.86667C55.163 4.48889 54.9837 5.2 54.9837 6C54.9837 6.77778 55.163 7.47778 55.5218 8.1C55.8917 8.72222 56.3961 9.21111 57.035 9.56667C57.6852 9.92222 58.4194 10.1 59.2377 10.1C60.1569 10.1 60.964 9.9 61.659 9.5V5.86667Z" fill="#2C2F32"/>
<path d="M82.466 11.8333L82.4491 4.1L78.5819 10.5H77.6066L73.7393 4.2V11.8333H71.6544V0.166667H73.4535L78.1279 7.9L82.7182 0.166667H84.5173L84.5341 11.8333H82.466Z" fill="#2C2F32"/>
<path d="M100.391 9.13333H94.5063L93.3461 11.8333H91.093L96.3895 0.166667H98.5417L103.855 11.8333H101.568L100.391 9.13333ZM99.6683 7.43333L97.4488 2.33333L95.2461 7.43333H99.6683Z" fill="#2C2F32"/>
<path d="M112.193 2H108.292V0.166667H118.279V2H114.379V11.8333H112.193V2Z" fill="#2C2F32"/>
<path d="M124.964 0.166667H127.15V11.8333H124.964V0.166667Z" fill="#2C2F32"/>
<path d="M140.826 12C139.637 12 138.561 11.7444 137.597 11.2333C136.644 10.7111 135.893 9.99444 135.344 9.08333C134.806 8.17222 134.537 7.14444 134.537 6C134.537 4.85556 134.812 3.82778 135.361 2.91667C135.91 2.00556 136.661 1.29444 137.614 0.783333C138.578 0.261111 139.654 0 140.842 0C141.806 0 142.686 0.166667 143.482 0.5C144.278 0.833333 144.951 1.31667 145.5 1.95L144.088 3.26667C143.236 2.35556 142.188 1.9 140.943 1.9C140.136 1.9 139.413 2.07778 138.774 2.43333C138.135 2.77778 137.637 3.26111 137.278 3.88333C136.919 4.50556 136.74 5.21111 136.74 6C136.74 6.78889 136.919 7.49445 137.278 8.11667C137.637 8.73889 138.135 9.22778 138.774 9.58333C139.413 9.92778 140.136 10.1 140.943 10.1C142.188 10.1 143.236 9.63889 144.088 8.71667L145.5 10.05C144.951 10.6833 144.273 11.1667 143.465 11.5C142.67 11.8333 141.79 12 140.826 12Z" fill="#2C2F32"/>
<path opacity="0.7" d="M3.0505 47H2.2945C2.1505 47 2.0785 46.932 2.0785 46.796V40.424C2.0785 40.344 2.0385 40.304 1.9585 40.304H0.4465C0.3025 40.304 0.2305 40.236 0.2305 40.1V39.488C0.2305 39.352 0.3025 39.284 0.4465 39.284H4.8985C5.0425 39.284 5.1145 39.352 5.1145 39.488V40.1C5.1145 40.236 5.0425 40.304 4.8985 40.304H3.3865C3.2985 40.304 3.2545 40.344 3.2545 40.424V46.796C3.2545 46.932 3.1865 47 3.0505 47ZM13.1016 47H12.3456C12.2096 47 12.1416 46.932 12.1416 46.796V39.488C12.1416 39.352 12.2096 39.284 12.3456 39.284H15.1536C15.7376 39.284 16.1936 39.452 16.5216 39.788C16.8576 40.116 17.0256 40.572 17.0256 41.156V42.164C17.0256 43.084 16.6456 43.664 15.8856 43.904V43.952L17.2176 46.76C17.3056 46.92 17.2536 47 17.0616 47H16.3176C16.1256 47 16.0016 46.932 15.9456 46.796L14.6616 44.036H13.4496C13.3536 44.036 13.3056 44.076 13.3056 44.156V46.796C13.3056 46.932 13.2376 47 13.1016 47ZM13.4376 43.076H14.9616C15.5536 43.076 15.8496 42.784 15.8496 42.2V41.192C15.8496 40.6 15.5536 40.304 14.9616 40.304H13.4376C13.3496 40.304 13.3056 40.344 13.3056 40.424V42.956C13.3056 43.036 13.3496 43.076 13.4376 43.076ZM25.0655 47H24.2015C24.0895 47 24.0495 46.932 24.0815 46.796L26.1695 39.488C26.2095 39.352 26.3055 39.284 26.4575 39.284H27.6575C27.8175 39.284 27.9135 39.352 27.9455 39.488L30.0335 46.796C30.0655 46.932 30.0215 47 29.9015 47H29.0495C28.9775 47 28.9255 46.988 28.8935 46.964C28.8695 46.932 28.8495 46.876 28.8335 46.796L28.3775 45.236H25.7375L25.2815 46.796C25.2495 46.932 25.1775 47 25.0655 47ZM27.0335 40.436L25.9775 44.276H28.1495L27.0815 40.436H27.0335ZM38.5158 45.98H40.2078C40.7838 45.98 41.0718 45.684 41.0718 45.092V41.192C41.0718 40.6 40.7838 40.304 40.2078 40.304H38.5158C38.4278 40.304 38.3838 40.344 38.3838 40.424V45.848C38.3838 45.936 38.4278 45.98 38.5158 45.98ZM37.2198 46.796V39.488C37.2198 39.352 37.2878 39.284 37.4238 39.284H40.3758C40.9598 39.284 41.4158 39.448 41.7438 39.776C42.0798 40.096 42.2478 40.552 42.2478 41.144V45.14C42.2478 45.724 42.0798 46.18 41.7438 46.508C41.4158 46.836 40.9598 47 40.3758 47H37.4238C37.2878 47 37.2198 46.932 37.2198 46.796ZM51.1 39.488V46.796C51.1 46.932 51.032 47 50.896 47H50.14C50.004 47 49.936 46.932 49.936 46.796V39.488C49.936 39.352 50.004 39.284 50.14 39.284H50.896C51.032 39.284 51.1 39.352 51.1 39.488ZM59.8592 47H59.1152C58.9792 47 58.9112 46.932 58.9112 46.796V39.488C58.9112 39.352 58.9792 39.284 59.1152 39.284H59.7872C59.9152 39.284 60.0032 39.328 60.0512 39.416L62.9552 44.636H63.0032V39.488C63.0032 39.352 63.0712 39.284 63.2072 39.284H63.9512C64.0872 39.284 64.1552 39.352 64.1552 39.488V46.796C64.1552 46.932 64.0872 47 63.9512 47H63.3032C63.1752 47 63.0712 46.936 62.9912 46.808L60.1112 41.648H60.0632V46.796C60.0632 46.932 59.9952 47 59.8592 47ZM74.9313 47H73.6473C73.0553 47 72.5953 46.836 72.2673 46.508C71.9473 46.18 71.7873 45.724 71.7873 45.14V41.144C71.7873 40.552 71.9473 40.096 72.2673 39.776C72.5953 39.448 73.0553 39.284 73.6473 39.284H74.9313C75.5233 39.284 75.9793 39.448 76.2993 39.776C76.6273 40.096 76.7913 40.552 76.7913 41.144V41.576C76.7913 41.72 76.7233 41.792 76.5873 41.792H75.8313C75.6953 41.792 75.6273 41.72 75.6273 41.576V41.192C75.6273 40.6 75.3393 40.304 74.7633 40.304H73.8153C73.2393 40.304 72.9513 40.6 72.9513 41.192V45.092C72.9513 45.684 73.2393 45.98 73.8153 45.98H74.7633C75.3393 45.98 75.6273 45.684 75.6273 45.092V44.012C75.6273 43.932 75.5833 43.892 75.4953 43.892H74.5233C74.3873 43.892 74.3193 43.824 74.3193 43.688V43.076C74.3193 42.94 74.3873 42.872 74.5233 42.872H76.5393C76.7073 42.872 76.7913 42.956 76.7913 43.124V45.14C76.7913 45.724 76.6273 46.18 76.2993 46.508C75.9713 46.836 75.5153 47 74.9313 47ZM94.2303 47H93.4863C93.3503 47 93.2823 46.932 93.2823 46.796V39.488C93.2823 39.352 93.3503 39.284 93.4863 39.284H94.1583C94.2863 39.284 94.3743 39.328 94.4223 39.416L97.3263 44.636H97.3743V39.488C97.3743 39.352 97.4423 39.284 97.5783 39.284H98.3223C98.4583 39.284 98.5263 39.352 98.5263 39.488V46.796C98.5263 46.932 98.4583 47 98.3223 47H97.6743C97.5463 47 97.4423 46.936 97.3623 46.808L94.4823 41.648H94.4343V46.796C94.4343 46.932 94.3663 47 94.2303 47ZM110.322 47H106.482C106.346 47 106.278 46.932 106.278 46.796V39.488C106.278 39.352 106.346 39.284 106.482 39.284H110.322C110.45 39.284 110.514 39.352 110.514 39.488V40.1C110.514 40.236 110.45 40.304 110.322 40.304H107.586C107.49 40.304 107.442 40.344 107.442 40.424V42.452C107.442 42.532 107.49 42.572 107.586 42.572H109.902C110.046 42.572 110.118 42.64 110.118 42.776V43.388C110.118 43.524 110.046 43.592 109.902 43.592H107.586C107.49 43.592 107.442 43.632 107.442 43.712V45.848C107.442 45.936 107.49 45.98 107.586 45.98H110.322C110.45 45.98 110.514 46.048 110.514 46.184V46.796C110.514 46.932 110.45 47 110.322 47ZM122.076 39.284H122.832C122.976 39.284 123.048 39.348 123.048 39.476V45.14C123.048 45.724 122.88 46.18 122.544 46.508C122.216 46.836 121.76 47 121.176 47H119.844C119.26 47 118.804 46.836 118.476 46.508C118.148 46.18 117.984 45.724 117.984 45.14V39.488C117.984 39.352 118.052 39.284 118.188 39.284H118.944C119.08 39.284 119.148 39.352 119.148 39.488V45.092C119.148 45.684 119.436 45.98 120.012 45.98H120.996C121.58 45.98 121.872 45.684 121.872 45.092V39.488C121.872 39.352 121.94 39.284 122.076 39.284ZM131.684 47H130.928C130.792 47 130.724 46.932 130.724 46.796V39.488C130.724 39.352 130.792 39.284 130.928 39.284H133.736C134.32 39.284 134.776 39.452 135.104 39.788C135.44 40.116 135.608 40.572 135.608 41.156V42.164C135.608 43.084 135.228 43.664 134.468 43.904V43.952L135.8 46.76C135.888 46.92 135.836 47 135.644 47H134.9C134.708 47 134.584 46.932 134.528 46.796L133.244 44.036H132.032C131.936 44.036 131.888 44.076 131.888 44.156V46.796C131.888 46.932 131.82 47 131.684 47ZM132.02 43.076H133.544C134.136 43.076 134.432 42.784 134.432 42.2V41.192C134.432 40.6 134.136 40.304 133.544 40.304H132.02C131.932 40.304 131.888 40.344 131.888 40.424V42.956C131.888 43.036 131.932 43.076 132.02 43.076ZM145.136 45.98H146.18C146.764 45.98 147.056 45.684 147.056 45.092V41.192C147.056 40.6 146.764 40.304 146.18 40.304H145.136C144.56 40.304 144.272 40.6 144.272 41.192V45.092C144.272 45.684 144.56 45.98 145.136 45.98ZM146.36 47H144.968C144.376 47 143.916 46.836 143.588 46.508C143.268 46.18 143.108 45.724 143.108 45.14V41.144C143.108 40.552 143.268 40.096 143.588 39.776C143.916 39.448 144.376 39.284 144.968 39.284H146.36C146.952 39.284 147.412 39.448 147.74 39.776C148.068 40.096 148.232 40.552 148.232 41.144V45.14C148.232 45.724 148.068 46.18 147.74 46.508C147.412 46.836 146.952 47 146.36 47ZM156.797 47H156.053C155.917 47 155.849 46.932 155.849 46.796V39.488C155.849 39.352 155.917 39.284 156.053 39.284H156.725C156.853 39.284 156.941 39.328 156.989 39.416L159.893 44.636H159.941V39.488C159.941 39.352 160.009 39.284 160.145 39.284H160.889C161.025 39.284 161.093 39.352 161.093 39.488V46.796C161.093 46.932 161.025 47 160.889 47H160.241C160.113 47 160.009 46.936 159.929 46.808L157.049 41.648H157.001V46.796C157.001 46.932 156.933 47 156.797 47ZM172.889 47H169.049C168.913 47 168.845 46.932 168.845 46.796V39.488C168.845 39.352 168.913 39.284 169.049 39.284H172.889C173.017 39.284 173.081 39.352 173.081 39.488V40.1C173.081 40.236 173.017 40.304 172.889 40.304H170.153C170.057 40.304 170.009 40.344 170.009 40.424V42.452C170.009 42.532 170.057 42.572 170.153 42.572H172.469C172.613 42.572 172.685 42.64 172.685 42.776V43.388C172.685 43.524 172.613 43.592 172.469 43.592H170.153C170.057 43.592 170.009 43.632 170.009 43.712V45.848C170.009 45.936 170.057 45.98 170.153 45.98H172.889C173.017 45.98 173.081 46.048 173.081 46.184V46.796C173.081 46.932 173.017 47 172.889 47ZM182.722 47H181.966C181.822 47 181.75 46.932 181.75 46.796V40.424C181.75 40.344 181.71 40.304 181.63 40.304H180.118C179.974 40.304 179.902 40.236 179.902 40.1V39.488C179.902 39.352 179.974 39.284 180.118 39.284H184.57C184.714 39.284 184.786 39.352 184.786 39.488V40.1C184.786 40.236 184.714 40.304 184.57 40.304H183.058C182.97 40.304 182.926 40.344 182.926 40.424V46.796C182.926 46.932 182.858 47 182.722 47Z" fill="#3E4350"/>
</svg>
