<svg width="16" height="14" viewBox="0 0 16 14" fill="none" xmlns="http://www.w3.org/2000/svg">
<path d="M7.76891 3.9582L7.8036 4.52049L7.22555 4.45164C5.12147 4.18771 3.28329 3.29264 1.72257 1.78938L0.959553 1.04349L0.763018 1.5943C0.346826 2.82215 0.612727 4.11886 1.47979 4.99097C1.94223 5.47293 1.83818 5.54179 1.04048 5.25491C0.763018 5.1631 0.52024 5.09425 0.497118 5.12868C0.416192 5.209 0.693653 6.25325 0.91331 6.66636C1.21389 7.24012 1.82662 7.80241 2.49715 8.13519L3.06363 8.39912L2.3931 8.4106C1.74569 8.4106 1.72257 8.42207 1.79194 8.66305C2.02315 9.40894 2.93646 10.2007 3.95382 10.545L4.6706 10.786L4.04631 11.1532C3.12144 11.681 2.03472 11.9794 0.947992 12.0023C0.427753 12.0138 0 12.0597 0 12.0941C0 12.2089 1.41043 12.8515 2.23125 13.104C4.69372 13.8499 7.61862 13.5286 9.81519 12.2548C11.3759 11.3483 12.9366 9.54664 13.665 7.80241C14.058 6.87291 14.4511 5.17458 14.4511 4.35984C14.4511 3.83198 14.4858 3.76312 15.1332 3.13199C15.5147 2.76478 15.8731 2.36315 15.9425 2.24839C16.0581 2.03036 16.0465 2.03036 15.4569 2.22544C14.4742 2.5697 14.3355 2.5238 14.8211 2.00741C15.1794 1.64021 15.6072 0.974642 15.6072 0.779563C15.6072 0.745137 15.4338 0.802513 15.2372 0.90579C15.0291 1.02054 14.5667 1.19267 14.2199 1.29595L13.5956 1.49103L13.0291 1.11234C12.717 0.90579 12.2777 0.676285 12.0464 0.607434C11.4568 0.446781 10.5551 0.469731 10.0233 0.653335C8.57817 1.16972 7.66486 2.50085 7.76891 3.9582Z" fill="#E1E7EC"/>
</svg>
