<svg width="27" height="25" viewBox="0 0 27 25" fill="none" xmlns="http://www.w3.org/2000/svg">
<path fill-rule="evenodd" clip-rule="evenodd" d="M14.6582 0.683869C14.1434 -0.217539 12.8566 -0.21754 12.3418 0.683869L0.181163 21.9796C-0.333575 22.8811 0.309847 24.0078 1.33932 24.0078H25.6607C26.6901 24.0078 27.3336 22.8811 26.8188 21.9796L14.6582 0.683869ZM13.5102 5.4375C12.7991 5.4375 12.2303 6.0284 12.2575 6.73901L12.5895 15.4158C12.6083 15.9056 13.0108 16.293 13.501 16.293C13.9904 16.293 14.3926 15.9068 14.4123 15.4177L14.7627 6.74167C14.7915 6.03007 14.2224 5.4375 13.5102 5.4375ZM12.4385 21.0296C12.7308 21.3015 13.0923 21.4375 13.5231 21.4375C13.9385 21.4375 14.2846 21.3015 14.5616 21.0296C14.8539 20.7425 15 20.395 15 19.9871C15 19.5791 14.8616 19.2392 14.5846 18.9672C14.3077 18.6802 13.9539 18.5366 13.5231 18.5366C13.0923 18.5366 12.7308 18.6802 12.4385 18.9672C12.1462 19.2392 12 19.5791 12 19.9871C12 20.395 12.1462 20.7425 12.4385 21.0296Z" fill="#E1E7EC"/>
</svg>
