<svg width="461" height="34" viewBox="0 0 461 34" fill="none" xmlns="http://www.w3.org/2000/svg">
<path d="M460 33H460.5V33.5H460V33ZM4 33V33.5H3.5V33H4ZM3.64645 0.646447C3.84171 0.451184 4.15829 0.451184 4.35355 0.646447L7.53552 3.82843C7.7308 4.02369 7.7308 4.34027 7.53552 4.53553C7.34027 4.7308 7.02368 4.7308 6.82843 4.53553L4 1.70711L1.17157 4.53553C0.976318 4.7308 0.659729 4.7308 0.464478 4.53553C0.269196 4.34027 0.269196 4.02369 0.464478 3.82843L3.64645 0.646447ZM460.5 1V33H459.5V1H460.5ZM460 33.5H4V32.5H460V33.5ZM3.5 33V1H4.5V33H3.5Z" fill="#2C2F32"/>
</svg>
