<svg width="644" height="1280" viewBox="0 0 644 1280" fill="none" xmlns="http://www.w3.org/2000/svg">
<g clip-path="url(#clip0_1016_27815)">
<rect width="644" height="1280" fill="#121719"/>
<path d="M717 108.5L-27.1327 1096.75M-9.69908 1106.09L680 -12.5M717 578L-62 940.42M-62 258L873 666.5M-37.7174 1037.27L330.5 -147M-9.69908 136.5L179.5 1106.09M-27.1327 388.5L522 1106.09M56.611 1157.17L845.5 614.5" stroke="#0E3E54"/>
<path d="M714 904L-19.8291 738.897M584.5 -32L96.3435 1088.89M537.893 1069.18L-54.1178 892.912M722.774 594.815L261.828 1069.18M-150 1088.89L679.996 729.693M367.272 1088.89L-19.8291 17M-19.8291 653.5L714 122.5M-40.6472 858.243L261.828 1181" stroke="#862227"/>
</g>
<defs>
<clipPath id="clip0_1016_27815">
<rect width="644" height="1280" fill="white"/>
</clipPath>
</defs>
</svg>
