<svg width="800" height="134" viewBox="0 0 800 134" fill="none" xmlns="http://www.w3.org/2000/svg">
<path d="M29.138 31.58C30.062 31.58 30.7947 31.8507 31.336 32.392C31.8867 32.924 32.162 33.7033 32.162 34.73V39H31.168V34.828C31.168 34.0627 30.9767 33.4793 30.594 33.078C30.2113 32.6767 29.6653 32.476 28.956 32.476C28.1627 32.476 27.5327 32.714 27.066 33.19C26.6087 33.6567 26.38 34.3053 26.38 35.136V39H25.386V31.636H26.338V32.994C26.6087 32.546 26.982 32.2007 27.458 31.958C27.9433 31.706 28.5033 31.58 29.138 31.58ZM41.3 35.626H35.14C35.196 36.3913 35.49 37.012 36.022 37.488C36.554 37.9547 37.226 38.188 38.038 38.188C38.4953 38.188 38.9153 38.1087 39.298 37.95C39.6806 37.782 40.012 37.5393 40.292 37.222L40.852 37.866C40.5253 38.258 40.1146 38.5567 39.62 38.762C39.1346 38.9673 38.598 39.07 38.01 39.07C37.254 39.07 36.582 38.9113 35.994 38.594C35.4153 38.2673 34.9626 37.8193 34.636 37.25C34.3093 36.6807 34.146 36.0367 34.146 35.318C34.146 34.5993 34.3 33.9553 34.608 33.386C34.9253 32.8167 35.3546 32.3733 35.896 32.056C36.4466 31.7387 37.0626 31.58 37.744 31.58C38.4253 31.58 39.0366 31.7387 39.578 32.056C40.1193 32.3733 40.544 32.8167 40.852 33.386C41.16 33.946 41.314 34.59 41.314 35.318L41.3 35.626ZM37.744 32.434C37.0346 32.434 36.4373 32.6627 35.952 33.12C35.476 33.568 35.2053 34.156 35.14 34.884H40.362C40.2966 34.156 40.0213 33.568 39.536 33.12C39.06 32.6627 38.4626 32.434 37.744 32.434ZM49.9732 31.636V39H49.0212V37.656C48.7598 38.104 48.4005 38.454 47.9432 38.706C47.4858 38.9487 46.9632 39.07 46.3752 39.07C45.4138 39.07 44.6532 38.804 44.0932 38.272C43.5425 37.7307 43.2672 36.942 43.2672 35.906V31.636H44.2612V35.808C44.2612 36.5827 44.4525 37.1707 44.8352 37.572C45.2178 37.9733 45.7638 38.174 46.4732 38.174C47.2478 38.174 47.8592 37.9407 48.3072 37.474C48.7552 36.998 48.9792 36.34 48.9792 35.5V31.636H49.9732ZM53.7091 33.078C53.9424 32.5833 54.2878 32.21 54.7451 31.958C55.2118 31.706 55.7858 31.58 56.4671 31.58V32.546L56.2291 32.532C55.4544 32.532 54.8478 32.77 54.4091 33.246C53.9704 33.722 53.7511 34.3893 53.7511 35.248V39H52.7571V31.636H53.7091V33.078ZM61.2085 39.07C60.4992 39.07 59.8598 38.9113 59.2905 38.594C58.7212 38.2673 58.2732 37.8193 57.9465 37.25C57.6198 36.6807 57.4565 36.0367 57.4565 35.318C57.4565 34.5993 57.6198 33.9553 57.9465 33.386C58.2732 32.8167 58.7212 32.3733 59.2905 32.056C59.8598 31.7387 60.4992 31.58 61.2085 31.58C61.9178 31.58 62.5572 31.7387 63.1265 32.056C63.6958 32.3733 64.1392 32.8167 64.4565 33.386C64.7832 33.9553 64.9465 34.5993 64.9465 35.318C64.9465 36.0367 64.7832 36.6807 64.4565 37.25C64.1392 37.8193 63.6958 38.2673 63.1265 38.594C62.5572 38.9113 61.9178 39.07 61.2085 39.07ZM61.2085 38.188C61.7312 38.188 62.1978 38.0713 62.6085 37.838C63.0285 37.5953 63.3552 37.2547 63.5885 36.816C63.8218 36.3773 63.9385 35.878 63.9385 35.318C63.9385 34.758 63.8218 34.2587 63.5885 33.82C63.3552 33.3813 63.0285 33.0453 62.6085 32.812C62.1978 32.5693 61.7312 32.448 61.2085 32.448C60.6858 32.448 60.2145 32.5693 59.7945 32.812C59.3838 33.0453 59.0572 33.3813 58.8145 33.82C58.5812 34.2587 58.4645 34.758 58.4645 35.318C58.4645 35.878 58.5812 36.3773 58.8145 36.816C59.0572 37.2547 59.3838 37.5953 59.7945 37.838C60.2145 38.0713 60.6858 38.188 61.2085 38.188ZM70.7278 31.58C71.6518 31.58 72.3845 31.8507 72.9258 32.392C73.4765 32.924 73.7518 33.7033 73.7518 34.73V39H72.7578V34.828C72.7578 34.0627 72.5665 33.4793 72.1838 33.078C71.8012 32.6767 71.2552 32.476 70.5458 32.476C69.7525 32.476 69.1225 32.714 68.6558 33.19C68.1985 33.6567 67.9698 34.3053 67.9698 35.136V39H66.9758V31.636H67.9278V32.994C68.1985 32.546 68.5718 32.2007 69.0478 31.958C69.5332 31.706 70.0932 31.58 70.7278 31.58ZM82.8898 35.626H76.7298C76.7858 36.3913 77.0798 37.012 77.6118 37.488C78.1438 37.9547 78.8158 38.188 79.6278 38.188C80.0851 38.188 80.5051 38.1087 80.8878 37.95C81.2705 37.782 81.6018 37.5393 81.8818 37.222L82.4418 37.866C82.1151 38.258 81.7045 38.5567 81.2098 38.762C80.7245 38.9673 80.1878 39.07 79.5998 39.07C78.8438 39.07 78.1718 38.9113 77.5838 38.594C77.0051 38.2673 76.5525 37.8193 76.2258 37.25C75.8991 36.6807 75.7358 36.0367 75.7358 35.318C75.7358 34.5993 75.8898 33.9553 76.1978 33.386C76.5151 32.8167 76.9445 32.3733 77.4858 32.056C78.0365 31.7387 78.6525 31.58 79.3338 31.58C80.0151 31.58 80.6265 31.7387 81.1678 32.056C81.7091 32.3733 82.1338 32.8167 82.4418 33.386C82.7498 33.946 82.9038 34.59 82.9038 35.318L82.8898 35.626ZM79.3338 32.434C78.6245 32.434 78.0271 32.6627 77.5418 33.12C77.0658 33.568 76.7951 34.156 76.7298 34.884H81.9518C81.8865 34.156 81.6111 33.568 81.1258 33.12C80.6498 32.6627 80.0525 32.434 79.3338 32.434ZM88.805 38.552C88.6183 38.72 88.385 38.8507 88.105 38.944C87.8343 39.028 87.5497 39.07 87.251 39.07C86.5603 39.07 86.0283 38.8833 85.655 38.51C85.2817 38.1367 85.095 37.6093 85.095 36.928V32.476H83.779V31.636H85.095V30.026H86.089V31.636H88.329V32.476H86.089V36.872C86.089 37.3107 86.1963 37.6467 86.411 37.88C86.635 38.104 86.9523 38.216 87.363 38.216C87.5683 38.216 87.7643 38.1833 87.951 38.118C88.147 38.0527 88.315 37.9593 88.455 37.838L88.805 38.552ZM98.1566 38.552C97.9699 38.72 97.7366 38.8507 97.4566 38.944C97.1859 39.028 96.9012 39.07 96.6026 39.07C95.9119 39.07 95.3799 38.8833 95.0066 38.51C94.6332 38.1367 94.4466 37.6093 94.4466 36.928V32.476H93.1306V31.636H94.4466V30.026H95.4406V31.636H97.6806V32.476H95.4406V36.872C95.4406 37.3107 95.5479 37.6467 95.7626 37.88C95.9866 38.104 96.3039 38.216 96.7146 38.216C96.9199 38.216 97.1159 38.1833 97.3026 38.118C97.4986 38.0527 97.6666 37.9593 97.8066 37.838L98.1566 38.552ZM100.918 33.078C101.151 32.5833 101.497 32.21 101.954 31.958C102.421 31.706 102.995 31.58 103.676 31.58V32.546L103.438 32.532C102.663 32.532 102.057 32.77 101.618 33.246C101.179 33.722 100.96 34.3893 100.96 35.248V39H99.9661V31.636H100.918V33.078ZM108.038 31.58C109 31.58 109.737 31.8227 110.25 32.308C110.764 32.784 111.02 33.4933 111.02 34.436V39H110.068V37.852C109.844 38.2347 109.513 38.5333 109.074 38.748C108.645 38.9627 108.132 39.07 107.534 39.07C106.713 39.07 106.06 38.874 105.574 38.482C105.089 38.09 104.846 37.572 104.846 36.928C104.846 36.3027 105.07 35.7987 105.518 35.416C105.976 35.0333 106.699 34.842 107.688 34.842H110.026V34.394C110.026 33.7593 109.849 33.2787 109.494 32.952C109.14 32.616 108.622 32.448 107.94 32.448C107.474 32.448 107.026 32.5273 106.596 32.686C106.167 32.8353 105.798 33.0453 105.49 33.316L105.042 32.574C105.416 32.2567 105.864 32.014 106.386 31.846C106.909 31.6687 107.46 31.58 108.038 31.58ZM107.688 38.286C108.248 38.286 108.729 38.16 109.13 37.908C109.532 37.6467 109.83 37.2733 110.026 36.788V35.584H107.716C106.456 35.584 105.826 36.0227 105.826 36.9C105.826 37.3293 105.99 37.67 106.316 37.922C106.643 38.1647 107.1 38.286 107.688 38.286ZM113.72 31.636H114.714V39H113.72V31.636ZM114.224 30.026C114.019 30.026 113.846 29.956 113.706 29.816C113.566 29.676 113.496 29.508 113.496 29.312C113.496 29.1253 113.566 28.962 113.706 28.822C113.846 28.682 114.019 28.612 114.224 28.612C114.429 28.612 114.602 28.682 114.742 28.822C114.882 28.9527 114.952 29.1113 114.952 29.298C114.952 29.5033 114.882 29.676 114.742 29.816C114.602 29.956 114.429 30.026 114.224 30.026ZM121.232 31.58C122.156 31.58 122.888 31.8507 123.43 32.392C123.98 32.924 124.256 33.7033 124.256 34.73V39H123.262V34.828C123.262 34.0627 123.07 33.4793 122.688 33.078C122.305 32.6767 121.759 32.476 121.05 32.476C120.256 32.476 119.626 32.714 119.16 33.19C118.702 33.6567 118.474 34.3053 118.474 35.136V39H117.48V31.636H118.432V32.994C118.702 32.546 119.076 32.2007 119.552 31.958C120.037 31.706 120.597 31.58 121.232 31.58ZM126.954 31.636H127.948V39H126.954V31.636ZM127.458 30.026C127.253 30.026 127.08 29.956 126.94 29.816C126.8 29.676 126.73 29.508 126.73 29.312C126.73 29.1253 126.8 28.962 126.94 28.822C127.08 28.682 127.253 28.612 127.458 28.612C127.664 28.612 127.836 28.682 127.976 28.822C128.116 28.9527 128.186 29.1113 128.186 29.298C128.186 29.5033 128.116 29.676 127.976 29.816C127.836 29.956 127.664 30.026 127.458 30.026ZM134.466 31.58C135.39 31.58 136.123 31.8507 136.664 32.392C137.215 32.924 137.49 33.7033 137.49 34.73V39H136.496V34.828C136.496 34.0627 136.305 33.4793 135.922 33.078C135.539 32.6767 134.993 32.476 134.284 32.476C133.491 32.476 132.861 32.714 132.394 33.19C131.937 33.6567 131.708 34.3053 131.708 35.136V39H130.714V31.636H131.666V32.994C131.937 32.546 132.31 32.2007 132.786 31.958C133.271 31.706 133.831 31.58 134.466 31.58ZM147.034 31.636V38.104C147.034 39.3547 146.726 40.2787 146.11 40.876C145.503 41.4827 144.584 41.786 143.352 41.786C142.671 41.786 142.022 41.6833 141.406 41.478C140.799 41.282 140.305 41.0067 139.922 40.652L140.426 39.896C140.781 40.2133 141.21 40.4607 141.714 40.638C142.227 40.8153 142.764 40.904 143.324 40.904C144.257 40.904 144.943 40.6847 145.382 40.246C145.821 39.8167 146.04 39.1447 146.04 38.23V37.292C145.732 37.7587 145.326 38.1133 144.822 38.356C144.327 38.5987 143.777 38.72 143.17 38.72C142.479 38.72 141.849 38.5707 141.28 38.272C140.72 37.964 140.277 37.5393 139.95 36.998C139.633 36.4473 139.474 35.8267 139.474 35.136C139.474 34.4453 139.633 33.8293 139.95 33.288C140.277 32.7467 140.72 32.3267 141.28 32.028C141.84 31.7293 142.47 31.58 143.17 31.58C143.795 31.58 144.36 31.706 144.864 31.958C145.368 32.21 145.774 32.574 146.082 33.05V31.636H147.034ZM143.268 37.838C143.8 37.838 144.281 37.726 144.71 37.502C145.139 37.2687 145.471 36.9467 145.704 36.536C145.947 36.1253 146.068 35.6587 146.068 35.136C146.068 34.6133 145.947 34.1513 145.704 33.75C145.471 33.3393 145.139 33.022 144.71 32.798C144.29 32.5647 143.809 32.448 143.268 32.448C142.736 32.448 142.255 32.56 141.826 32.784C141.406 33.008 141.075 33.3253 140.832 33.736C140.599 34.1467 140.482 34.6133 140.482 35.136C140.482 35.6587 140.599 36.1253 140.832 36.536C141.075 36.9467 141.406 37.2687 141.826 37.502C142.255 37.726 142.736 37.838 143.268 37.838ZM29.18 48.58C29.8707 48.58 30.496 48.7387 31.056 49.056C31.616 49.364 32.0547 49.8027 32.372 50.372C32.6893 50.9413 32.848 51.59 32.848 52.318C32.848 53.046 32.6893 53.6947 32.372 54.264C32.0547 54.8333 31.616 55.2767 31.056 55.594C30.496 55.9113 29.8707 56.07 29.18 56.07C28.564 56.07 28.0087 55.9393 27.514 55.678C27.0287 55.4167 26.6367 55.0387 26.338 54.544V56H25.386V45.612H26.38V50.036C26.688 49.56 27.08 49.2007 27.556 48.958C28.0413 48.706 28.5827 48.58 29.18 48.58ZM29.11 55.188C29.6233 55.188 30.09 55.0713 30.51 54.838C30.93 54.5953 31.2567 54.2547 31.49 53.816C31.7327 53.3773 31.854 52.878 31.854 52.318C31.854 51.758 31.7327 51.2587 31.49 50.82C31.2567 50.3813 30.93 50.0453 30.51 49.812C30.09 49.5693 29.6233 49.448 29.11 49.448C28.5873 49.448 28.116 49.5693 27.696 49.812C27.2853 50.0453 26.9587 50.3813 26.716 50.82C26.4827 51.2587 26.366 51.758 26.366 52.318C26.366 52.878 26.4827 53.3773 26.716 53.816C26.9587 54.2547 27.2853 54.5953 27.696 54.838C28.116 55.0713 28.5873 55.188 29.11 55.188ZM37.4093 48.58C38.3706 48.58 39.1079 48.8227 39.6213 49.308C40.1346 49.784 40.3913 50.4933 40.3913 51.436V56H39.4393V54.852C39.2153 55.2347 38.8839 55.5333 38.4453 55.748C38.0159 55.9627 37.5026 56.07 36.9053 56.07C36.0839 56.07 35.4306 55.874 34.9453 55.482C34.4599 55.09 34.2173 54.572 34.2173 53.928C34.2173 53.3027 34.4413 52.7987 34.8893 52.416C35.3466 52.0333 36.0699 51.842 37.0593 51.842H39.3973V51.394C39.3973 50.7593 39.2199 50.2787 38.8653 49.952C38.5106 49.616 37.9926 49.448 37.3113 49.448C36.8446 49.448 36.3966 49.5273 35.9673 49.686C35.5379 49.8353 35.1693 50.0453 34.8613 50.316L34.4133 49.574C34.7866 49.2567 35.2346 49.014 35.7573 48.846C36.2799 48.6687 36.8306 48.58 37.4093 48.58ZM37.0593 55.286C37.6193 55.286 38.0999 55.16 38.5013 54.908C38.9026 54.6467 39.2013 54.2733 39.3973 53.788V52.584H37.0873C35.8273 52.584 35.1973 53.0227 35.1973 53.9C35.1973 54.3293 35.3606 54.67 35.6873 54.922C36.0139 55.1647 36.4713 55.286 37.0593 55.286ZM45.0651 56.07C44.4677 56.07 43.8937 55.986 43.3431 55.818C42.8017 55.6407 42.3771 55.4213 42.0691 55.16L42.5171 54.376C42.8251 54.6187 43.2124 54.8193 43.6791 54.978C44.1457 55.1273 44.6311 55.202 45.1351 55.202C45.8071 55.202 46.3017 55.0993 46.6191 54.894C46.9457 54.6793 47.1091 54.3807 47.1091 53.998C47.1091 53.7273 47.0204 53.5173 46.8431 53.368C46.6657 53.2093 46.4417 53.0927 46.1711 53.018C45.9004 52.934 45.5411 52.8547 45.0931 52.78C44.4957 52.668 44.0151 52.556 43.6511 52.444C43.2871 52.3227 42.9744 52.122 42.7131 51.842C42.4611 51.562 42.3351 51.1747 42.3351 50.68C42.3351 50.064 42.5917 49.56 43.1051 49.168C43.6184 48.776 44.3324 48.58 45.2471 48.58C45.7231 48.58 46.1991 48.6453 46.6751 48.776C47.1511 48.8973 47.5431 49.0607 47.8511 49.266L47.4171 50.064C46.8104 49.644 46.0871 49.434 45.2471 49.434C44.6124 49.434 44.1317 49.546 43.8051 49.77C43.4877 49.994 43.3291 50.288 43.3291 50.652C43.3291 50.932 43.4177 51.156 43.5951 51.324C43.7817 51.492 44.0104 51.618 44.2811 51.702C44.5517 51.7767 44.9251 51.856 45.4011 51.94C45.9891 52.052 46.4604 52.164 46.8151 52.276C47.1697 52.388 47.4731 52.5793 47.7251 52.85C47.9771 53.1207 48.1031 53.494 48.1031 53.97C48.1031 54.614 47.8324 55.1273 47.2911 55.51C46.7591 55.8833 46.0171 56.07 45.0651 56.07ZM56.3527 52.626H50.1927C50.2487 53.3913 50.5427 54.012 51.0747 54.488C51.6067 54.9547 52.2787 55.188 53.0907 55.188C53.548 55.188 53.968 55.1087 54.3507 54.95C54.7334 54.782 55.0647 54.5393 55.3447 54.222L55.9047 54.866C55.578 55.258 55.1674 55.5567 54.6727 55.762C54.1874 55.9673 53.6507 56.07 53.0627 56.07C52.3067 56.07 51.6347 55.9113 51.0467 55.594C50.468 55.2673 50.0154 54.8193 49.6887 54.25C49.362 53.6807 49.1987 53.0367 49.1987 52.318C49.1987 51.5993 49.3527 50.9553 49.6607 50.386C49.978 49.8167 50.4074 49.3733 50.9487 49.056C51.4994 48.7387 52.1154 48.58 52.7967 48.58C53.478 48.58 54.0894 48.7387 54.6307 49.056C55.172 49.3733 55.5967 49.8167 55.9047 50.386C56.2127 50.946 56.3667 51.59 56.3667 52.318L56.3527 52.626ZM52.7967 49.434C52.0874 49.434 51.49 49.6627 51.0047 50.12C50.5287 50.568 50.258 51.156 50.1927 51.884H55.4147C55.3494 51.156 55.074 50.568 54.5887 50.12C54.1127 49.6627 53.5154 49.434 52.7967 49.434ZM65.1099 45.612V56H64.1579V54.544C63.8592 55.0387 63.4626 55.4167 62.9679 55.678C62.4826 55.9393 61.9319 56.07 61.3159 56.07C60.6252 56.07 59.9999 55.9113 59.4399 55.594C58.8799 55.2767 58.4412 54.8333 58.1239 54.264C57.8066 53.6947 57.6479 53.046 57.6479 52.318C57.6479 51.59 57.8066 50.9413 58.1239 50.372C58.4412 49.8027 58.8799 49.364 59.4399 49.056C59.9999 48.7387 60.6252 48.58 61.3159 48.58C61.9132 48.58 62.4499 48.706 62.9259 48.958C63.4112 49.2007 63.8079 49.56 64.1159 50.036V45.612H65.1099ZM61.3999 55.188C61.9132 55.188 62.3752 55.0713 62.7859 54.838C63.2059 54.5953 63.5326 54.2547 63.7659 53.816C64.0086 53.3773 64.1299 52.878 64.1299 52.318C64.1299 51.758 64.0086 51.2587 63.7659 50.82C63.5326 50.3813 63.2059 50.0453 62.7859 49.812C62.3752 49.5693 61.9132 49.448 61.3999 49.448C60.8772 49.448 60.4059 49.5693 59.9859 49.812C59.5752 50.0453 59.2486 50.3813 59.0059 50.82C58.7726 51.2587 58.6559 51.758 58.6559 52.318C58.6559 52.878 58.7726 53.3773 59.0059 53.816C59.2486 54.2547 59.5752 54.5953 59.9859 54.838C60.4059 55.0713 60.8772 55.188 61.3999 55.188ZM74.5523 56.07C73.8429 56.07 73.2036 55.9113 72.6343 55.594C72.0649 55.2673 71.6169 54.8193 71.2903 54.25C70.9636 53.6807 70.8003 53.0367 70.8003 52.318C70.8003 51.5993 70.9636 50.9553 71.2903 50.386C71.6169 49.8167 72.0649 49.3733 72.6343 49.056C73.2036 48.7387 73.8429 48.58 74.5523 48.58C75.2616 48.58 75.9009 48.7387 76.4703 49.056C77.0396 49.3733 77.4829 49.8167 77.8003 50.386C78.1269 50.9553 78.2903 51.5993 78.2903 52.318C78.2903 53.0367 78.1269 53.6807 77.8003 54.25C77.4829 54.8193 77.0396 55.2673 76.4703 55.594C75.9009 55.9113 75.2616 56.07 74.5523 56.07ZM74.5523 55.188C75.0749 55.188 75.5416 55.0713 75.9523 54.838C76.3723 54.5953 76.6989 54.2547 76.9323 53.816C77.1656 53.3773 77.2823 52.878 77.2823 52.318C77.2823 51.758 77.1656 51.2587 76.9323 50.82C76.6989 50.3813 76.3723 50.0453 75.9523 49.812C75.5416 49.5693 75.0749 49.448 74.5523 49.448C74.0296 49.448 73.5583 49.5693 73.1383 49.812C72.7276 50.0453 72.4009 50.3813 72.1583 50.82C71.9249 51.2587 71.8083 51.758 71.8083 52.318C71.8083 52.878 71.9249 53.3773 72.1583 53.816C72.4009 54.2547 72.7276 54.5953 73.1383 54.838C73.5583 55.0713 74.0296 55.188 74.5523 55.188ZM84.0716 48.58C84.9956 48.58 85.7283 48.8507 86.2696 49.392C86.8203 49.924 87.0956 50.7033 87.0956 51.73V56H86.1016V51.828C86.1016 51.0627 85.9103 50.4793 85.5276 50.078C85.1449 49.6767 84.5989 49.476 83.8896 49.476C83.0963 49.476 82.4663 49.714 81.9996 50.19C81.5423 50.6567 81.3136 51.3053 81.3136 52.136V56H80.3196V48.636H81.2716V49.994C81.5423 49.546 81.9156 49.2007 82.3916 48.958C82.8769 48.706 83.4369 48.58 84.0716 48.58ZM29.138 65.58C30.062 65.58 30.7947 65.8507 31.336 66.392C31.8867 66.924 32.162 67.7033 32.162 68.73V73H31.168V68.828C31.168 68.0627 30.9767 67.4793 30.594 67.078C30.2113 66.6767 29.6653 66.476 28.956 66.476C28.1627 66.476 27.5327 66.714 27.066 67.19C26.6087 67.6567 26.38 68.3053 26.38 69.136V73H25.386V62.612H26.38V66.924C26.6507 66.4947 27.024 66.1633 27.5 65.93C27.976 65.6967 28.522 65.58 29.138 65.58ZM34.8606 65.636H35.8546V73H34.8606V65.636ZM35.3646 64.026C35.1593 64.026 34.9866 63.956 34.8466 63.816C34.7066 63.676 34.6366 63.508 34.6366 63.312C34.6366 63.1253 34.7066 62.962 34.8466 62.822C34.9866 62.682 35.1593 62.612 35.3646 62.612C35.5699 62.612 35.7426 62.682 35.8826 62.822C36.0226 62.9527 36.0926 63.1113 36.0926 63.298C36.0926 63.5033 36.0226 63.676 35.8826 63.816C35.7426 63.956 35.5699 64.026 35.3646 64.026ZM40.5944 73.07C39.997 73.07 39.423 72.986 38.8724 72.818C38.331 72.6407 37.9064 72.4213 37.5984 72.16L38.0464 71.376C38.3544 71.6187 38.7417 71.8193 39.2084 71.978C39.675 72.1273 40.1604 72.202 40.6644 72.202C41.3364 72.202 41.831 72.0993 42.1484 71.894C42.475 71.6793 42.6384 71.3807 42.6384 70.998C42.6384 70.7273 42.5497 70.5173 42.3724 70.368C42.195 70.2093 41.971 70.0927 41.7004 70.018C41.4297 69.934 41.0704 69.8547 40.6224 69.78C40.025 69.668 39.5444 69.556 39.1804 69.444C38.8164 69.3227 38.5037 69.122 38.2424 68.842C37.9904 68.562 37.8644 68.1747 37.8644 67.68C37.8644 67.064 38.121 66.56 38.6344 66.168C39.1477 65.776 39.8617 65.58 40.7764 65.58C41.2524 65.58 41.7284 65.6453 42.2044 65.776C42.6804 65.8973 43.0724 66.0607 43.3804 66.266L42.9464 67.064C42.3397 66.644 41.6164 66.434 40.7764 66.434C40.1417 66.434 39.661 66.546 39.3344 66.77C39.017 66.994 38.8584 67.288 38.8584 67.652C38.8584 67.932 38.947 68.156 39.1244 68.324C39.311 68.492 39.5397 68.618 39.8104 68.702C40.081 68.7767 40.4544 68.856 40.9304 68.94C41.5184 69.052 41.9897 69.164 42.3444 69.276C42.699 69.388 43.0024 69.5793 43.2544 69.85C43.5064 70.1207 43.6324 70.494 43.6324 70.97C43.6324 71.614 43.3617 72.1273 42.8204 72.51C42.2884 72.8833 41.5464 73.07 40.5944 73.07ZM49.348 72.552C49.1613 72.72 48.928 72.8507 48.648 72.944C48.3773 73.028 48.0927 73.07 47.794 73.07C47.1033 73.07 46.5713 72.8833 46.198 72.51C45.8247 72.1367 45.638 71.6093 45.638 70.928V66.476H44.322V65.636H45.638V64.026H46.632V65.636H48.872V66.476H46.632V70.872C46.632 71.3107 46.7393 71.6467 46.954 71.88C47.178 72.104 47.4953 72.216 47.906 72.216C48.1113 72.216 48.3073 72.1833 48.494 72.118C48.69 72.0527 48.858 71.9593 48.998 71.838L49.348 72.552ZM53.9077 73.07C53.1984 73.07 52.5591 72.9113 51.9897 72.594C51.4204 72.2673 50.9724 71.8193 50.6457 71.25C50.3191 70.6807 50.1557 70.0367 50.1557 69.318C50.1557 68.5993 50.3191 67.9553 50.6457 67.386C50.9724 66.8167 51.4204 66.3733 51.9897 66.056C52.5591 65.7387 53.1984 65.58 53.9077 65.58C54.6171 65.58 55.2564 65.7387 55.8257 66.056C56.3951 66.3733 56.8384 66.8167 57.1557 67.386C57.4824 67.9553 57.6457 68.5993 57.6457 69.318C57.6457 70.0367 57.4824 70.6807 57.1557 71.25C56.8384 71.8193 56.3951 72.2673 55.8257 72.594C55.2564 72.9113 54.6171 73.07 53.9077 73.07ZM53.9077 72.188C54.4304 72.188 54.8971 72.0713 55.3077 71.838C55.7277 71.5953 56.0544 71.2547 56.2877 70.816C56.5211 70.3773 56.6377 69.878 56.6377 69.318C56.6377 68.758 56.5211 68.2587 56.2877 67.82C56.0544 67.3813 55.7277 67.0453 55.3077 66.812C54.8971 66.5693 54.4304 66.448 53.9077 66.448C53.3851 66.448 52.9137 66.5693 52.4937 66.812C52.0831 67.0453 51.7564 67.3813 51.5137 67.82C51.2804 68.2587 51.1637 68.758 51.1637 69.318C51.1637 69.878 51.2804 70.3773 51.5137 70.816C51.7564 71.2547 52.0831 71.5953 52.4937 71.838C52.9137 72.0713 53.3851 72.188 53.9077 72.188ZM60.6271 67.078C60.8604 66.5833 61.2057 66.21 61.6631 65.958C62.1297 65.706 62.7037 65.58 63.3851 65.58V66.546L63.1471 66.532C62.3724 66.532 61.7657 66.77 61.3271 67.246C60.8884 67.722 60.6691 68.3893 60.6691 69.248V73H59.6751V65.636H60.6271V67.078ZM65.1848 65.636H66.1788V73H65.1848V65.636ZM65.6888 64.026C65.4835 64.026 65.3108 63.956 65.1708 63.816C65.0308 63.676 64.9608 63.508 64.9608 63.312C64.9608 63.1253 65.0308 62.962 65.1708 62.822C65.3108 62.682 65.4835 62.612 65.6888 62.612C65.8942 62.612 66.0668 62.682 66.2068 62.822C66.3468 62.9527 66.4168 63.1113 66.4168 63.298C66.4168 63.5033 66.3468 63.676 66.2068 63.816C66.0668 63.956 65.8942 64.026 65.6888 64.026ZM71.9966 73.07C71.2686 73.07 70.6153 72.9113 70.0366 72.594C69.4673 72.2767 69.0193 71.8333 68.6926 71.264C68.3659 70.6853 68.2026 70.0367 68.2026 69.318C68.2026 68.5993 68.3659 67.9553 68.6926 67.386C69.0193 66.8167 69.4673 66.3733 70.0366 66.056C70.6153 65.7387 71.2686 65.58 71.9966 65.58C72.6313 65.58 73.1959 65.706 73.6906 65.958C74.1946 66.2007 74.5913 66.56 74.8806 67.036L74.1386 67.54C73.8959 67.176 73.5879 66.9053 73.2146 66.728C72.8413 66.5413 72.4353 66.448 71.9966 66.448C71.4646 66.448 70.9839 66.5693 70.5546 66.812C70.1346 67.0453 69.8033 67.3813 69.5606 67.82C69.3273 68.2587 69.2106 68.758 69.2106 69.318C69.2106 69.8873 69.3273 70.3913 69.5606 70.83C69.8033 71.2593 70.1346 71.5953 70.5546 71.838C70.9839 72.0713 71.4646 72.188 71.9966 72.188C72.4353 72.188 72.8413 72.0993 73.2146 71.922C73.5879 71.7447 73.8959 71.474 74.1386 71.11L74.8806 71.614C74.5913 72.09 74.1946 72.454 73.6906 72.706C73.1866 72.9487 72.6219 73.07 71.9966 73.07ZM79.4093 65.58C80.3706 65.58 81.1079 65.8227 81.6213 66.308C82.1346 66.784 82.3913 67.4933 82.3913 68.436V73H81.4393V71.852C81.2153 72.2347 80.8839 72.5333 80.4453 72.748C80.0159 72.9627 79.5026 73.07 78.9053 73.07C78.0839 73.07 77.4306 72.874 76.9453 72.482C76.4599 72.09 76.2173 71.572 76.2173 70.928C76.2173 70.3027 76.4413 69.7987 76.8893 69.416C77.3466 69.0333 78.0699 68.842 79.0593 68.842H81.3973V68.394C81.3973 67.7593 81.2199 67.2787 80.8653 66.952C80.5106 66.616 79.9926 66.448 79.3113 66.448C78.8446 66.448 78.3966 66.5273 77.9673 66.686C77.5379 66.8353 77.1693 67.0453 76.8613 67.316L76.4133 66.574C76.7866 66.2567 77.2346 66.014 77.7573 65.846C78.2799 65.6687 78.8306 65.58 79.4093 65.58ZM79.0593 72.286C79.6193 72.286 80.0999 72.16 80.5013 71.908C80.9026 71.6467 81.2013 71.2733 81.3973 70.788V69.584H79.0873C77.8273 69.584 77.1973 70.0227 77.1973 70.9C77.1973 71.3293 77.3606 71.67 77.6873 71.922C78.0139 72.1647 78.4713 72.286 79.0593 72.286ZM85.0911 62.612H86.0851V73H85.0911V62.612ZM99.2349 62.612V73H98.2829V71.544C97.9842 72.0387 97.5876 72.4167 97.0929 72.678C96.6076 72.9393 96.0569 73.07 95.4409 73.07C94.7502 73.07 94.1249 72.9113 93.5649 72.594C93.0049 72.2767 92.5662 71.8333 92.2489 71.264C91.9316 70.6947 91.7729 70.046 91.7729 69.318C91.7729 68.59 91.9316 67.9413 92.2489 67.372C92.5662 66.8027 93.0049 66.364 93.5649 66.056C94.1249 65.7387 94.7502 65.58 95.4409 65.58C96.0382 65.58 96.5749 65.706 97.0509 65.958C97.5362 66.2007 97.9329 66.56 98.2409 67.036V62.612H99.2349ZM95.5249 72.188C96.0382 72.188 96.5002 72.0713 96.9109 71.838C97.3309 71.5953 97.6576 71.2547 97.8909 70.816C98.1336 70.3773 98.2549 69.878 98.2549 69.318C98.2549 68.758 98.1336 68.2587 97.8909 67.82C97.6576 67.3813 97.3309 67.0453 96.9109 66.812C96.5002 66.5693 96.0382 66.448 95.5249 66.448C95.0022 66.448 94.5309 66.5693 94.1109 66.812C93.7002 67.0453 93.3736 67.3813 93.1309 67.82C92.8976 68.2587 92.7809 68.758 92.7809 69.318C92.7809 69.878 92.8976 70.3773 93.1309 70.816C93.3736 71.2547 93.7002 71.5953 94.1109 71.838C94.5309 72.0713 95.0022 72.188 95.5249 72.188ZM104.579 65.58C105.541 65.58 106.278 65.8227 106.791 66.308C107.305 66.784 107.561 67.4933 107.561 68.436V73H106.609V71.852C106.385 72.2347 106.054 72.5333 105.615 72.748C105.186 72.9627 104.673 73.07 104.075 73.07C103.254 73.07 102.601 72.874 102.115 72.482C101.63 72.09 101.387 71.572 101.387 70.928C101.387 70.3027 101.611 69.7987 102.059 69.416C102.517 69.0333 103.24 68.842 104.229 68.842H106.567V68.394C106.567 67.7593 106.39 67.2787 106.035 66.952C105.681 66.616 105.163 66.448 104.481 66.448C104.015 66.448 103.567 66.5273 103.137 66.686C102.708 66.8353 102.339 67.0453 102.031 67.316L101.583 66.574C101.957 66.2567 102.405 66.014 102.927 65.846C103.45 65.6687 104.001 65.58 104.579 65.58ZM104.229 72.286C104.789 72.286 105.27 72.16 105.671 71.908C106.073 71.6467 106.371 71.2733 106.567 70.788V69.584H104.257C102.997 69.584 102.367 70.0227 102.367 70.9C102.367 71.3293 102.531 71.67 102.857 71.922C103.184 72.1647 103.641 72.286 104.229 72.286ZM114.139 72.552C113.952 72.72 113.719 72.8507 113.439 72.944C113.168 73.028 112.884 73.07 112.585 73.07C111.894 73.07 111.362 72.8833 110.989 72.51C110.616 72.1367 110.429 71.6093 110.429 70.928V66.476H109.113V65.636H110.429V64.026H111.423V65.636H113.663V66.476H111.423V70.872C111.423 71.3107 111.53 71.6467 111.745 71.88C111.969 72.104 112.286 72.216 112.697 72.216C112.902 72.216 113.098 72.1833 113.285 72.118C113.481 72.0527 113.649 71.9593 113.789 71.838L114.139 72.552ZM118.525 65.58C119.486 65.58 120.223 65.8227 120.737 66.308C121.25 66.784 121.507 67.4933 121.507 68.436V73H120.555V71.852C120.331 72.2347 119.999 72.5333 119.561 72.748C119.131 72.9627 118.618 73.07 118.021 73.07C117.199 73.07 116.546 72.874 116.061 72.482C115.575 72.09 115.333 71.572 115.333 70.928C115.333 70.3027 115.557 69.7987 116.005 69.416C116.462 69.0333 117.185 68.842 118.175 68.842H120.513V68.394C120.513 67.7593 120.335 67.2787 119.981 66.952C119.626 66.616 119.108 66.448 118.427 66.448C117.96 66.448 117.512 66.5273 117.083 66.686C116.653 66.8353 116.285 67.0453 115.977 67.316L115.529 66.574C115.902 66.2567 116.35 66.014 116.873 65.846C117.395 65.6687 117.946 65.58 118.525 65.58ZM118.175 72.286C118.735 72.286 119.215 72.16 119.617 71.908C120.018 71.6467 120.317 71.2733 120.513 70.788V69.584H118.203C116.943 69.584 116.312 70.0227 116.312 70.9C116.312 71.3293 116.476 71.67 116.803 71.922C117.129 72.1647 117.587 72.286 118.175 72.286Z" fill="#2C2F32"/>
<rect x="0.5" y="0.5" width="176.75" height="100" stroke="#2C2F32"/>
<path d="M202.104 50.8536C202.299 50.6583 202.299 50.3417 202.104 50.1464L198.922 46.9645C198.726 46.7692 198.41 46.7692 198.214 46.9645C198.019 47.1597 198.019 47.4763 198.214 47.6716L201.043 50.5L198.214 53.3284C198.019 53.5237 198.019 53.8403 198.214 54.0355C198.41 54.2308 198.726 54.2308 198.922 54.0355L202.104 50.8536ZM177.75 51L201.75 51V50L177.75 50L177.75 51Z" fill="#2C2F32"/>
<path d="M231.014 47.052C230.827 47.22 230.594 47.3507 230.314 47.444C230.043 47.528 229.759 47.57 229.46 47.57C228.769 47.57 228.237 47.3833 227.864 47.01C227.491 46.6367 227.304 46.1093 227.304 45.428V40.976H225.988V40.136H227.304V38.526H228.298V40.136H230.538V40.976H228.298V45.372C228.298 45.8107 228.405 46.1467 228.62 46.38C228.844 46.604 229.161 46.716 229.572 46.716C229.777 46.716 229.973 46.6833 230.16 46.618C230.356 46.5527 230.524 46.4593 230.664 46.338L231.014 47.052ZM233.776 41.578C234.009 41.0833 234.354 40.71 234.812 40.458C235.278 40.206 235.852 40.08 236.534 40.08V41.046L236.296 41.032C235.521 41.032 234.914 41.27 234.476 41.746C234.037 42.222 233.818 42.8893 233.818 43.748V47.5H232.824V40.136H233.776V41.578ZM240.896 40.08C241.857 40.08 242.594 40.3227 243.108 40.808C243.621 41.284 243.878 41.9933 243.878 42.936V47.5H242.926V46.352C242.702 46.7347 242.37 47.0333 241.932 47.248C241.502 47.4627 240.989 47.57 240.392 47.57C239.57 47.57 238.917 47.374 238.432 46.982C237.946 46.59 237.704 46.072 237.704 45.428C237.704 44.8027 237.928 44.2987 238.376 43.916C238.833 43.5333 239.556 43.342 240.546 43.342H242.884V42.894C242.884 42.2593 242.706 41.7787 242.352 41.452C241.997 41.116 241.479 40.948 240.798 40.948C240.331 40.948 239.883 41.0273 239.454 41.186C239.024 41.3353 238.656 41.5453 238.348 41.816L237.9 41.074C238.273 40.7567 238.721 40.514 239.244 40.346C239.766 40.1687 240.317 40.08 240.896 40.08ZM240.546 46.786C241.106 46.786 241.586 46.66 241.988 46.408C242.389 46.1467 242.688 45.7733 242.884 45.288V44.084H240.574C239.314 44.084 238.684 44.5227 238.684 45.4C238.684 45.8293 238.847 46.17 239.174 46.422C239.5 46.6647 239.958 46.786 240.546 46.786ZM249.657 47.57C248.929 47.57 248.275 47.4113 247.697 47.094C247.127 46.7767 246.679 46.3333 246.353 45.764C246.026 45.1853 245.863 44.5367 245.863 43.818C245.863 43.0993 246.026 42.4553 246.353 41.886C246.679 41.3167 247.127 40.8733 247.697 40.556C248.275 40.2387 248.929 40.08 249.657 40.08C250.291 40.08 250.856 40.206 251.351 40.458C251.855 40.7007 252.251 41.06 252.541 41.536L251.799 42.04C251.556 41.676 251.248 41.4053 250.875 41.228C250.501 41.0413 250.095 40.948 249.657 40.948C249.125 40.948 248.644 41.0693 248.215 41.312C247.795 41.5453 247.463 41.8813 247.221 42.32C246.987 42.7587 246.871 43.258 246.871 43.818C246.871 44.3873 246.987 44.8913 247.221 45.33C247.463 45.7593 247.795 46.0953 248.215 46.338C248.644 46.5713 249.125 46.688 249.657 46.688C250.095 46.688 250.501 46.5993 250.875 46.422C251.248 46.2447 251.556 45.974 251.799 45.61L252.541 46.114C252.251 46.59 251.855 46.954 251.351 47.206C250.847 47.4487 250.282 47.57 249.657 47.57ZM257.114 43.804L255.378 45.4V47.5H254.384V37.112H255.378V44.154L259.774 40.136H261.006L257.856 43.146L261.3 47.5H260.082L257.114 43.804ZM262.683 40.136H263.677V47.5H262.683V40.136ZM263.187 38.526C262.982 38.526 262.809 38.456 262.669 38.316C262.529 38.176 262.459 38.008 262.459 37.812C262.459 37.6253 262.529 37.462 262.669 37.322C262.809 37.182 262.982 37.112 263.187 37.112C263.392 37.112 263.565 37.182 263.705 37.322C263.845 37.4527 263.915 37.6113 263.915 37.798C263.915 38.0033 263.845 38.176 263.705 38.316C263.565 38.456 263.392 38.526 263.187 38.526ZM270.195 40.08C271.119 40.08 271.851 40.3507 272.393 40.892C272.943 41.424 273.219 42.2033 273.219 43.23V47.5H272.225V43.328C272.225 42.5627 272.033 41.9793 271.651 41.578C271.268 41.1767 270.722 40.976 270.013 40.976C269.219 40.976 268.589 41.214 268.123 41.69C267.665 42.1567 267.437 42.8053 267.437 43.636V47.5H266.443V40.136H267.395V41.494C267.665 41.046 268.039 40.7007 268.515 40.458C269 40.206 269.56 40.08 270.195 40.08ZM282.763 40.136V46.604C282.763 47.8547 282.455 48.7787 281.839 49.376C281.232 49.9827 280.313 50.286 279.081 50.286C278.399 50.286 277.751 50.1833 277.135 49.978C276.528 49.782 276.033 49.5067 275.651 49.152L276.155 48.396C276.509 48.7133 276.939 48.9607 277.443 49.138C277.956 49.3153 278.493 49.404 279.053 49.404C279.986 49.404 280.672 49.1847 281.111 48.746C281.549 48.3167 281.769 47.6447 281.769 46.73V45.792C281.461 46.2587 281.055 46.6133 280.551 46.856C280.056 47.0987 279.505 47.22 278.899 47.22C278.208 47.22 277.578 47.0707 277.009 46.772C276.449 46.464 276.005 46.0393 275.679 45.498C275.361 44.9473 275.203 44.3267 275.203 43.636C275.203 42.9453 275.361 42.3293 275.679 41.788C276.005 41.2467 276.449 40.8267 277.009 40.528C277.569 40.2293 278.199 40.08 278.899 40.08C279.524 40.08 280.089 40.206 280.593 40.458C281.097 40.71 281.503 41.074 281.811 41.55V40.136H282.763ZM278.997 46.338C279.529 46.338 280.009 46.226 280.439 46.002C280.868 45.7687 281.199 45.4467 281.433 45.036C281.675 44.6253 281.797 44.1587 281.797 43.636C281.797 43.1133 281.675 42.6513 281.433 42.25C281.199 41.8393 280.868 41.522 280.439 41.298C280.019 41.0647 279.538 40.948 278.997 40.948C278.465 40.948 277.984 41.06 277.555 41.284C277.135 41.508 276.803 41.8253 276.561 42.236C276.327 42.6467 276.211 43.1133 276.211 43.636C276.211 44.1587 276.327 44.6253 276.561 45.036C276.803 45.4467 277.135 45.7687 277.555 46.002C277.984 46.226 278.465 46.338 278.997 46.338ZM296.43 47.654L295.072 46.254C294.242 47.1407 293.15 47.584 291.796 47.584C291.162 47.584 290.592 47.4813 290.088 47.276C289.594 47.0613 289.206 46.7673 288.926 46.394C288.646 46.0113 288.506 45.5773 288.506 45.092C288.506 44.504 288.693 43.9767 289.066 43.51C289.44 43.0433 290.074 42.5533 290.97 42.04C290.504 41.5547 290.182 41.144 290.004 40.808C289.827 40.4627 289.738 40.0987 289.738 39.716C289.738 39.0907 289.962 38.5867 290.41 38.204C290.858 37.8213 291.46 37.63 292.216 37.63C292.916 37.63 293.472 37.8027 293.882 38.148C294.293 38.4933 294.498 38.9693 294.498 39.576C294.498 40.0613 294.335 40.5 294.008 40.892C293.682 41.2747 293.117 41.6993 292.314 42.166L295.002 44.938C295.301 44.406 295.52 43.776 295.66 43.048L296.472 43.3C296.295 44.1773 296.006 44.9287 295.604 45.554L297.004 46.996L296.43 47.654ZM292.216 38.372C291.731 38.372 291.348 38.4933 291.068 38.736C290.798 38.9787 290.662 39.3007 290.662 39.702C290.662 39.9913 290.737 40.2667 290.886 40.528C291.036 40.7893 291.33 41.144 291.768 41.592C292.478 41.1813 292.968 40.8313 293.238 40.542C293.509 40.2527 293.644 39.9353 293.644 39.59C293.644 39.2167 293.518 38.9227 293.266 38.708C293.014 38.484 292.664 38.372 292.216 38.372ZM291.852 46.758C292.935 46.758 293.812 46.3893 294.484 45.652L291.53 42.614C290.756 43.0527 290.219 43.4493 289.92 43.804C289.631 44.1587 289.486 44.5553 289.486 44.994C289.486 45.526 289.701 45.9553 290.13 46.282C290.569 46.5993 291.143 46.758 291.852 46.758ZM306.03 40.08C306.72 40.08 307.346 40.2387 307.906 40.556C308.466 40.864 308.904 41.3027 309.222 41.872C309.539 42.4413 309.698 43.09 309.698 43.818C309.698 44.5553 309.539 45.2087 309.222 45.778C308.904 46.3473 308.466 46.7907 307.906 47.108C307.355 47.416 306.73 47.57 306.03 47.57C305.432 47.57 304.891 47.4487 304.406 47.206C303.93 46.954 303.538 46.59 303.23 46.114V50.216H302.236V40.136H303.188V41.592C303.486 41.1067 303.878 40.7333 304.364 40.472C304.858 40.2107 305.414 40.08 306.03 40.08ZM305.96 46.688C306.473 46.688 306.94 46.5713 307.36 46.338C307.78 46.0953 308.106 45.7547 308.34 45.316C308.582 44.8773 308.704 44.378 308.704 43.818C308.704 43.258 308.582 42.7633 308.34 42.334C308.106 41.8953 307.78 41.5547 307.36 41.312C306.94 41.0693 306.473 40.948 305.96 40.948C305.437 40.948 304.966 41.0693 304.546 41.312C304.135 41.5547 303.808 41.8953 303.566 42.334C303.332 42.7633 303.216 43.258 303.216 43.818C303.216 44.378 303.332 44.8773 303.566 45.316C303.808 45.7547 304.135 46.0953 304.546 46.338C304.966 46.5713 305.437 46.688 305.96 46.688ZM314.259 40.08C315.22 40.08 315.958 40.3227 316.471 40.808C316.984 41.284 317.241 41.9933 317.241 42.936V47.5H316.289V46.352C316.065 46.7347 315.734 47.0333 315.295 47.248C314.866 47.4627 314.352 47.57 313.755 47.57C312.934 47.57 312.28 47.374 311.795 46.982C311.31 46.59 311.067 46.072 311.067 45.428C311.067 44.8027 311.291 44.2987 311.739 43.916C312.196 43.5333 312.92 43.342 313.909 43.342H316.247V42.894C316.247 42.2593 316.07 41.7787 315.715 41.452C315.36 41.116 314.842 40.948 314.161 40.948C313.694 40.948 313.246 41.0273 312.817 41.186C312.388 41.3353 312.019 41.5453 311.711 41.816L311.263 41.074C311.636 40.7567 312.084 40.514 312.607 40.346C313.13 40.1687 313.68 40.08 314.259 40.08ZM313.909 46.786C314.469 46.786 314.95 46.66 315.351 46.408C315.752 46.1467 316.051 45.7733 316.247 45.288V44.084H313.937C312.677 44.084 312.047 44.5227 312.047 45.4C312.047 45.8293 312.21 46.17 312.537 46.422C312.864 46.6647 313.321 46.786 313.909 46.786ZM323.819 47.052C323.632 47.22 323.399 47.3507 323.119 47.444C322.848 47.528 322.563 47.57 322.265 47.57C321.574 47.57 321.042 47.3833 320.669 47.01C320.295 46.6367 320.109 46.1093 320.109 45.428V40.976H318.793V40.136H320.109V38.526H321.103V40.136H323.343V40.976H321.103V45.372C321.103 45.8107 321.21 46.1467 321.425 46.38C321.649 46.604 321.966 46.716 322.377 46.716C322.582 46.716 322.778 46.6833 322.965 46.618C323.161 46.5527 323.329 46.4593 323.469 46.338L323.819 47.052ZM329.315 47.052C329.128 47.22 328.895 47.3507 328.615 47.444C328.344 47.528 328.059 47.57 327.761 47.57C327.07 47.57 326.538 47.3833 326.165 47.01C325.791 46.6367 325.605 46.1093 325.605 45.428V40.976H324.289V40.136H325.605V38.526H326.599V40.136H328.839V40.976H326.599V45.372C326.599 45.8107 326.706 46.1467 326.921 46.38C327.145 46.604 327.462 46.716 327.873 46.716C328.078 46.716 328.274 46.6833 328.461 46.618C328.657 46.5527 328.825 46.4593 328.965 46.338L329.315 47.052ZM337.277 44.126H331.117C331.173 44.8913 331.467 45.512 331.999 45.988C332.531 46.4547 333.203 46.688 334.015 46.688C334.472 46.688 334.892 46.6087 335.275 46.45C335.657 46.282 335.989 46.0393 336.269 45.722L336.829 46.366C336.502 46.758 336.091 47.0567 335.597 47.262C335.111 47.4673 334.575 47.57 333.987 47.57C333.231 47.57 332.559 47.4113 331.971 47.094C331.392 46.7673 330.939 46.3193 330.613 45.75C330.286 45.1807 330.123 44.5367 330.123 43.818C330.123 43.0993 330.277 42.4553 330.585 41.886C330.902 41.3167 331.331 40.8733 331.873 40.556C332.423 40.2387 333.039 40.08 333.721 40.08C334.402 40.08 335.013 40.2387 335.555 40.556C336.096 40.8733 336.521 41.3167 336.829 41.886C337.137 42.446 337.291 43.09 337.291 43.818L337.277 44.126ZM333.721 40.934C333.011 40.934 332.414 41.1627 331.929 41.62C331.453 42.068 331.182 42.656 331.117 43.384H336.339C336.273 42.656 335.998 42.068 335.513 41.62C335.037 41.1627 334.439 40.934 333.721 40.934ZM340.266 41.578C340.499 41.0833 340.844 40.71 341.302 40.458C341.768 40.206 342.342 40.08 343.024 40.08V41.046L342.786 41.032C342.011 41.032 341.404 41.27 340.966 41.746C340.527 42.222 340.308 42.8893 340.308 43.748V47.5H339.314V40.136H340.266V41.578ZM348.576 40.08C349.5 40.08 350.232 40.3507 350.774 40.892C351.324 41.424 351.6 42.2033 351.6 43.23V47.5H350.606V43.328C350.606 42.5627 350.414 41.9793 350.032 41.578C349.649 41.1767 349.103 40.976 348.394 40.976C347.6 40.976 346.97 41.214 346.504 41.69C346.046 42.1567 345.818 42.8053 345.818 43.636V47.5H344.824V40.136H345.776V41.494C346.046 41.046 346.42 40.7007 346.896 40.458C347.381 40.206 347.941 40.08 348.576 40.08ZM229.572 54.882C229.143 54.882 228.816 54.9987 228.592 55.232C228.377 55.4653 228.27 55.8107 228.27 56.268V57.136H230.538V57.976H228.298V64.5H227.304V57.976H225.988V57.136H227.304V56.226C227.304 55.554 227.495 55.022 227.878 54.63C228.27 54.238 228.821 54.042 229.53 54.042C229.81 54.042 230.081 54.084 230.342 54.168C230.603 54.2427 230.823 54.3547 231 54.504L230.664 55.246C230.375 55.0033 230.011 54.882 229.572 54.882ZM234.767 64.57C234.058 64.57 233.418 64.4113 232.849 64.094C232.28 63.7673 231.832 63.3193 231.505 62.75C231.178 62.1807 231.015 61.5367 231.015 60.818C231.015 60.0993 231.178 59.4553 231.505 58.886C231.832 58.3167 232.28 57.8733 232.849 57.556C233.418 57.2387 234.058 57.08 234.767 57.08C235.476 57.08 236.116 57.2387 236.685 57.556C237.254 57.8733 237.698 58.3167 238.015 58.886C238.342 59.4553 238.505 60.0993 238.505 60.818C238.505 61.5367 238.342 62.1807 238.015 62.75C237.698 63.3193 237.254 63.7673 236.685 64.094C236.116 64.4113 235.476 64.57 234.767 64.57ZM234.767 63.688C235.29 63.688 235.756 63.5713 236.167 63.338C236.587 63.0953 236.914 62.7547 237.147 62.316C237.38 61.8773 237.497 61.378 237.497 60.818C237.497 60.258 237.38 59.7587 237.147 59.32C236.914 58.8813 236.587 58.5453 236.167 58.312C235.756 58.0693 235.29 57.948 234.767 57.948C234.244 57.948 233.773 58.0693 233.353 58.312C232.942 58.5453 232.616 58.8813 232.373 59.32C232.14 59.7587 232.023 60.258 232.023 60.818C232.023 61.378 232.14 61.8773 232.373 62.316C232.616 62.7547 232.942 63.0953 233.353 63.338C233.773 63.5713 234.244 63.688 234.767 63.688ZM241.486 58.578C241.72 58.0833 242.065 57.71 242.522 57.458C242.989 57.206 243.563 57.08 244.244 57.08V58.046L244.006 58.032C243.232 58.032 242.625 58.27 242.186 58.746C241.748 59.222 241.528 59.8893 241.528 60.748V64.5H240.534V57.136H241.486V58.578ZM255.228 57.08C256.152 57.08 256.876 57.346 257.398 57.878C257.93 58.41 258.196 59.194 258.196 60.23V64.5H257.202V60.328C257.202 59.5627 257.016 58.9793 256.642 58.578C256.278 58.1767 255.76 57.976 255.088 57.976C254.323 57.976 253.721 58.214 253.282 58.69C252.844 59.1567 252.624 59.8053 252.624 60.636V64.5H251.63V60.328C251.63 59.5627 251.444 58.9793 251.07 58.578C250.706 58.1767 250.184 57.976 249.502 57.976C248.746 57.976 248.144 58.214 247.696 58.69C247.258 59.1567 247.038 59.8053 247.038 60.636V64.5H246.044V57.136H246.996V58.48C247.258 58.032 247.622 57.6867 248.088 57.444C248.555 57.2013 249.092 57.08 249.698 57.08C250.314 57.08 250.846 57.2107 251.294 57.472C251.752 57.7333 252.092 58.1207 252.316 58.634C252.587 58.1487 252.974 57.7707 253.478 57.5C253.992 57.22 254.575 57.08 255.228 57.08ZM263.468 57.08C264.429 57.08 265.167 57.3227 265.68 57.808C266.193 58.284 266.45 58.9933 266.45 59.936V64.5H265.498V63.352C265.274 63.7347 264.943 64.0333 264.504 64.248C264.075 64.4627 263.561 64.57 262.964 64.57C262.143 64.57 261.489 64.374 261.004 63.982C260.519 63.59 260.276 63.072 260.276 62.428C260.276 61.8027 260.5 61.2987 260.948 60.916C261.405 60.5333 262.129 60.342 263.118 60.342H265.456V59.894C265.456 59.2593 265.279 58.7787 264.924 58.452C264.569 58.116 264.051 57.948 263.37 57.948C262.903 57.948 262.455 58.0273 262.026 58.186C261.597 58.3353 261.228 58.5453 260.92 58.816L260.472 58.074C260.845 57.7567 261.293 57.514 261.816 57.346C262.339 57.1687 262.889 57.08 263.468 57.08ZM263.118 63.786C263.678 63.786 264.159 63.66 264.56 63.408C264.961 63.1467 265.26 62.7733 265.456 62.288V61.084H263.146C261.886 61.084 261.256 61.5227 261.256 62.4C261.256 62.8293 261.419 63.17 261.746 63.422C262.073 63.6647 262.53 63.786 263.118 63.786ZM273.028 64.052C272.841 64.22 272.608 64.3507 272.328 64.444C272.057 64.528 271.772 64.57 271.474 64.57C270.783 64.57 270.251 64.3833 269.878 64.01C269.504 63.6367 269.318 63.1093 269.318 62.428V57.976H268.002V57.136H269.318V55.526H270.312V57.136H272.552V57.976H270.312V62.372C270.312 62.8107 270.419 63.1467 270.634 63.38C270.858 63.604 271.175 63.716 271.586 63.716C271.791 63.716 271.987 63.6833 272.174 63.618C272.37 63.5527 272.538 63.4593 272.678 63.338L273.028 64.052ZM274.837 57.136H275.831V64.5H274.837V57.136ZM275.341 55.526C275.136 55.526 274.963 55.456 274.823 55.316C274.683 55.176 274.613 55.008 274.613 54.812C274.613 54.6253 274.683 54.462 274.823 54.322C274.963 54.182 275.136 54.112 275.341 54.112C275.547 54.112 275.719 54.182 275.859 54.322C275.999 54.4527 276.069 54.6113 276.069 54.798C276.069 55.0033 275.999 55.176 275.859 55.316C275.719 55.456 275.547 55.526 275.341 55.526ZM281.607 64.57C280.898 64.57 280.258 64.4113 279.689 64.094C279.12 63.7673 278.672 63.3193 278.345 62.75C278.018 62.1807 277.855 61.5367 277.855 60.818C277.855 60.0993 278.018 59.4553 278.345 58.886C278.672 58.3167 279.12 57.8733 279.689 57.556C280.258 57.2387 280.898 57.08 281.607 57.08C282.316 57.08 282.956 57.2387 283.525 57.556C284.094 57.8733 284.538 58.3167 284.855 58.886C285.182 59.4553 285.345 60.0993 285.345 60.818C285.345 61.5367 285.182 62.1807 284.855 62.75C284.538 63.3193 284.094 63.7673 283.525 64.094C282.956 64.4113 282.316 64.57 281.607 64.57ZM281.607 63.688C282.13 63.688 282.596 63.5713 283.007 63.338C283.427 63.0953 283.754 62.7547 283.987 62.316C284.22 61.8773 284.337 61.378 284.337 60.818C284.337 60.258 284.22 59.7587 283.987 59.32C283.754 58.8813 283.427 58.5453 283.007 58.312C282.596 58.0693 282.13 57.948 281.607 57.948C281.084 57.948 280.613 58.0693 280.193 58.312C279.782 58.5453 279.456 58.8813 279.213 59.32C278.98 59.7587 278.863 60.258 278.863 60.818C278.863 61.378 278.98 61.8773 279.213 62.316C279.456 62.7547 279.782 63.0953 280.193 63.338C280.613 63.5713 281.084 63.688 281.607 63.688ZM291.126 57.08C292.05 57.08 292.783 57.3507 293.324 57.892C293.875 58.424 294.15 59.2033 294.15 60.23V64.5H293.156V60.328C293.156 59.5627 292.965 58.9793 292.582 58.578C292.2 58.1767 291.654 57.976 290.944 57.976C290.151 57.976 289.521 58.214 289.054 58.69C288.597 59.1567 288.368 59.8053 288.368 60.636V64.5H287.374V57.136H288.326V58.494C288.597 58.046 288.97 57.7007 289.446 57.458C289.932 57.206 290.492 57.08 291.126 57.08Z" fill="#2C2F32"/>
<rect x="202.25" y="0.5" width="176.75" height="100" stroke="#2C2F32"/>
<path d="M403.854 50.8536C404.049 50.6583 404.049 50.3417 403.854 50.1464L400.672 46.9645C400.476 46.7692 400.16 46.7692 399.964 46.9645C399.769 47.1597 399.769 47.4763 399.964 47.6716L402.793 50.5L399.964 53.3284C399.769 53.5237 399.769 53.8403 399.964 54.0355C400.16 54.2308 400.476 54.2308 400.672 54.0355L403.854 50.8536ZM379.5 51L403.5 51V50L379.5 50L379.5 51Z" fill="#2C2F32"/>
<path d="M430.86 30.57C430.263 30.57 429.689 30.486 429.138 30.318C428.597 30.1407 428.172 29.9213 427.864 29.66L428.312 28.876C428.62 29.1187 429.007 29.3193 429.474 29.478C429.941 29.6273 430.426 29.702 430.93 29.702C431.602 29.702 432.097 29.5993 432.414 29.394C432.741 29.1793 432.904 28.8807 432.904 28.498C432.904 28.2273 432.815 28.0173 432.638 27.868C432.461 27.7093 432.237 27.5927 431.966 27.518C431.695 27.434 431.336 27.3547 430.888 27.28C430.291 27.168 429.81 27.056 429.446 26.944C429.082 26.8227 428.769 26.622 428.508 26.342C428.256 26.062 428.13 25.6747 428.13 25.18C428.13 24.564 428.387 24.06 428.9 23.668C429.413 23.276 430.127 23.08 431.042 23.08C431.518 23.08 431.994 23.1453 432.47 23.276C432.946 23.3973 433.338 23.5607 433.646 23.766L433.212 24.564C432.605 24.144 431.882 23.934 431.042 23.934C430.407 23.934 429.927 24.046 429.6 24.27C429.283 24.494 429.124 24.788 429.124 25.152C429.124 25.432 429.213 25.656 429.39 25.824C429.577 25.992 429.805 26.118 430.076 26.202C430.347 26.2767 430.72 26.356 431.196 26.44C431.784 26.552 432.255 26.664 432.61 26.776C432.965 26.888 433.268 27.0793 433.52 27.35C433.772 27.6207 433.898 27.994 433.898 28.47C433.898 29.114 433.627 29.6273 433.086 30.01C432.554 30.3833 431.812 30.57 430.86 30.57ZM439.614 30.052C439.427 30.22 439.194 30.3507 438.914 30.444C438.643 30.528 438.358 30.57 438.06 30.57C437.369 30.57 436.837 30.3833 436.464 30.01C436.09 29.6367 435.904 29.1093 435.904 28.428V23.976H434.588V23.136H435.904V21.526H436.898V23.136H439.138V23.976H436.898V28.372C436.898 28.8107 437.005 29.1467 437.22 29.38C437.444 29.604 437.761 29.716 438.172 29.716C438.377 29.716 438.573 29.6833 438.76 29.618C438.956 29.5527 439.124 29.4593 439.264 29.338L439.614 30.052ZM442.375 24.578C442.608 24.0833 442.954 23.71 443.411 23.458C443.878 23.206 444.452 23.08 445.133 23.08V24.046L444.895 24.032C444.12 24.032 443.514 24.27 443.075 24.746C442.636 25.222 442.417 25.8893 442.417 26.748V30.5H441.423V23.136H442.375V24.578ZM449.495 23.08C450.457 23.08 451.194 23.3227 451.707 23.808C452.221 24.284 452.477 24.9933 452.477 25.936V30.5H451.525V29.352C451.301 29.7347 450.97 30.0333 450.531 30.248C450.102 30.4627 449.589 30.57 448.991 30.57C448.17 30.57 447.517 30.374 447.031 29.982C446.546 29.59 446.303 29.072 446.303 28.428C446.303 27.8027 446.527 27.2987 446.975 26.916C447.433 26.5333 448.156 26.342 449.145 26.342H451.483V25.894C451.483 25.2593 451.306 24.7787 450.951 24.452C450.597 24.116 450.079 23.948 449.397 23.948C448.931 23.948 448.483 24.0273 448.053 24.186C447.624 24.3353 447.255 24.5453 446.947 24.816L446.499 24.074C446.873 23.7567 447.321 23.514 447.843 23.346C448.366 23.1687 448.917 23.08 449.495 23.08ZM449.145 29.786C449.705 29.786 450.186 29.66 450.587 29.408C450.989 29.1467 451.287 28.7733 451.483 28.288V27.084H449.173C447.913 27.084 447.283 27.5227 447.283 28.4C447.283 28.8293 447.447 29.17 447.773 29.422C448.1 29.6647 448.557 29.786 449.145 29.786ZM459.055 30.052C458.868 30.22 458.635 30.3507 458.355 30.444C458.084 30.528 457.8 30.57 457.501 30.57C456.81 30.57 456.278 30.3833 455.905 30.01C455.532 29.6367 455.345 29.1093 455.345 28.428V23.976H454.029V23.136H455.345V21.526H456.339V23.136H458.579V23.976H456.339V28.372C456.339 28.8107 456.446 29.1467 456.661 29.38C456.885 29.604 457.202 29.716 457.613 29.716C457.818 29.716 458.014 29.6833 458.201 29.618C458.397 29.5527 458.565 29.4593 458.705 29.338L459.055 30.052ZM467.017 27.126H460.857C460.913 27.8913 461.207 28.512 461.739 28.988C462.271 29.4547 462.943 29.688 463.755 29.688C464.212 29.688 464.632 29.6087 465.015 29.45C465.397 29.282 465.729 29.0393 466.009 28.722L466.569 29.366C466.242 29.758 465.831 30.0567 465.337 30.262C464.851 30.4673 464.315 30.57 463.727 30.57C462.971 30.57 462.299 30.4113 461.711 30.094C461.132 29.7673 460.679 29.3193 460.353 28.75C460.026 28.1807 459.863 27.5367 459.863 26.818C459.863 26.0993 460.017 25.4553 460.325 24.886C460.642 24.3167 461.071 23.8733 461.613 23.556C462.163 23.2387 462.779 23.08 463.461 23.08C464.142 23.08 464.753 23.2387 465.295 23.556C465.836 23.8733 466.261 24.3167 466.569 24.886C466.877 25.446 467.031 26.09 467.031 26.818L467.017 27.126ZM463.461 23.934C462.751 23.934 462.154 24.1627 461.669 24.62C461.193 25.068 460.922 25.656 460.857 26.384H466.079C466.013 25.656 465.738 25.068 465.253 24.62C464.777 24.1627 464.179 23.934 463.461 23.934ZM475.872 23.136V29.604C475.872 30.8547 475.564 31.7787 474.948 32.376C474.341 32.9827 473.422 33.286 472.19 33.286C471.509 33.286 470.86 33.1833 470.244 32.978C469.637 32.782 469.143 32.5067 468.76 32.152L469.264 31.396C469.619 31.7133 470.048 31.9607 470.552 32.138C471.065 32.3153 471.602 32.404 472.162 32.404C473.095 32.404 473.781 32.1847 474.22 31.746C474.659 31.3167 474.878 30.6447 474.878 29.73V28.792C474.57 29.2587 474.164 29.6133 473.66 29.856C473.165 30.0987 472.615 30.22 472.008 30.22C471.317 30.22 470.687 30.0707 470.118 29.772C469.558 29.464 469.115 29.0393 468.788 28.498C468.471 27.9473 468.312 27.3267 468.312 26.636C468.312 25.9453 468.471 25.3293 468.788 24.788C469.115 24.2467 469.558 23.8267 470.118 23.528C470.678 23.2293 471.308 23.08 472.008 23.08C472.633 23.08 473.198 23.206 473.702 23.458C474.206 23.71 474.612 24.074 474.92 24.55V23.136H475.872ZM472.106 29.338C472.638 29.338 473.119 29.226 473.548 29.002C473.977 28.7687 474.309 28.4467 474.542 28.036C474.785 27.6253 474.906 27.1587 474.906 26.636C474.906 26.1133 474.785 25.6513 474.542 25.25C474.309 24.8393 473.977 24.522 473.548 24.298C473.128 24.0647 472.647 23.948 472.106 23.948C471.574 23.948 471.093 24.06 470.664 24.284C470.244 24.508 469.913 24.8253 469.67 25.236C469.437 25.6467 469.32 26.1133 469.32 26.636C469.32 27.1587 469.437 27.6253 469.67 28.036C469.913 28.4467 470.244 28.7687 470.664 29.002C471.093 29.226 471.574 29.338 472.106 29.338ZM484.84 23.136L481.158 31.382C480.859 32.0727 480.514 32.5627 480.122 32.852C479.73 33.1413 479.258 33.286 478.708 33.286C478.353 33.286 478.022 33.23 477.714 33.118C477.406 33.006 477.14 32.838 476.916 32.614L477.378 31.872C477.751 32.2453 478.199 32.432 478.722 32.432C479.058 32.432 479.342 32.3387 479.576 32.152C479.818 31.9653 480.042 31.648 480.248 31.2L480.57 30.486L477.28 23.136H478.316L481.088 29.394L483.86 23.136H484.84ZM435.298 44.126H429.138C429.194 44.8913 429.488 45.512 430.02 45.988C430.552 46.4547 431.224 46.688 432.036 46.688C432.493 46.688 432.913 46.6087 433.296 46.45C433.679 46.282 434.01 46.0393 434.29 45.722L434.85 46.366C434.523 46.758 434.113 47.0567 433.618 47.262C433.133 47.4673 432.596 47.57 432.008 47.57C431.252 47.57 430.58 47.4113 429.992 47.094C429.413 46.7673 428.961 46.3193 428.634 45.75C428.307 45.1807 428.144 44.5367 428.144 43.818C428.144 43.0993 428.298 42.4553 428.606 41.886C428.923 41.3167 429.353 40.8733 429.894 40.556C430.445 40.2387 431.061 40.08 431.742 40.08C432.423 40.08 433.035 40.2387 433.576 40.556C434.117 40.8733 434.542 41.3167 434.85 41.886C435.158 42.446 435.312 43.09 435.312 43.818L435.298 44.126ZM431.742 40.934C431.033 40.934 430.435 41.1627 429.95 41.62C429.474 42.068 429.203 42.656 429.138 43.384H434.36C434.295 42.656 434.019 42.068 433.534 41.62C433.058 41.1627 432.461 40.934 431.742 40.934ZM441.82 47.5L439.482 44.42L437.13 47.5H436.01L438.922 43.72L436.15 40.136H437.27L439.482 43.02L441.694 40.136H442.786L440.014 43.72L442.954 47.5H441.82ZM450.761 44.126H444.601C444.657 44.8913 444.951 45.512 445.483 45.988C446.015 46.4547 446.687 46.688 447.499 46.688C447.956 46.688 448.376 46.6087 448.759 46.45C449.142 46.282 449.473 46.0393 449.753 45.722L450.313 46.366C449.986 46.758 449.576 47.0567 449.081 47.262C448.596 47.4673 448.059 47.57 447.471 47.57C446.715 47.57 446.043 47.4113 445.455 47.094C444.876 46.7673 444.424 46.3193 444.097 45.75C443.77 45.1807 443.607 44.5367 443.607 43.818C443.607 43.0993 443.761 42.4553 444.069 41.886C444.386 41.3167 444.816 40.8733 445.357 40.556C445.908 40.2387 446.524 40.08 447.205 40.08C447.886 40.08 448.498 40.2387 449.039 40.556C449.58 40.8733 450.005 41.3167 450.313 41.886C450.621 42.446 450.775 43.09 450.775 43.818L450.761 44.126ZM447.205 40.934C446.496 40.934 445.898 41.1627 445.413 41.62C444.937 42.068 444.666 42.656 444.601 43.384H449.823C449.758 42.656 449.482 42.068 448.997 41.62C448.521 41.1627 447.924 40.934 447.205 40.934ZM455.85 47.57C455.122 47.57 454.469 47.4113 453.89 47.094C453.321 46.7767 452.873 46.3333 452.546 45.764C452.219 45.1853 452.056 44.5367 452.056 43.818C452.056 43.0993 452.219 42.4553 452.546 41.886C452.873 41.3167 453.321 40.8733 453.89 40.556C454.469 40.2387 455.122 40.08 455.85 40.08C456.485 40.08 457.049 40.206 457.544 40.458C458.048 40.7007 458.445 41.06 458.734 41.536L457.992 42.04C457.749 41.676 457.441 41.4053 457.068 41.228C456.695 41.0413 456.289 40.948 455.85 40.948C455.318 40.948 454.837 41.0693 454.408 41.312C453.988 41.5453 453.657 41.8813 453.414 42.32C453.181 42.7587 453.064 43.258 453.064 43.818C453.064 44.3873 453.181 44.8913 453.414 45.33C453.657 45.7593 453.988 46.0953 454.408 46.338C454.837 46.5713 455.318 46.688 455.85 46.688C456.289 46.688 456.695 46.5993 457.068 46.422C457.441 46.2447 457.749 45.974 457.992 45.61L458.734 46.114C458.445 46.59 458.048 46.954 457.544 47.206C457.04 47.4487 456.475 47.57 455.85 47.57ZM467.323 40.136V47.5H466.371V46.156C466.109 46.604 465.75 46.954 465.293 47.206C464.835 47.4487 464.313 47.57 463.725 47.57C462.763 47.57 462.003 47.304 461.443 46.772C460.892 46.2307 460.617 45.442 460.617 44.406V40.136H461.611V44.308C461.611 45.0827 461.802 45.6707 462.185 46.072C462.567 46.4733 463.113 46.674 463.823 46.674C464.597 46.674 465.209 46.4407 465.657 45.974C466.105 45.498 466.329 44.84 466.329 44V40.136H467.323ZM473.985 47.052C473.798 47.22 473.565 47.3507 473.285 47.444C473.014 47.528 472.729 47.57 472.431 47.57C471.74 47.57 471.208 47.3833 470.835 47.01C470.461 46.6367 470.275 46.1093 470.275 45.428V40.976H468.959V40.136H470.275V38.526H471.269V40.136H473.509V40.976H471.269V45.372C471.269 45.8107 471.376 46.1467 471.591 46.38C471.815 46.604 472.132 46.716 472.543 46.716C472.748 46.716 472.944 46.6833 473.131 46.618C473.327 46.5527 473.495 46.4593 473.635 46.338L473.985 47.052ZM475.794 40.136H476.788V47.5H475.794V40.136ZM476.298 38.526C476.093 38.526 475.92 38.456 475.78 38.316C475.64 38.176 475.57 38.008 475.57 37.812C475.57 37.6253 475.64 37.462 475.78 37.322C475.92 37.182 476.093 37.112 476.298 37.112C476.504 37.112 476.676 37.182 476.816 37.322C476.956 37.4527 477.026 37.6113 477.026 37.798C477.026 38.0033 476.956 38.176 476.816 38.316C476.676 38.456 476.504 38.526 476.298 38.526ZM482.564 47.57C481.855 47.57 481.215 47.4113 480.646 47.094C480.077 46.7673 479.629 46.3193 479.302 45.75C478.975 45.1807 478.812 44.5367 478.812 43.818C478.812 43.0993 478.975 42.4553 479.302 41.886C479.629 41.3167 480.077 40.8733 480.646 40.556C481.215 40.2387 481.855 40.08 482.564 40.08C483.273 40.08 483.913 40.2387 484.482 40.556C485.051 40.8733 485.495 41.3167 485.812 41.886C486.139 42.4553 486.302 43.0993 486.302 43.818C486.302 44.5367 486.139 45.1807 485.812 45.75C485.495 46.3193 485.051 46.7673 484.482 47.094C483.913 47.4113 483.273 47.57 482.564 47.57ZM482.564 46.688C483.087 46.688 483.553 46.5713 483.964 46.338C484.384 46.0953 484.711 45.7547 484.944 45.316C485.177 44.8773 485.294 44.378 485.294 43.818C485.294 43.258 485.177 42.7587 484.944 42.32C484.711 41.8813 484.384 41.5453 483.964 41.312C483.553 41.0693 483.087 40.948 482.564 40.948C482.041 40.948 481.57 41.0693 481.15 41.312C480.739 41.5453 480.413 41.8813 480.17 42.32C479.937 42.7587 479.82 43.258 479.82 43.818C479.82 44.378 479.937 44.8773 480.17 45.316C480.413 45.7547 480.739 46.0953 481.15 46.338C481.57 46.5713 482.041 46.688 482.564 46.688ZM492.083 40.08C493.007 40.08 493.74 40.3507 494.281 40.892C494.832 41.424 495.107 42.2033 495.107 43.23V47.5H494.113V43.328C494.113 42.5627 493.922 41.9793 493.539 41.578C493.157 41.1767 492.611 40.976 491.901 40.976C491.108 40.976 490.478 41.214 490.011 41.69C489.554 42.1567 489.325 42.8053 489.325 43.636V47.5H488.331V40.136H489.283V41.494C489.554 41.046 489.927 40.7007 490.403 40.458C490.889 40.206 491.449 40.08 492.083 40.08ZM431.462 57.08C432.423 57.08 433.161 57.3227 433.674 57.808C434.187 58.284 434.444 58.9933 434.444 59.936V64.5H433.492V63.352C433.268 63.7347 432.937 64.0333 432.498 64.248C432.069 64.4627 431.555 64.57 430.958 64.57C430.137 64.57 429.483 64.374 428.998 63.982C428.513 63.59 428.27 63.072 428.27 62.428C428.27 61.8027 428.494 61.2987 428.942 60.916C429.399 60.5333 430.123 60.342 431.112 60.342H433.45V59.894C433.45 59.2593 433.273 58.7787 432.918 58.452C432.563 58.116 432.045 57.948 431.364 57.948C430.897 57.948 430.449 58.0273 430.02 58.186C429.591 58.3353 429.222 58.5453 428.914 58.816L428.466 58.074C428.839 57.7567 429.287 57.514 429.81 57.346C430.333 57.1687 430.883 57.08 431.462 57.08ZM431.112 63.786C431.672 63.786 432.153 63.66 432.554 63.408C432.955 63.1467 433.254 62.7733 433.45 62.288V61.084H431.14C429.88 61.084 429.25 61.5227 429.25 62.4C429.25 62.8293 429.413 63.17 429.74 63.422C430.067 63.6647 430.524 63.786 431.112 63.786ZM440.223 64.57C439.495 64.57 438.842 64.4113 438.263 64.094C437.694 63.7767 437.246 63.3333 436.919 62.764C436.592 62.1853 436.429 61.5367 436.429 60.818C436.429 60.0993 436.592 59.4553 436.919 58.886C437.246 58.3167 437.694 57.8733 438.263 57.556C438.842 57.2387 439.495 57.08 440.223 57.08C440.858 57.08 441.422 57.206 441.917 57.458C442.421 57.7007 442.818 58.06 443.107 58.536L442.365 59.04C442.122 58.676 441.814 58.4053 441.441 58.228C441.068 58.0413 440.662 57.948 440.223 57.948C439.691 57.948 439.21 58.0693 438.781 58.312C438.361 58.5453 438.03 58.8813 437.787 59.32C437.554 59.7587 437.437 60.258 437.437 60.818C437.437 61.3873 437.554 61.8913 437.787 62.33C438.03 62.7593 438.361 63.0953 438.781 63.338C439.21 63.5713 439.691 63.688 440.223 63.688C440.662 63.688 441.068 63.5993 441.441 63.422C441.814 63.2447 442.122 62.974 442.365 62.61L443.107 63.114C442.818 63.59 442.421 63.954 441.917 64.206C441.413 64.4487 440.848 64.57 440.223 64.57ZM447.989 64.57C447.261 64.57 446.607 64.4113 446.029 64.094C445.459 63.7767 445.011 63.3333 444.685 62.764C444.358 62.1853 444.195 61.5367 444.195 60.818C444.195 60.0993 444.358 59.4553 444.685 58.886C445.011 58.3167 445.459 57.8733 446.029 57.556C446.607 57.2387 447.261 57.08 447.989 57.08C448.623 57.08 449.188 57.206 449.683 57.458C450.187 57.7007 450.583 58.06 450.873 58.536L450.131 59.04C449.888 58.676 449.58 58.4053 449.207 58.228C448.833 58.0413 448.427 57.948 447.989 57.948C447.457 57.948 446.976 58.0693 446.547 58.312C446.127 58.5453 445.795 58.8813 445.553 59.32C445.319 59.7587 445.203 60.258 445.203 60.818C445.203 61.3873 445.319 61.8913 445.553 62.33C445.795 62.7593 446.127 63.0953 446.547 63.338C446.976 63.5713 447.457 63.688 447.989 63.688C448.427 63.688 448.833 63.5993 449.207 63.422C449.58 63.2447 449.888 62.974 450.131 62.61L450.873 63.114C450.583 63.59 450.187 63.954 449.683 64.206C449.179 64.4487 448.614 64.57 447.989 64.57ZM455.712 64.57C455.003 64.57 454.364 64.4113 453.794 64.094C453.225 63.7673 452.777 63.3193 452.45 62.75C452.124 62.1807 451.96 61.5367 451.96 60.818C451.96 60.0993 452.124 59.4553 452.45 58.886C452.777 58.3167 453.225 57.8733 453.794 57.556C454.364 57.2387 455.003 57.08 455.712 57.08C456.422 57.08 457.061 57.2387 457.63 57.556C458.2 57.8733 458.643 58.3167 458.96 58.886C459.287 59.4553 459.45 60.0993 459.45 60.818C459.45 61.5367 459.287 62.1807 458.96 62.75C458.643 63.3193 458.2 63.7673 457.63 64.094C457.061 64.4113 456.422 64.57 455.712 64.57ZM455.712 63.688C456.235 63.688 456.702 63.5713 457.112 63.338C457.532 63.0953 457.859 62.7547 458.092 62.316C458.326 61.8773 458.442 61.378 458.442 60.818C458.442 60.258 458.326 59.7587 458.092 59.32C457.859 58.8813 457.532 58.5453 457.112 58.312C456.702 58.0693 456.235 57.948 455.712 57.948C455.19 57.948 454.718 58.0693 454.298 58.312C453.888 58.5453 453.561 58.8813 453.318 59.32C453.085 59.7587 452.968 60.258 452.968 60.818C452.968 61.378 453.085 61.8773 453.318 62.316C453.561 62.7547 453.888 63.0953 454.298 63.338C454.718 63.5713 455.19 63.688 455.712 63.688ZM462.432 58.578C462.665 58.0833 463.01 57.71 463.468 57.458C463.934 57.206 464.508 57.08 465.19 57.08V58.046L464.952 58.032C464.177 58.032 463.57 58.27 463.132 58.746C462.693 59.222 462.474 59.8893 462.474 60.748V64.5H461.48V57.136H462.432V58.578ZM473.641 54.112V64.5H472.689V63.044C472.39 63.5387 471.994 63.9167 471.499 64.178C471.014 64.4393 470.463 64.57 469.847 64.57C469.156 64.57 468.531 64.4113 467.971 64.094C467.411 63.7767 466.972 63.3333 466.655 62.764C466.338 62.1947 466.179 61.546 466.179 60.818C466.179 60.09 466.338 59.4413 466.655 58.872C466.972 58.3027 467.411 57.864 467.971 57.556C468.531 57.2387 469.156 57.08 469.847 57.08C470.444 57.08 470.981 57.206 471.457 57.458C471.942 57.7007 472.339 58.06 472.647 58.536V54.112H473.641ZM469.931 63.688C470.444 63.688 470.906 63.5713 471.317 63.338C471.737 63.0953 472.064 62.7547 472.297 62.316C472.54 61.8773 472.661 61.378 472.661 60.818C472.661 60.258 472.54 59.7587 472.297 59.32C472.064 58.8813 471.737 58.5453 471.317 58.312C470.906 58.0693 470.444 57.948 469.931 57.948C469.408 57.948 468.937 58.0693 468.517 58.312C468.106 58.5453 467.78 58.8813 467.537 59.32C467.304 59.7587 467.187 60.258 467.187 60.818C467.187 61.378 467.304 61.8773 467.537 62.316C467.78 62.7547 468.106 63.0953 468.517 63.338C468.937 63.5713 469.408 63.688 469.931 63.688ZM476.409 57.136H477.403V64.5H476.409V57.136ZM476.913 55.526C476.708 55.526 476.535 55.456 476.395 55.316C476.255 55.176 476.185 55.008 476.185 54.812C476.185 54.6253 476.255 54.462 476.395 54.322C476.535 54.182 476.708 54.112 476.913 54.112C477.119 54.112 477.291 54.182 477.431 54.322C477.571 54.4527 477.641 54.6113 477.641 54.798C477.641 55.0033 477.571 55.176 477.431 55.316C477.291 55.456 477.119 55.526 476.913 55.526ZM483.921 57.08C484.845 57.08 485.578 57.3507 486.119 57.892C486.67 58.424 486.945 59.2033 486.945 60.23V64.5H485.951V60.328C485.951 59.5627 485.76 58.9793 485.377 58.578C484.995 58.1767 484.449 57.976 483.739 57.976C482.946 57.976 482.316 58.214 481.849 58.69C481.392 59.1567 481.163 59.8053 481.163 60.636V64.5H480.169V57.136H481.121V58.494C481.392 58.046 481.765 57.7007 482.241 57.458C482.727 57.206 483.287 57.08 483.921 57.08ZM496.489 57.136V63.604C496.489 64.8547 496.181 65.7787 495.565 66.376C494.958 66.9827 494.039 67.286 492.807 67.286C492.126 67.286 491.477 67.1833 490.861 66.978C490.254 66.782 489.76 66.5067 489.377 66.152L489.881 65.396C490.236 65.7133 490.665 65.9607 491.169 66.138C491.682 66.3153 492.219 66.404 492.779 66.404C493.712 66.404 494.398 66.1847 494.837 65.746C495.276 65.3167 495.495 64.6447 495.495 63.73V62.792C495.187 63.2587 494.781 63.6133 494.277 63.856C493.782 64.0987 493.232 64.22 492.625 64.22C491.934 64.22 491.304 64.0707 490.735 63.772C490.175 63.464 489.732 63.0393 489.405 62.498C489.088 61.9473 488.929 61.3267 488.929 60.636C488.929 59.9453 489.088 59.3293 489.405 58.788C489.732 58.2467 490.175 57.8267 490.735 57.528C491.295 57.2293 491.925 57.08 492.625 57.08C493.25 57.08 493.815 57.206 494.319 57.458C494.823 57.71 495.229 58.074 495.537 58.55V57.136H496.489ZM492.723 63.338C493.255 63.338 493.736 63.226 494.165 63.002C494.594 62.7687 494.926 62.4467 495.159 62.036C495.402 61.6253 495.523 61.1587 495.523 60.636C495.523 60.1133 495.402 59.6513 495.159 59.25C494.926 58.8393 494.594 58.522 494.165 58.298C493.745 58.0647 493.264 57.948 492.723 57.948C492.191 57.948 491.71 58.06 491.281 58.284C490.861 58.508 490.53 58.8253 490.287 59.236C490.054 59.6467 489.937 60.1133 489.937 60.636C489.937 61.1587 490.054 61.6253 490.287 62.036C490.53 62.4467 490.861 62.7687 491.281 63.002C491.71 63.226 492.191 63.338 492.723 63.338ZM432.764 81.052C432.577 81.22 432.344 81.3507 432.064 81.444C431.793 81.528 431.509 81.57 431.21 81.57C430.519 81.57 429.987 81.3833 429.614 81.01C429.241 80.6367 429.054 80.1093 429.054 79.428V74.976H427.738V74.136H429.054V72.526H430.048V74.136H432.288V74.976H430.048V79.372C430.048 79.8107 430.155 80.1467 430.37 80.38C430.594 80.604 430.911 80.716 431.322 80.716C431.527 80.716 431.723 80.6833 431.91 80.618C432.106 80.5527 432.274 80.4593 432.414 80.338L432.764 81.052ZM437.324 81.57C436.614 81.57 435.975 81.4113 435.406 81.094C434.836 80.7673 434.388 80.3193 434.062 79.75C433.735 79.1807 433.572 78.5367 433.572 77.818C433.572 77.0993 433.735 76.4553 434.062 75.886C434.388 75.3167 434.836 74.8733 435.406 74.556C435.975 74.2387 436.614 74.08 437.324 74.08C438.033 74.08 438.672 74.2387 439.242 74.556C439.811 74.8733 440.254 75.3167 440.572 75.886C440.898 76.4553 441.062 77.0993 441.062 77.818C441.062 78.5367 440.898 79.1807 440.572 79.75C440.254 80.3193 439.811 80.7673 439.242 81.094C438.672 81.4113 438.033 81.57 437.324 81.57ZM437.324 80.688C437.846 80.688 438.313 80.5713 438.724 80.338C439.144 80.0953 439.47 79.7547 439.704 79.316C439.937 78.8773 440.054 78.378 440.054 77.818C440.054 77.258 439.937 76.7587 439.704 76.32C439.47 75.8813 439.144 75.5453 438.724 75.312C438.313 75.0693 437.846 74.948 437.324 74.948C436.801 74.948 436.33 75.0693 435.91 75.312C435.499 75.5453 435.172 75.8813 434.93 76.32C434.696 76.7587 434.58 77.258 434.58 77.818C434.58 78.378 434.696 78.8773 434.93 79.316C435.172 79.7547 435.499 80.0953 435.91 80.338C436.33 80.5713 436.801 80.688 437.324 80.688ZM450.549 74.08C451.24 74.08 451.865 74.2387 452.425 74.556C452.985 74.864 453.424 75.3027 453.741 75.872C454.058 76.4413 454.217 77.09 454.217 77.818C454.217 78.5553 454.058 79.2087 453.741 79.778C453.424 80.3473 452.985 80.7907 452.425 81.108C451.874 81.416 451.249 81.57 450.549 81.57C449.952 81.57 449.41 81.4487 448.925 81.206C448.449 80.954 448.057 80.59 447.749 80.114V84.216H446.755V74.136H447.707V75.592C448.006 75.1067 448.398 74.7333 448.883 74.472C449.378 74.2107 449.933 74.08 450.549 74.08ZM450.479 80.688C450.992 80.688 451.459 80.5713 451.879 80.338C452.299 80.0953 452.626 79.7547 452.859 79.316C453.102 78.8773 453.223 78.378 453.223 77.818C453.223 77.258 453.102 76.7633 452.859 76.334C452.626 75.8953 452.299 75.5547 451.879 75.312C451.459 75.0693 450.992 74.948 450.479 74.948C449.956 74.948 449.485 75.0693 449.065 75.312C448.654 75.5547 448.328 75.8953 448.085 76.334C447.852 76.7633 447.735 77.258 447.735 77.818C447.735 78.378 447.852 78.8773 448.085 79.316C448.328 79.7547 448.654 80.0953 449.065 80.338C449.485 80.5713 449.956 80.688 450.479 80.688ZM458.778 74.08C459.74 74.08 460.477 74.3227 460.99 74.808C461.504 75.284 461.76 75.9933 461.76 76.936V81.5H460.808V80.352C460.584 80.7347 460.253 81.0333 459.814 81.248C459.385 81.4627 458.872 81.57 458.274 81.57C457.453 81.57 456.8 81.374 456.314 80.982C455.829 80.59 455.586 80.072 455.586 79.428C455.586 78.8027 455.81 78.2987 456.258 77.916C456.716 77.5333 457.439 77.342 458.428 77.342H460.766V76.894C460.766 76.2593 460.589 75.7787 460.234 75.452C459.88 75.116 459.362 74.948 458.68 74.948C458.214 74.948 457.766 75.0273 457.336 75.186C456.907 75.3353 456.538 75.5453 456.23 75.816L455.782 75.074C456.156 74.7567 456.604 74.514 457.126 74.346C457.649 74.1687 458.2 74.08 458.778 74.08ZM458.428 80.786C458.988 80.786 459.469 80.66 459.87 80.408C460.272 80.1467 460.57 79.7733 460.766 79.288V78.084H458.456C457.196 78.084 456.566 78.5227 456.566 79.4C456.566 79.8293 456.73 80.17 457.056 80.422C457.383 80.6647 457.84 80.786 458.428 80.786ZM468.338 81.052C468.152 81.22 467.918 81.3507 467.638 81.444C467.368 81.528 467.083 81.57 466.784 81.57C466.094 81.57 465.562 81.3833 465.188 81.01C464.815 80.6367 464.628 80.1093 464.628 79.428V74.976H463.312V74.136H464.628V72.526H465.622V74.136H467.862V74.976H465.622V79.372C465.622 79.8107 465.73 80.1467 465.944 80.38C466.168 80.604 466.486 80.716 466.896 80.716C467.102 80.716 467.298 80.6833 467.484 80.618C467.68 80.5527 467.848 80.4593 467.988 80.338L468.338 81.052ZM473.834 81.052C473.648 81.22 473.414 81.3507 473.134 81.444C472.864 81.528 472.579 81.57 472.28 81.57C471.59 81.57 471.058 81.3833 470.684 81.01C470.311 80.6367 470.124 80.1093 470.124 79.428V74.976H468.808V74.136H470.124V72.526H471.118V74.136H473.358V74.976H471.118V79.372C471.118 79.8107 471.226 80.1467 471.44 80.38C471.664 80.604 471.982 80.716 472.392 80.716C472.598 80.716 472.794 80.6833 472.98 80.618C473.176 80.5527 473.344 80.4593 473.484 80.338L473.834 81.052ZM481.796 78.126H475.636C475.692 78.8913 475.986 79.512 476.518 79.988C477.05 80.4547 477.722 80.688 478.534 80.688C478.991 80.688 479.411 80.6087 479.794 80.45C480.177 80.282 480.508 80.0393 480.788 79.722L481.348 80.366C481.021 80.758 480.611 81.0567 480.116 81.262C479.631 81.4673 479.094 81.57 478.506 81.57C477.75 81.57 477.078 81.4113 476.49 81.094C475.911 80.7673 475.459 80.3193 475.132 79.75C474.805 79.1807 474.642 78.5367 474.642 77.818C474.642 77.0993 474.796 76.4553 475.104 75.886C475.421 75.3167 475.851 74.8733 476.392 74.556C476.943 74.2387 477.559 74.08 478.24 74.08C478.921 74.08 479.533 74.2387 480.074 74.556C480.615 74.8733 481.04 75.3167 481.348 75.886C481.656 76.446 481.81 77.09 481.81 77.818L481.796 78.126ZM478.24 74.934C477.531 74.934 476.933 75.1627 476.448 75.62C475.972 76.068 475.701 76.656 475.636 77.384H480.858C480.793 76.656 480.517 76.068 480.032 75.62C479.556 75.1627 478.959 74.934 478.24 74.934ZM484.785 75.578C485.019 75.0833 485.364 74.71 485.821 74.458C486.288 74.206 486.862 74.08 487.543 74.08V75.046L487.305 75.032C486.531 75.032 485.924 75.27 485.485 75.746C485.047 76.222 484.827 76.8893 484.827 77.748V81.5H483.833V74.136H484.785V75.578ZM493.095 74.08C494.019 74.08 494.752 74.3507 495.293 74.892C495.844 75.424 496.119 76.2033 496.119 77.23V81.5H495.125V77.328C495.125 76.5627 494.934 75.9793 494.551 75.578C494.168 75.1767 493.622 74.976 492.913 74.976C492.12 74.976 491.49 75.214 491.023 75.69C490.566 76.1567 490.337 76.8053 490.337 77.636V81.5H489.343V74.136H490.295V75.494C490.566 75.046 490.939 74.7007 491.415 74.458C491.9 74.206 492.46 74.08 493.095 74.08ZM500.792 81.57C500.194 81.57 499.62 81.486 499.07 81.318C498.528 81.1407 498.104 80.9213 497.796 80.66L498.244 79.876C498.552 80.1187 498.939 80.3193 499.406 80.478C499.872 80.6273 500.358 80.702 500.862 80.702C501.534 80.702 502.028 80.5993 502.346 80.394C502.672 80.1793 502.836 79.8807 502.836 79.498C502.836 79.2273 502.747 79.0173 502.57 78.868C502.392 78.7093 502.168 78.5927 501.898 78.518C501.627 78.434 501.268 78.3547 500.82 78.28C500.222 78.168 499.742 78.056 499.378 77.944C499.014 77.8227 498.701 77.622 498.44 77.342C498.188 77.062 498.062 76.6747 498.062 76.18C498.062 75.564 498.318 75.06 498.832 74.668C499.345 74.276 500.059 74.08 500.974 74.08C501.45 74.08 501.926 74.1453 502.402 74.276C502.878 74.3973 503.27 74.5607 503.578 74.766L503.144 75.564C502.537 75.144 501.814 74.934 500.974 74.934C500.339 74.934 499.858 75.046 499.532 75.27C499.214 75.494 499.056 75.788 499.056 76.152C499.056 76.432 499.144 76.656 499.322 76.824C499.508 76.992 499.737 77.118 500.008 77.202C500.278 77.2767 500.652 77.356 501.128 77.44C501.716 77.552 502.187 77.664 502.542 77.776C502.896 77.888 503.2 78.0793 503.452 78.35C503.704 78.6207 503.83 78.994 503.83 79.47C503.83 80.114 503.559 80.6273 503.018 81.01C502.486 81.3833 501.744 81.57 500.792 81.57Z" fill="#2C2F32"/>
<rect x="404" y="0.5" width="176.75" height="100" stroke="#2C2F32"/>
<path d="M605.604 50.8536C605.799 50.6583 605.799 50.3417 605.604 50.1464L602.422 46.9645C602.226 46.7692 601.91 46.7692 601.714 46.9645C601.519 47.1597 601.519 47.4763 601.714 47.6716L604.543 50.5L601.714 53.3284C601.519 53.5237 601.519 53.8403 601.714 54.0355C601.91 54.2308 602.226 54.2308 602.422 54.0355L605.604 50.8536ZM581.25 51L605.25 51V50L581.25 50L581.25 51Z" fill="#2C2F32"/>
<path d="M634.388 31.58C635.312 31.58 636.045 31.8507 636.586 32.392C637.137 32.924 637.412 33.7033 637.412 34.73V39H636.418V34.828C636.418 34.0627 636.227 33.4793 635.844 33.078C635.461 32.6767 634.915 32.476 634.206 32.476C633.413 32.476 632.783 32.714 632.316 33.19C631.859 33.6567 631.63 34.3053 631.63 35.136V39H630.636V31.636H631.588V32.994C631.859 32.546 632.232 32.2007 632.708 31.958C633.193 31.706 633.753 31.58 634.388 31.58ZM646.55 35.626H640.39C640.446 36.3913 640.74 37.012 641.272 37.488C641.804 37.9547 642.476 38.188 643.288 38.188C643.745 38.188 644.165 38.1087 644.548 37.95C644.931 37.782 645.262 37.5393 645.542 37.222L646.102 37.866C645.775 38.258 645.365 38.5567 644.87 38.762C644.385 38.9673 643.848 39.07 643.26 39.07C642.504 39.07 641.832 38.9113 641.244 38.594C640.665 38.2673 640.213 37.8193 639.886 37.25C639.559 36.6807 639.396 36.0367 639.396 35.318C639.396 34.5993 639.55 33.9553 639.858 33.386C640.175 32.8167 640.605 32.3733 641.146 32.056C641.697 31.7387 642.313 31.58 642.994 31.58C643.675 31.58 644.287 31.7387 644.828 32.056C645.369 32.3733 645.794 32.8167 646.102 33.386C646.41 33.946 646.564 34.59 646.564 35.318L646.55 35.626ZM642.994 32.434C642.285 32.434 641.687 32.6627 641.202 33.12C640.726 33.568 640.455 34.156 640.39 34.884H645.612C645.547 34.156 645.271 33.568 644.786 33.12C644.31 32.6627 643.713 32.434 642.994 32.434ZM659.258 31.636L656.472 39H655.534L653.21 32.966L650.886 39H649.948L647.176 31.636H648.128L650.438 37.894L652.804 31.636H653.658L656.01 37.894L658.348 31.636H659.258ZM671.139 28.612V39H670.187V37.544C669.889 38.0387 669.492 38.4167 668.997 38.678C668.512 38.9393 667.961 39.07 667.345 39.07C666.655 39.07 666.029 38.9113 665.469 38.594C664.909 38.2767 664.471 37.8333 664.153 37.264C663.836 36.6947 663.677 36.046 663.677 35.318C663.677 34.59 663.836 33.9413 664.153 33.372C664.471 32.8027 664.909 32.364 665.469 32.056C666.029 31.7387 666.655 31.58 667.345 31.58C667.943 31.58 668.479 31.706 668.955 31.958C669.441 32.2007 669.837 32.56 670.145 33.036V28.612H671.139ZM667.429 38.188C667.943 38.188 668.405 38.0713 668.815 37.838C669.235 37.5953 669.562 37.2547 669.795 36.816C670.038 36.3773 670.159 35.878 670.159 35.318C670.159 34.758 670.038 34.2587 669.795 33.82C669.562 33.3813 669.235 33.0453 668.815 32.812C668.405 32.5693 667.943 32.448 667.429 32.448C666.907 32.448 666.435 32.5693 666.015 32.812C665.605 33.0453 665.278 33.3813 665.035 33.82C664.802 34.2587 664.685 34.758 664.685 35.318C664.685 35.878 664.802 36.3773 665.035 36.816C665.278 37.2547 665.605 37.5953 666.015 37.838C666.435 38.0713 666.907 38.188 667.429 38.188ZM676.483 31.58C677.445 31.58 678.182 31.8227 678.695 32.308C679.209 32.784 679.465 33.4933 679.465 34.436V39H678.513V37.852C678.289 38.2347 677.958 38.5333 677.519 38.748C677.09 38.9627 676.577 39.07 675.979 39.07C675.158 39.07 674.505 38.874 674.019 38.482C673.534 38.09 673.291 37.572 673.291 36.928C673.291 36.3027 673.515 35.7987 673.963 35.416C674.421 35.0333 675.144 34.842 676.133 34.842H678.471V34.394C678.471 33.7593 678.294 33.2787 677.939 32.952C677.585 32.616 677.067 32.448 676.385 32.448C675.919 32.448 675.471 32.5273 675.041 32.686C674.612 32.8353 674.243 33.0453 673.935 33.316L673.487 32.574C673.861 32.2567 674.309 32.014 674.831 31.846C675.354 31.6687 675.905 31.58 676.483 31.58ZM676.133 38.286C676.693 38.286 677.174 38.16 677.575 37.908C677.977 37.6467 678.275 37.2733 678.471 36.788V35.584H676.161C674.901 35.584 674.271 36.0227 674.271 36.9C674.271 37.3293 674.435 37.67 674.761 37.922C675.088 38.1647 675.545 38.286 676.133 38.286ZM686.043 38.552C685.857 38.72 685.623 38.8507 685.343 38.944C685.073 39.028 684.788 39.07 684.489 39.07C683.799 39.07 683.267 38.8833 682.893 38.51C682.52 38.1367 682.333 37.6093 682.333 36.928V32.476H681.017V31.636H682.333V30.026H683.327V31.636H685.567V32.476H683.327V36.872C683.327 37.3107 683.435 37.6467 683.649 37.88C683.873 38.104 684.191 38.216 684.601 38.216C684.807 38.216 685.003 38.1833 685.189 38.118C685.385 38.0527 685.553 37.9593 685.693 37.838L686.043 38.552ZM690.429 31.58C691.39 31.58 692.127 31.8227 692.641 32.308C693.154 32.784 693.411 33.4933 693.411 34.436V39H692.459V37.852C692.235 38.2347 691.903 38.5333 691.465 38.748C691.035 38.9627 690.522 39.07 689.925 39.07C689.103 39.07 688.45 38.874 687.965 38.482C687.479 38.09 687.237 37.572 687.237 36.928C687.237 36.3027 687.461 35.7987 687.909 35.416C688.366 35.0333 689.089 34.842 690.079 34.842H692.417V34.394C692.417 33.7593 692.239 33.2787 691.885 32.952C691.53 32.616 691.012 32.448 690.331 32.448C689.864 32.448 689.416 32.5273 688.987 32.686C688.557 32.8353 688.189 33.0453 687.881 33.316L687.433 32.574C687.806 32.2567 688.254 32.014 688.777 31.846C689.299 31.6687 689.85 31.58 690.429 31.58ZM690.079 38.286C690.639 38.286 691.119 38.16 691.521 37.908C691.922 37.6467 692.221 37.2733 692.417 36.788V35.584H690.107C688.847 35.584 688.217 36.0227 688.217 36.9C688.217 37.3293 688.38 37.67 688.707 37.922C689.033 38.1647 689.491 38.286 690.079 38.286ZM633.688 56.07C632.96 56.07 632.307 55.9113 631.728 55.594C631.159 55.2767 630.711 54.8333 630.384 54.264C630.057 53.6853 629.894 53.0367 629.894 52.318C629.894 51.5993 630.057 50.9553 630.384 50.386C630.711 49.8167 631.159 49.3733 631.728 49.056C632.307 48.7387 632.96 48.58 633.688 48.58C634.323 48.58 634.887 48.706 635.382 48.958C635.886 49.2007 636.283 49.56 636.572 50.036L635.83 50.54C635.587 50.176 635.279 49.9053 634.906 49.728C634.533 49.5413 634.127 49.448 633.688 49.448C633.156 49.448 632.675 49.5693 632.246 49.812C631.826 50.0453 631.495 50.3813 631.252 50.82C631.019 51.2587 630.902 51.758 630.902 52.318C630.902 52.8873 631.019 53.3913 631.252 53.83C631.495 54.2593 631.826 54.5953 632.246 54.838C632.675 55.0713 633.156 55.188 633.688 55.188C634.127 55.188 634.533 55.0993 634.906 54.922C635.279 54.7447 635.587 54.474 635.83 54.11L636.572 54.614C636.283 55.09 635.886 55.454 635.382 55.706C634.878 55.9487 634.313 56.07 633.688 56.07ZM641.412 56.07C640.702 56.07 640.063 55.9113 639.494 55.594C638.924 55.2673 638.476 54.8193 638.15 54.25C637.823 53.6807 637.66 53.0367 637.66 52.318C637.66 51.5993 637.823 50.9553 638.15 50.386C638.476 49.8167 638.924 49.3733 639.494 49.056C640.063 48.7387 640.702 48.58 641.412 48.58C642.121 48.58 642.76 48.7387 643.33 49.056C643.899 49.3733 644.342 49.8167 644.66 50.386C644.986 50.9553 645.15 51.5993 645.15 52.318C645.15 53.0367 644.986 53.6807 644.66 54.25C644.342 54.8193 643.899 55.2673 643.33 55.594C642.76 55.9113 642.121 56.07 641.412 56.07ZM641.412 55.188C641.934 55.188 642.401 55.0713 642.812 54.838C643.232 54.5953 643.558 54.2547 643.792 53.816C644.025 53.3773 644.142 52.878 644.142 52.318C644.142 51.758 644.025 51.2587 643.792 50.82C643.558 50.3813 643.232 50.0453 642.812 49.812C642.401 49.5693 641.934 49.448 641.412 49.448C640.889 49.448 640.418 49.5693 639.998 49.812C639.587 50.0453 639.26 50.3813 639.018 50.82C638.784 51.2587 638.668 51.758 638.668 52.318C638.668 52.878 638.784 53.3773 639.018 53.816C639.26 54.2547 639.587 54.5953 639.998 54.838C640.418 55.0713 640.889 55.188 641.412 55.188ZM647.179 45.612H648.173V56H647.179V45.612ZM650.939 45.612H651.933V56H650.939V45.612ZM661.111 52.626H654.951C655.007 53.3913 655.301 54.012 655.833 54.488C656.365 54.9547 657.037 55.188 657.849 55.188C658.306 55.188 658.726 55.1087 659.109 54.95C659.491 54.782 659.823 54.5393 660.103 54.222L660.663 54.866C660.336 55.258 659.925 55.5567 659.431 55.762C658.945 55.9673 658.409 56.07 657.821 56.07C657.065 56.07 656.393 55.9113 655.805 55.594C655.226 55.2673 654.773 54.8193 654.447 54.25C654.12 53.6807 653.957 53.0367 653.957 52.318C653.957 51.5993 654.111 50.9553 654.419 50.386C654.736 49.8167 655.165 49.3733 655.707 49.056C656.257 48.7387 656.873 48.58 657.555 48.58C658.236 48.58 658.847 48.7387 659.389 49.056C659.93 49.3733 660.355 49.8167 660.663 50.386C660.971 50.946 661.125 51.59 661.125 52.318L661.111 52.626ZM657.555 49.434C656.845 49.434 656.248 49.6627 655.763 50.12C655.287 50.568 655.016 51.156 654.951 51.884H660.173C660.107 51.156 659.832 50.568 659.347 50.12C658.871 49.6627 658.273 49.434 657.555 49.434ZM666.2 56.07C665.472 56.07 664.818 55.9113 664.24 55.594C663.67 55.2767 663.222 54.8333 662.896 54.264C662.569 53.6853 662.406 53.0367 662.406 52.318C662.406 51.5993 662.569 50.9553 662.896 50.386C663.222 49.8167 663.67 49.3733 664.24 49.056C664.818 48.7387 665.472 48.58 666.2 48.58C666.834 48.58 667.399 48.706 667.894 48.958C668.398 49.2007 668.794 49.56 669.084 50.036L668.342 50.54C668.099 50.176 667.791 49.9053 667.418 49.728C667.044 49.5413 666.638 49.448 666.2 49.448C665.668 49.448 665.187 49.5693 664.758 49.812C664.338 50.0453 664.006 50.3813 663.764 50.82C663.53 51.2587 663.414 51.758 663.414 52.318C663.414 52.8873 663.53 53.3913 663.764 53.83C664.006 54.2593 664.338 54.5953 664.758 54.838C665.187 55.0713 665.668 55.188 666.2 55.188C666.638 55.188 667.044 55.0993 667.418 54.922C667.791 54.7447 668.099 54.474 668.342 54.11L669.084 54.614C668.794 55.09 668.398 55.454 667.894 55.706C667.39 55.9487 666.825 56.07 666.2 56.07ZM674.996 55.552C674.81 55.72 674.576 55.8507 674.296 55.944C674.026 56.028 673.741 56.07 673.442 56.07C672.752 56.07 672.22 55.8833 671.846 55.51C671.473 55.1367 671.286 54.6093 671.286 53.928V49.476H669.97V48.636H671.286V47.026H672.28V48.636H674.52V49.476H672.28V53.872C672.28 54.3107 672.388 54.6467 672.602 54.88C672.826 55.104 673.144 55.216 673.554 55.216C673.76 55.216 673.956 55.1833 674.142 55.118C674.338 55.0527 674.506 54.9593 674.646 54.838L674.996 55.552ZM676.806 48.636H677.8V56H676.806V48.636ZM677.31 47.026C677.105 47.026 676.932 46.956 676.792 46.816C676.652 46.676 676.582 46.508 676.582 46.312C676.582 46.1253 676.652 45.962 676.792 45.822C676.932 45.682 677.105 45.612 677.31 45.612C677.515 45.612 677.688 45.682 677.828 45.822C677.968 45.9527 678.038 46.1113 678.038 46.298C678.038 46.5033 677.968 46.676 677.828 46.816C677.688 46.956 677.515 47.026 677.31 47.026ZM683.576 56.07C682.866 56.07 682.227 55.9113 681.658 55.594C681.088 55.2673 680.64 54.8193 680.314 54.25C679.987 53.6807 679.824 53.0367 679.824 52.318C679.824 51.5993 679.987 50.9553 680.314 50.386C680.64 49.8167 681.088 49.3733 681.658 49.056C682.227 48.7387 682.866 48.58 683.576 48.58C684.285 48.58 684.924 48.7387 685.494 49.056C686.063 49.3733 686.506 49.8167 686.824 50.386C687.15 50.9553 687.314 51.5993 687.314 52.318C687.314 53.0367 687.15 53.6807 686.824 54.25C686.506 54.8193 686.063 55.2673 685.494 55.594C684.924 55.9113 684.285 56.07 683.576 56.07ZM683.576 55.188C684.098 55.188 684.565 55.0713 684.976 54.838C685.396 54.5953 685.722 54.2547 685.956 53.816C686.189 53.3773 686.306 52.878 686.306 52.318C686.306 51.758 686.189 51.2587 685.956 50.82C685.722 50.3813 685.396 50.0453 684.976 49.812C684.565 49.5693 684.098 49.448 683.576 49.448C683.053 49.448 682.582 49.5693 682.162 49.812C681.751 50.0453 681.424 50.3813 681.182 50.82C680.948 51.2587 680.832 51.758 680.832 52.318C680.832 52.878 680.948 53.3773 681.182 53.816C681.424 54.2547 681.751 54.5953 682.162 54.838C682.582 55.0713 683.053 55.188 683.576 55.188ZM693.095 48.58C694.019 48.58 694.752 48.8507 695.293 49.392C695.844 49.924 696.119 50.7033 696.119 51.73V56H695.125V51.828C695.125 51.0627 694.934 50.4793 694.551 50.078C694.168 49.6767 693.622 49.476 692.913 49.476C692.12 49.476 691.49 49.714 691.023 50.19C690.566 50.6567 690.337 51.3053 690.337 52.136V56H689.343V48.636H690.295V49.994C690.566 49.546 690.939 49.2007 691.415 48.958C691.9 48.706 692.46 48.58 693.095 48.58ZM633.212 65.58C634.173 65.58 634.911 65.8227 635.424 66.308C635.937 66.784 636.194 67.4933 636.194 68.436V73H635.242V71.852C635.018 72.2347 634.687 72.5333 634.248 72.748C633.819 72.9627 633.305 73.07 632.708 73.07C631.887 73.07 631.233 72.874 630.748 72.482C630.263 72.09 630.02 71.572 630.02 70.928C630.02 70.3027 630.244 69.7987 630.692 69.416C631.149 69.0333 631.873 68.842 632.862 68.842H635.2V68.394C635.2 67.7593 635.023 67.2787 634.668 66.952C634.313 66.616 633.795 66.448 633.114 66.448C632.647 66.448 632.199 66.5273 631.77 66.686C631.341 66.8353 630.972 67.0453 630.664 67.316L630.216 66.574C630.589 66.2567 631.037 66.014 631.56 65.846C632.083 65.6687 632.633 65.58 633.212 65.58ZM632.862 72.286C633.422 72.286 633.903 72.16 634.304 71.908C634.705 71.6467 635.004 71.2733 635.2 70.788V69.584H632.89C631.63 69.584 631 70.0227 631 70.9C631 71.3293 631.163 71.67 631.49 71.922C631.817 72.1647 632.274 72.286 632.862 72.286ZM642.646 65.58C643.57 65.58 644.302 65.8507 644.844 66.392C645.394 66.924 645.67 67.7033 645.67 68.73V73H644.676V68.828C644.676 68.0627 644.484 67.4793 644.102 67.078C643.719 66.6767 643.173 66.476 642.464 66.476C641.67 66.476 641.04 66.714 640.574 67.19C640.116 67.6567 639.888 68.3053 639.888 69.136V73H638.894V65.636H639.846V66.994C640.116 66.546 640.49 66.2007 640.966 65.958C641.451 65.706 642.011 65.58 642.646 65.58ZM655.116 62.612V73H654.164V71.544C653.865 72.0387 653.468 72.4167 652.974 72.678C652.488 72.9393 651.938 73.07 651.322 73.07C650.631 73.07 650.006 72.9113 649.446 72.594C648.886 72.2767 648.447 71.8333 648.13 71.264C647.812 70.6947 647.654 70.046 647.654 69.318C647.654 68.59 647.812 67.9413 648.13 67.372C648.447 66.8027 648.886 66.364 649.446 66.056C650.006 65.7387 650.631 65.58 651.322 65.58C651.919 65.58 652.456 65.706 652.932 65.958C653.417 66.2007 653.814 66.56 654.122 67.036V62.612H655.116ZM651.406 72.188C651.919 72.188 652.381 72.0713 652.792 71.838C653.212 71.5953 653.538 71.2547 653.772 70.816C654.014 70.3773 654.136 69.878 654.136 69.318C654.136 68.758 654.014 68.2587 653.772 67.82C653.538 67.3813 653.212 67.0453 652.792 66.812C652.381 66.5693 651.919 66.448 651.406 66.448C650.883 66.448 650.412 66.5693 649.992 66.812C649.581 67.0453 649.254 67.3813 649.012 67.82C648.778 68.2587 648.662 68.758 648.662 69.318C648.662 69.878 648.778 70.3773 649.012 70.816C649.254 71.2547 649.581 71.5953 649.992 71.838C650.412 72.0713 650.883 72.188 651.406 72.188ZM664.558 73.07C663.849 73.07 663.209 72.9113 662.64 72.594C662.071 72.2673 661.623 71.8193 661.296 71.25C660.969 70.6807 660.806 70.0367 660.806 69.318C660.806 68.5993 660.969 67.9553 661.296 67.386C661.623 66.8167 662.071 66.3733 662.64 66.056C663.209 65.7387 663.849 65.58 664.558 65.58C665.267 65.58 665.907 65.7387 666.476 66.056C667.045 66.3733 667.489 66.8167 667.806 67.386C668.133 67.9553 668.296 68.5993 668.296 69.318C668.296 70.0367 668.133 70.6807 667.806 71.25C667.489 71.8193 667.045 72.2673 666.476 72.594C665.907 72.9113 665.267 73.07 664.558 73.07ZM664.558 72.188C665.081 72.188 665.547 72.0713 665.958 71.838C666.378 71.5953 666.705 71.2547 666.938 70.816C667.171 70.3773 667.288 69.878 667.288 69.318C667.288 68.758 667.171 68.2587 666.938 67.82C666.705 67.3813 666.378 67.0453 665.958 66.812C665.547 66.5693 665.081 66.448 664.558 66.448C664.035 66.448 663.564 66.5693 663.144 66.812C662.733 67.0453 662.407 67.3813 662.164 67.82C661.931 68.2587 661.814 68.758 661.814 69.318C661.814 69.878 661.931 70.3773 662.164 70.816C662.407 71.2547 662.733 71.5953 663.144 71.838C663.564 72.0713 664.035 72.188 664.558 72.188ZM674.119 65.58C674.81 65.58 675.435 65.7387 675.995 66.056C676.555 66.364 676.994 66.8027 677.311 67.372C677.629 67.9413 677.787 68.59 677.787 69.318C677.787 70.0553 677.629 70.7087 677.311 71.278C676.994 71.8473 676.555 72.2907 675.995 72.608C675.445 72.916 674.819 73.07 674.119 73.07C673.522 73.07 672.981 72.9487 672.495 72.706C672.019 72.454 671.627 72.09 671.319 71.614V75.716H670.325V65.636H671.277V67.092C671.576 66.6067 671.968 66.2333 672.453 65.972C672.948 65.7107 673.503 65.58 674.119 65.58ZM674.049 72.188C674.563 72.188 675.029 72.0713 675.449 71.838C675.869 71.5953 676.196 71.2547 676.429 70.816C676.672 70.3773 676.793 69.878 676.793 69.318C676.793 68.758 676.672 68.2633 676.429 67.834C676.196 67.3953 675.869 67.0547 675.449 66.812C675.029 66.5693 674.563 66.448 674.049 66.448C673.527 66.448 673.055 66.5693 672.635 66.812C672.225 67.0547 671.898 67.3953 671.655 67.834C671.422 68.2633 671.305 68.758 671.305 69.318C671.305 69.878 671.422 70.3773 671.655 70.816C671.898 71.2547 672.225 71.5953 672.635 71.838C673.055 72.0713 673.527 72.188 674.049 72.188ZM683.692 72.552C683.505 72.72 683.272 72.8507 682.992 72.944C682.721 73.028 682.436 73.07 682.138 73.07C681.447 73.07 680.915 72.8833 680.542 72.51C680.168 72.1367 679.982 71.6093 679.982 70.928V66.476H678.666V65.636H679.982V64.026H680.976V65.636H683.216V66.476H680.976V70.872C680.976 71.3107 681.083 71.6467 681.298 71.88C681.522 72.104 681.839 72.216 682.25 72.216C682.455 72.216 682.651 72.1833 682.838 72.118C683.034 72.0527 683.202 71.9593 683.342 71.838L683.692 72.552ZM685.501 65.636H686.495V73H685.501V65.636ZM686.005 64.026C685.8 64.026 685.627 63.956 685.487 63.816C685.347 63.676 685.277 63.508 685.277 63.312C685.277 63.1253 685.347 62.962 685.487 62.822C685.627 62.682 685.8 62.612 686.005 62.612C686.211 62.612 686.383 62.682 686.523 62.822C686.663 62.9527 686.733 63.1113 686.733 63.298C686.733 63.5033 686.663 63.676 686.523 63.816C686.383 63.956 686.211 64.026 686.005 64.026ZM698.445 65.58C699.369 65.58 700.092 65.846 700.615 66.378C701.147 66.91 701.413 67.694 701.413 68.73V73H700.419V68.828C700.419 68.0627 700.232 67.4793 699.859 67.078C699.495 66.6767 698.977 66.476 698.305 66.476C697.54 66.476 696.938 66.714 696.499 67.19C696.06 67.6567 695.841 68.3053 695.841 69.136V73H694.847V68.828C694.847 68.0627 694.66 67.4793 694.287 67.078C693.923 66.6767 693.4 66.476 692.719 66.476C691.963 66.476 691.361 66.714 690.913 67.19C690.474 67.6567 690.255 68.3053 690.255 69.136V73H689.261V65.636H690.213V66.98C690.474 66.532 690.838 66.1867 691.305 65.944C691.772 65.7013 692.308 65.58 692.915 65.58C693.531 65.58 694.063 65.7107 694.511 65.972C694.968 66.2333 695.309 66.6207 695.533 67.134C695.804 66.6487 696.191 66.2707 696.695 66C697.208 65.72 697.792 65.58 698.445 65.58ZM704.109 65.636H705.103V73H704.109V65.636ZM704.613 64.026C704.407 64.026 704.235 63.956 704.095 63.816C703.955 63.676 703.885 63.508 703.885 63.312C703.885 63.1253 703.955 62.962 704.095 62.822C704.235 62.682 704.407 62.612 704.613 62.612C704.818 62.612 704.991 62.682 705.131 62.822C705.271 62.9527 705.341 63.1113 705.341 63.298C705.341 63.5033 705.271 63.676 705.131 63.816C704.991 63.956 704.818 64.026 704.613 64.026ZM713.062 72.174V73H707.07V72.342L711.704 66.476H707.154V65.636H712.978V66.294L708.344 72.174H713.062ZM717.595 65.58C718.556 65.58 719.293 65.8227 719.807 66.308C720.32 66.784 720.577 67.4933 720.577 68.436V73H719.625V71.852C719.401 72.2347 719.069 72.5333 718.631 72.748C718.201 72.9627 717.688 73.07 717.091 73.07C716.269 73.07 715.616 72.874 715.131 72.482C714.645 72.09 714.403 71.572 714.403 70.928C714.403 70.3027 714.627 69.7987 715.075 69.416C715.532 69.0333 716.255 68.842 717.245 68.842H719.583V68.394C719.583 67.7593 719.405 67.2787 719.051 66.952C718.696 66.616 718.178 66.448 717.497 66.448C717.03 66.448 716.582 66.5273 716.153 66.686C715.723 66.8353 715.355 67.0453 715.047 67.316L714.599 66.574C714.972 66.2567 715.42 66.014 715.943 65.846C716.465 65.6687 717.016 65.58 717.595 65.58ZM717.245 72.286C717.805 72.286 718.285 72.16 718.687 71.908C719.088 71.6467 719.387 71.2733 719.583 70.788V69.584H717.273C716.013 69.584 715.383 70.0227 715.383 70.9C715.383 71.3293 715.546 71.67 715.873 71.922C716.199 72.1647 716.657 72.286 717.245 72.286ZM727.155 72.552C726.968 72.72 726.735 72.8507 726.455 72.944C726.184 73.028 725.899 73.07 725.601 73.07C724.91 73.07 724.378 72.8833 724.005 72.51C723.631 72.1367 723.445 71.6093 723.445 70.928V66.476H722.129V65.636H723.445V64.026H724.439V65.636H726.679V66.476H724.439V70.872C724.439 71.3107 724.546 71.6467 724.761 71.88C724.985 72.104 725.302 72.216 725.713 72.216C725.918 72.216 726.114 72.1833 726.301 72.118C726.497 72.0527 726.665 71.9593 726.805 71.838L727.155 72.552ZM728.964 65.636H729.958V73H728.964V65.636ZM729.468 64.026C729.263 64.026 729.09 63.956 728.95 63.816C728.81 63.676 728.74 63.508 728.74 63.312C728.74 63.1253 728.81 62.962 728.95 62.822C729.09 62.682 729.263 62.612 729.468 62.612C729.673 62.612 729.846 62.682 729.986 62.822C730.126 62.9527 730.196 63.1113 730.196 63.298C730.196 63.5033 730.126 63.676 729.986 63.816C729.846 63.956 729.673 64.026 729.468 64.026ZM735.734 73.07C735.025 73.07 734.385 72.9113 733.816 72.594C733.247 72.2673 732.799 71.8193 732.472 71.25C732.145 70.6807 731.982 70.0367 731.982 69.318C731.982 68.5993 732.145 67.9553 732.472 67.386C732.799 66.8167 733.247 66.3733 733.816 66.056C734.385 65.7387 735.025 65.58 735.734 65.58C736.443 65.58 737.083 65.7387 737.652 66.056C738.221 66.3733 738.665 66.8167 738.982 67.386C739.309 67.9553 739.472 68.5993 739.472 69.318C739.472 70.0367 739.309 70.6807 738.982 71.25C738.665 71.8193 738.221 72.2673 737.652 72.594C737.083 72.9113 736.443 73.07 735.734 73.07ZM735.734 72.188C736.257 72.188 736.723 72.0713 737.134 71.838C737.554 71.5953 737.881 71.2547 738.114 70.816C738.347 70.3773 738.464 69.878 738.464 69.318C738.464 68.758 738.347 68.2587 738.114 67.82C737.881 67.3813 737.554 67.0453 737.134 66.812C736.723 66.5693 736.257 66.448 735.734 66.448C735.211 66.448 734.74 66.5693 734.32 66.812C733.909 67.0453 733.583 67.3813 733.34 67.82C733.107 68.2587 732.99 68.758 732.99 69.318C732.99 69.878 733.107 70.3773 733.34 70.816C733.583 71.2547 733.909 71.5953 734.32 71.838C734.74 72.0713 735.211 72.188 735.734 72.188ZM745.253 65.58C746.177 65.58 746.91 65.8507 747.451 66.392C748.002 66.924 748.277 67.7033 748.277 68.73V73H747.283V68.828C747.283 68.0627 747.092 67.4793 746.709 67.078C746.327 66.6767 745.781 66.476 745.071 66.476C744.278 66.476 743.648 66.714 743.181 67.19C742.724 67.6567 742.495 68.3053 742.495 69.136V73H741.501V65.636H742.453V66.994C742.724 66.546 743.097 66.2007 743.573 65.958C744.059 65.706 744.619 65.58 745.253 65.58Z" fill="#2C2F32"/>
<rect x="605.75" y="0.5" width="176.75" height="100" stroke="#2C2F32"/>
<path d="M698 133H698.5V133.5H698V133ZM290 133V133.5H289.5V133H290ZM289.646 100.646C289.842 100.451 290.158 100.451 290.354 100.646L293.536 103.828C293.731 104.024 293.731 104.34 293.536 104.536C293.34 104.731 293.024 104.731 292.828 104.536L290 101.707L287.172 104.536C286.976 104.731 286.66 104.731 286.464 104.536C286.269 104.34 286.269 104.024 286.464 103.828L289.646 100.646ZM698.5 101V133H697.5V101H698.5ZM698 133.5H290V132.5H698V133.5ZM289.5 133V101H290.5V133H289.5Z" fill="#2C2F32"/>
</svg>
