<svg width="72" height="65" viewBox="0 0 72 65" fill="none" xmlns="http://www.w3.org/2000/svg">
<path fill-rule="evenodd" clip-rule="evenodd" d="M37.3516 3.29458L69.7801 60.0833C70.4101 61.1867 69.6006 62.5 68.4284 62.5H3.5715C2.39936 62.5 1.58979 61.1867 2.21985 60.0833L34.6483 3.29458C35.2533 2.23514 36.7466 2.23514 37.3516 3.29458ZM32.9115 2.30282C34.2842 -0.10094 37.7158 -0.100939 39.0884 2.30282L71.5169 59.0915C72.8895 61.4953 71.1737 64.5 68.4284 64.5H3.5715C0.826228 64.5 -0.889562 61.4953 0.483071 59.0915L32.9115 2.30282ZM37.904 28.5H34.288L34.864 43.828H37.296L37.904 28.5ZM34.608 50.516C35.0133 50.9 35.5147 51.092 36.112 51.092C36.688 51.092 37.168 50.9 37.552 50.516C37.9573 50.1107 38.16 49.62 38.16 49.044C38.16 48.468 37.968 47.988 37.584 47.604C37.2 47.1987 36.7093 46.996 36.112 46.996C35.5147 46.996 35.0133 47.1987 34.608 47.604C34.2027 47.988 34 48.468 34 49.044C34 49.62 34.2027 50.1107 34.608 50.516Z" fill="#E1E7EC"/>
</svg>
