<svg width="16" height="16" viewBox="0 0 16 16" fill="none" xmlns="http://www.w3.org/2000/svg">
<path fill-rule="evenodd" clip-rule="evenodd" d="M8.00067 0C5.828 0 5.55533 0.0095 4.702 0.0483333C3.85033 0.0873333 3.269 0.222167 2.76033 0.42C2.23417 0.624333 1.78783 0.897667 1.34317 1.3425C0.898167 1.78717 0.624833 2.2335 0.419833 2.7595C0.2215 3.26833 0.0865 3.84983 0.0481666 4.70117C0.01 5.5545 0 5.82733 0 8C0 10.1727 0.00966665 10.4445 0.0483333 11.2978C0.0875 12.1495 0.222333 12.7308 0.42 13.2395C0.6245 13.7657 0.897833 14.212 1.34267 14.6567C1.78717 15.1017 2.2335 15.3757 2.75933 15.58C3.26833 15.7778 3.84983 15.9127 4.70133 15.9517C5.55467 15.9905 5.82717 16 7.99967 16C10.1725 16 10.4443 15.9905 11.2977 15.9517C12.1493 15.9127 12.7313 15.7778 13.2403 15.58C13.7663 15.3757 14.212 15.1017 14.6565 14.6567C15.1015 14.212 15.3748 13.7657 15.5798 13.2397C15.7765 12.7308 15.9115 12.1493 15.9515 11.298C15.9898 10.4447 15.9998 10.1727 15.9998 8C15.9998 5.82733 15.9898 5.55467 15.9515 4.70133C15.9115 3.84967 15.7765 3.26833 15.5798 2.75967C15.3748 2.2335 15.1015 1.78717 14.6565 1.3425C14.2115 0.8975 13.7665 0.624167 13.2398 0.42C12.7298 0.222167 12.1482 0.0873333 11.2965 0.0483333C10.4432 0.0095 10.1715 0 7.99817 0H8.00067ZM7.73403 1.44159L8.00067 1.44167C10.1367 1.44167 10.3898 1.44933 11.2333 1.48767C12.0133 1.52333 12.4367 1.65367 12.7187 1.76317C13.092 1.90817 13.3582 2.0815 13.638 2.3615C13.918 2.6415 14.0913 2.90817 14.2367 3.2815C14.3462 3.56317 14.4767 3.9865 14.5122 4.7665C14.5505 5.60983 14.5588 5.86317 14.5588 7.99817C14.5588 10.1332 14.5505 10.3865 14.5122 11.2298C14.4765 12.0098 14.3462 12.4332 14.2367 12.7148C14.0917 13.0882 13.918 13.354 13.638 13.6338C13.358 13.9138 13.0922 14.0872 12.7187 14.2322C12.437 14.3422 12.0133 14.4722 11.2333 14.5078C10.39 14.5462 10.1367 14.5545 8.00067 14.5545C5.8645 14.5545 5.61133 14.5462 4.768 14.5078C3.988 14.4718 3.56467 14.3415 3.2825 14.232C2.90917 14.087 2.6425 13.9137 2.3625 13.6337C2.0825 13.3537 1.90917 13.0877 1.76383 12.7142C1.65433 12.4325 1.52383 12.0092 1.48833 11.2292C1.45 10.3858 1.44233 10.1325 1.44233 7.99617C1.44233 5.85983 1.45 5.60783 1.48833 4.7645C1.524 3.9845 1.65433 3.56117 1.76383 3.27917C1.90883 2.90583 2.0825 2.63917 2.3625 2.35917C2.6425 2.07917 2.90917 1.90583 3.2825 1.7605C3.5645 1.6505 3.988 1.5205 4.768 1.48467C5.506 1.45133 5.792 1.44133 7.283 1.43967V1.44167C7.4223 1.44145 7.57233 1.44152 7.73403 1.44159ZM11.311 3.72967C11.311 3.1995 11.741 2.77 12.271 2.77C12.801 2.77 13.231 3.19967 13.231 3.72967C13.231 4.25967 12.801 4.68967 12.271 4.68967C11.741 4.68967 11.311 4.25967 11.311 3.72967ZM8.0005 3.89167C5.73174 3.89175 3.89233 5.73122 3.89233 8C3.89233 10.2688 5.73183 12.1075 8.00067 12.1075C10.2695 12.1075 12.1083 10.2688 12.1083 8C12.1083 5.73117 10.2693 3.89167 8.0005 3.89167ZM10.6673 8C10.6673 6.52717 9.47333 5.33333 8.00067 5.33333C6.52783 5.33333 5.334 6.52717 5.334 8C5.334 9.47267 6.52783 10.6667 8.00067 10.6667C9.47333 10.6667 10.6673 9.47267 10.6673 8Z" fill="#E1E7EC"/>
</svg>
