<svg width="375" height="596" viewBox="0 0 375 596" fill="none" xmlns="http://www.w3.org/2000/svg">
<g clip-path="url(#clip0_1702_28811)">
<path d="M516 -13.5L56 600.5M84 615.5L516 -45M555.5 117.5L0 349.5M0 280.5L555.5 106.5M-40 679L203.5 -45M261.5 -64L144 697.5M525.5 329L224.5 716.5M190.5 697.5L817.5 117.5M-86 504.5L516 -120" stroke="#0E3E54"/>
<path d="M414 610L-46 -4M-18 -19L414 641.5M453.5 479L-102 247M-102 316L453.5 490M-63 91.5L101.5 641.5M159.5 660.5L42 -101M423.5 267.5L122.5 -120M88.5 -101L715.5 479M-80 190.5L414 716.5" stroke="#AF242A"/>
</g>
<defs>
<clipPath id="clip0_1702_28811">
<rect width="375" height="596" fill="white"/>
</clipPath>
</defs>
</svg>
