<svg width="146" height="12" viewBox="0 0 146 12" fill="none" xmlns="http://www.w3.org/2000/svg">
<path d="M4.84251 0.166667C5.86257 0.166667 6.74812 0.333333 7.49916 0.666667C8.26141 1 8.8443 1.47778 9.24785 2.1C9.65139 2.72222 9.85316 3.46111 9.85316 4.31667C9.85316 5.16111 9.65139 5.9 9.24785 6.53333C8.8443 7.15556 8.26141 7.63333 7.49916 7.96667C6.74812 8.3 5.86257 8.46667 4.84251 8.46667H2.18585V11.8333H0V0.166667H4.84251ZM4.74162 6.63333C5.69443 6.63333 6.41744 6.43333 6.91066 6.03333C7.40388 5.63333 7.65049 5.06111 7.65049 4.31667C7.65049 3.57222 7.40388 3 6.91066 2.6C6.41744 2.2 5.69443 2 4.74162 2H0V6.63333H4.74162Z" fill="#2C2F32"/>
<path d="M24.7812 11.8333L22.3768 8.41667C22.2759 8.42778 22.1245 8.43333 21.9228 8.43333H19.2661V11.8333H17.0803V0.166667H21.9228C22.9428 0.166667 23.8284 0.333333 24.5794 0.666667C25.3417 1 25.9246 1.47778 26.3281 2.1C26.7317 2.72222 26.9334 3.46111 26.9334 4.31667C26.9334 5.19444 26.7148 5.95 26.2777 6.58333C25.8517 7.21667 25.2352 7.68889 24.4281 8L27.1352 11.8333H24.7812ZM24.7308 4.31667C24.7308 3.57222 24.4842 3 23.9909 2.6C23.4977 2.2 22.7747 2 21.8219 2H17.0803V6.65H21.8219C22.7747 6.65 23.4977 6.45 23.9909 6.05C24.4842 5.63889 24.7308 5.06111 24.7308 4.31667Z" fill="#2C2F32"/>
<path d="M39.9215 12C38.7221 12 37.6404 11.7444 36.6764 11.2333C35.7124 10.7111 34.9557 9.99444 34.4064 9.08333C33.8572 8.16111 33.5826 7.13333 33.5826 6C33.5826 4.86667 33.8572 3.84444 34.4064 2.93333C34.9557 2.01111 35.7124 1.29444 36.6764 0.783333C37.6404 0.261111 38.7221 0 39.9215 0C41.1209 0 42.2027 0.261111 43.1667 0.783333C44.1307 1.29444 44.8873 2.00556 45.4366 2.91667C45.9859 3.82778 46.2605 4.85556 46.2605 6C46.2605 7.14444 45.9859 8.17222 45.4366 9.08333C44.8873 9.99444 44.1307 10.7111 43.1667 11.2333C42.2027 11.7444 41.1209 12 39.9215 12ZM39.9215 10.1C40.7062 10.1 41.4124 9.92778 42.0401 9.58333C42.6679 9.22778 43.1611 8.73889 43.5198 8.11667C43.8785 7.48333 44.0578 6.77778 44.0578 6C44.0578 5.22222 43.8785 4.52222 43.5198 3.9C43.1611 3.26667 42.6679 2.77778 42.0401 2.43333C41.4124 2.07778 40.7062 1.9 39.9215 1.9C39.1369 1.9 38.4307 2.07778 37.8029 2.43333C37.1752 2.77778 36.682 3.26667 36.3233 3.9C35.9646 4.52222 35.7852 5.22222 35.7852 6C35.7852 6.77778 35.9646 7.48333 36.3233 8.11667C36.682 8.73889 37.1752 9.22778 37.8029 9.58333C38.4307 9.92778 39.1369 10.1 39.9215 10.1Z" fill="#2C2F32"/>
<path d="M61.659 5.86667H63.7271V10.5167C63.1218 10.9944 62.4156 11.3611 61.6085 11.6167C60.8014 11.8722 59.9719 12 59.12 12C57.9206 12 56.8389 11.7444 55.8748 11.2333C54.9108 10.7111 54.1542 9.99444 53.6049 9.08333C53.0557 8.17222 52.781 7.14444 52.781 6C52.781 4.85556 53.0557 3.82778 53.6049 2.91667C54.1542 2.00556 54.9108 1.29444 55.8748 0.783333C56.8501 0.261111 57.943 0 59.1536 0C60.1401 0 61.0368 0.161111 61.8439 0.483333C62.651 0.805556 63.3292 1.27778 63.8784 1.9L62.4997 3.23333C61.6029 2.34444 60.5212 1.9 59.2545 1.9C58.425 1.9 57.6852 2.07222 57.035 2.41667C56.3961 2.76111 55.8917 3.24444 55.5218 3.86667C55.163 4.48889 54.9837 5.2 54.9837 6C54.9837 6.77778 55.163 7.47778 55.5218 8.1C55.8917 8.72222 56.3961 9.21111 57.035 9.56667C57.6852 9.92222 58.4194 10.1 59.2377 10.1C60.1569 10.1 60.964 9.9 61.659 9.5V5.86667Z" fill="#2C2F32"/>
<path d="M82.466 11.8333L82.4491 4.1L78.5819 10.5H77.6066L73.7393 4.2V11.8333H71.6544V0.166667H73.4535L78.1279 7.9L82.7182 0.166667H84.5173L84.5341 11.8333H82.466Z" fill="#2C2F32"/>
<path d="M100.391 9.13333H94.5063L93.3461 11.8333H91.093L96.3895 0.166667H98.5417L103.855 11.8333H101.568L100.391 9.13333ZM99.6683 7.43333L97.4488 2.33333L95.2461 7.43333H99.6683Z" fill="#2C2F32"/>
<path d="M112.193 2H108.292V0.166667H118.279V2H114.379V11.8333H112.193V2Z" fill="#2C2F32"/>
<path d="M124.964 0.166667H127.15V11.8333H124.964V0.166667Z" fill="#2C2F32"/>
<path d="M140.826 12C139.637 12 138.561 11.7444 137.597 11.2333C136.644 10.7111 135.893 9.99444 135.344 9.08333C134.806 8.17222 134.537 7.14444 134.537 6C134.537 4.85556 134.812 3.82778 135.361 2.91667C135.91 2.00556 136.661 1.29444 137.614 0.783333C138.578 0.261111 139.654 0 140.842 0C141.806 0 142.686 0.166667 143.482 0.5C144.278 0.833333 144.951 1.31667 145.5 1.95L144.088 3.26667C143.236 2.35556 142.188 1.9 140.943 1.9C140.136 1.9 139.413 2.07778 138.774 2.43333C138.135 2.77778 137.637 3.26111 137.278 3.88333C136.919 4.50556 136.74 5.21111 136.74 6C136.74 6.78889 136.919 7.49445 137.278 8.11667C137.637 8.73889 138.135 9.22778 138.774 9.58333C139.413 9.92778 140.136 10.1 140.943 10.1C142.188 10.1 143.236 9.63889 144.088 8.71667L145.5 10.05C144.951 10.6833 144.273 11.1667 143.465 11.5C142.67 11.8333 141.79 12 140.826 12Z" fill="#2C2F32"/>
</svg>
