<svg width="960" height="1056" viewBox="0 0 960 1056" fill="none" xmlns="http://www.w3.org/2000/svg">
<path d="M50 37.6055H54" stroke="#2C2F32"/>
<path d="M50 75.2148H54" stroke="#2C2F32"/>
<path d="M50 112.82H54" stroke="#2C2F32"/>
<path d="M50 150.43H54" stroke="#2C2F32"/>
<path d="M50 188.035H54" stroke="#2C2F32"/>
<path d="M50 225.645H54" stroke="#2C2F32"/>
<path d="M50 263.25H54" stroke="#2C2F32"/>
<path d="M50 301.285H54" stroke="#2C2F32" stroke-width="4"/>
<path d="M9.64488 303.863H3.40488L2.06088 306.855H0.828875L5.94888 295.655H7.11688L12.2369 306.855H10.9889L9.64488 303.863ZM9.21288 302.903L6.52488 296.887L3.83688 302.903H9.21288ZM18.1856 298.375C18.975 298.375 19.6896 298.557 20.3296 298.919C20.9696 299.271 21.471 299.773 21.8336 300.423C22.1963 301.074 22.3776 301.815 22.3776 302.647C22.3776 303.49 22.1963 304.237 21.8336 304.887C21.471 305.538 20.9696 306.045 20.3296 306.407C19.7003 306.759 18.9856 306.935 18.1856 306.935C17.503 306.935 16.8843 306.797 16.3296 306.519C15.7856 306.231 15.3376 305.815 14.9856 305.271V309.959H13.8496V298.439H14.9376V300.103C15.279 299.549 15.727 299.122 16.2816 298.823C16.847 298.525 17.4816 298.375 18.1856 298.375ZM18.1056 305.927C18.6923 305.927 19.2256 305.794 19.7056 305.527C20.1856 305.25 20.559 304.861 20.8256 304.359C21.103 303.858 21.2416 303.287 21.2416 302.647C21.2416 302.007 21.103 301.442 20.8256 300.951C20.559 300.45 20.1856 300.061 19.7056 299.783C19.2256 299.506 18.6923 299.367 18.1056 299.367C17.5083 299.367 16.9696 299.506 16.4896 299.783C16.0203 300.061 15.647 300.45 15.3696 300.951C15.103 301.442 14.9696 302.007 14.9696 302.647C14.9696 303.287 15.103 303.858 15.3696 304.359C15.647 304.861 16.0203 305.25 16.4896 305.527C16.9696 305.794 17.5083 305.927 18.1056 305.927ZM25.7814 300.087C26.048 299.522 26.4427 299.095 26.9654 298.807C27.4987 298.519 28.1547 298.375 28.9334 298.375V299.479L28.6614 299.463C27.776 299.463 27.0827 299.735 26.5814 300.279C26.08 300.823 25.8294 301.586 25.8294 302.567V306.855H24.6934V298.439H25.7814V300.087ZM30.9903 298.439H32.1263V306.855H30.9903V298.439ZM31.5663 296.599C31.3316 296.599 31.1343 296.519 30.9743 296.359C30.8143 296.199 30.7343 296.007 30.7343 295.783C30.7343 295.57 30.8143 295.383 30.9743 295.223C31.1343 295.063 31.3316 294.983 31.5663 294.983C31.8009 294.983 31.9983 295.063 32.1583 295.223C32.3183 295.373 32.3983 295.554 32.3983 295.767C32.3983 296.002 32.3183 296.199 32.1583 296.359C31.9983 296.519 31.8009 296.599 31.5663 296.599ZM35.2871 294.983H36.4231V306.855H35.2871V294.983Z" fill="#2C2F32"/>
<path d="M50 339.465H54" stroke="#2C2F32"/>
<path d="M50 377.07H54" stroke="#2C2F32"/>
<circle r="4" transform="matrix(1 0 0 -1 54 415.18)" fill="#2C2F32"/>
<path d="M8.69875 419.656V420.68H0.84275V419.864L5.49875 415.304C6.08542 414.728 6.48008 414.232 6.68275 413.816C6.89608 413.389 7.00275 412.962 7.00275 412.536C7.00275 411.874 6.77342 411.362 6.31475 411C5.86675 410.626 5.22142 410.44 4.37875 410.44C3.06675 410.44 2.04808 410.856 1.32275 411.688L0.50675 410.984C0.944083 410.472 1.49875 410.077 2.17075 409.8C2.85342 409.522 3.62142 409.384 4.47475 409.384C5.61608 409.384 6.51742 409.656 7.17875 410.2C7.85075 410.733 8.18675 411.469 8.18675 412.408C8.18675 412.984 8.05875 413.538 7.80275 414.072C7.54675 414.605 7.06142 415.218 6.34675 415.912L2.53875 419.656H8.69875ZM14.546 420.776C13.682 420.776 12.9087 420.546 12.226 420.088C11.554 419.629 11.026 418.973 10.642 418.12C10.2687 417.256 10.082 416.242 10.082 415.08C10.082 413.917 10.2687 412.909 10.642 412.056C11.026 411.192 11.554 410.53 12.226 410.072C12.9087 409.613 13.682 409.384 14.546 409.384C15.41 409.384 16.178 409.613 16.85 410.072C17.5327 410.53 18.066 411.192 18.45 412.056C18.834 412.909 19.026 413.917 19.026 415.08C19.026 416.242 18.834 417.256 18.45 418.12C18.066 418.973 17.5327 419.629 16.85 420.088C16.178 420.546 15.41 420.776 14.546 420.776ZM14.546 419.72C15.1967 419.72 15.7673 419.538 16.258 419.176C16.7593 418.813 17.1487 418.285 17.426 417.592C17.7033 416.898 17.842 416.061 17.842 415.08C17.842 414.098 17.7033 413.261 17.426 412.568C17.1487 411.874 16.7593 411.346 16.258 410.984C15.7673 410.621 15.1967 410.44 14.546 410.44C13.8953 410.44 13.3193 410.621 12.818 410.984C12.3273 411.346 11.9433 411.874 11.666 412.568C11.3887 413.261 11.25 414.098 11.25 415.08C11.25 416.061 11.3887 416.898 11.666 417.592C11.9433 418.285 12.3273 418.813 12.818 419.176C13.3193 419.538 13.8953 419.72 14.546 419.72ZM28.2925 419.656V420.68H20.4365V419.864L25.0925 415.304C25.6792 414.728 26.0738 414.232 26.2765 413.816C26.4898 413.389 26.5965 412.962 26.5965 412.536C26.5965 411.874 26.3672 411.362 25.9085 411C25.4605 410.626 24.8152 410.44 23.9725 410.44C22.6605 410.44 21.6418 410.856 20.9165 411.688L20.1005 410.984C20.5378 410.472 21.0925 410.077 21.7645 409.8C22.4472 409.522 23.2152 409.384 24.0685 409.384C25.2098 409.384 26.1112 409.656 26.7725 410.2C27.4445 410.733 27.7805 411.469 27.7805 412.408C27.7805 412.984 27.6525 413.538 27.3965 414.072C27.1405 414.605 26.6552 415.218 25.9405 415.912L22.1325 419.656H28.2925ZM37.3863 419.656V420.68H29.5303V419.864L34.1863 415.304C34.7729 414.728 35.1676 414.232 35.3703 413.816C35.5836 413.389 35.6903 412.962 35.6903 412.536C35.6903 411.874 35.4609 411.362 35.0023 411C34.5543 410.626 33.9089 410.44 33.0663 410.44C31.7543 410.44 30.7356 410.856 30.0103 411.688L29.1943 410.984C29.6316 410.472 30.1863 410.077 30.8583 409.8C31.5409 409.522 32.3089 409.384 33.1623 409.384C34.3036 409.384 35.2049 409.656 35.8663 410.2C36.5383 410.733 36.8743 411.469 36.8743 412.408C36.8743 412.984 36.7463 413.538 36.4903 414.072C36.2343 414.605 35.7489 415.218 35.0343 415.912L31.2263 419.656H37.3863Z" fill="#2C2F32"/>
<path d="M50 453.285H54" stroke="#2C2F32"/>
<path d="M50 490.895H54" stroke="#2C2F32"/>
<path d="M50 528.5H54" stroke="#2C2F32"/>
<path d="M50 566.105H54" stroke="#2C2F32"/>
<path d="M50 603.715H54" stroke="#2C2F32"/>
<path d="M50 641.32H54" stroke="#2C2F32"/>
<path d="M50 678.93H54" stroke="#2C2F32"/>
<path d="M50 716.535H54" stroke="#2C2F32"/>
<path d="M50 754.145H54" stroke="#2C2F32"/>
<path d="M50 791.75H54" stroke="#2C2F32"/>
<path d="M50 829.355H54" stroke="#2C2F32"/>
<circle r="4" transform="matrix(1 0 0 -1 54 867.465)" fill="#2C2F32"/>
<path d="M12.0113 871.941V872.965H4.15525V872.149L8.81125 867.589C9.39792 867.013 9.79258 866.517 9.99525 866.101C10.2086 865.674 10.3153 865.248 10.3153 864.821C10.3153 864.16 10.0859 863.648 9.62725 863.285C9.17925 862.912 8.53392 862.725 7.69125 862.725C6.37925 862.725 5.36058 863.141 4.63525 863.973L3.81925 863.269C4.25658 862.757 4.81125 862.362 5.48325 862.085C6.16592 861.808 6.93392 861.669 7.78725 861.669C8.92858 861.669 9.82992 861.941 10.4913 862.485C11.1633 863.018 11.4993 863.754 11.4993 864.693C11.4993 865.269 11.3713 865.824 11.1153 866.357C10.8593 866.89 10.3739 867.504 9.65925 868.197L5.85125 871.941H12.0113ZM17.8585 873.061C16.9945 873.061 16.2212 872.832 15.5385 872.373C14.8665 871.914 14.3385 871.258 13.9545 870.405C13.5812 869.541 13.3945 868.528 13.3945 867.365C13.3945 866.202 13.5812 865.194 13.9545 864.341C14.3385 863.477 14.8665 862.816 15.5385 862.357C16.2212 861.898 16.9945 861.669 17.8585 861.669C18.7225 861.669 19.4905 861.898 20.1625 862.357C20.8452 862.816 21.3785 863.477 21.7625 864.341C22.1465 865.194 22.3385 866.202 22.3385 867.365C22.3385 868.528 22.1465 869.541 21.7625 870.405C21.3785 871.258 20.8452 871.914 20.1625 872.373C19.4905 872.832 18.7225 873.061 17.8585 873.061ZM17.8585 872.005C18.5092 872.005 19.0798 871.824 19.5705 871.461C20.0718 871.098 20.4612 870.57 20.7385 869.877C21.0158 869.184 21.1545 868.346 21.1545 867.365C21.1545 866.384 21.0158 865.546 20.7385 864.853C20.4612 864.16 20.0718 863.632 19.5705 863.269C19.0798 862.906 18.5092 862.725 17.8585 862.725C17.2078 862.725 16.6318 862.906 16.1305 863.269C15.6398 863.632 15.2558 864.16 14.9785 864.853C14.7012 865.546 14.5625 866.384 14.5625 867.365C14.5625 868.346 14.7012 869.184 14.9785 869.877C15.2558 870.57 15.6398 871.098 16.1305 871.461C16.6318 871.824 17.2078 872.005 17.8585 872.005ZM31.605 871.941V872.965H23.749V872.149L28.405 867.589C28.9917 867.013 29.3863 866.517 29.589 866.101C29.8023 865.674 29.909 865.248 29.909 864.821C29.909 864.16 29.6797 863.648 29.221 863.285C28.773 862.912 28.1277 862.725 27.285 862.725C25.973 862.725 24.9543 863.141 24.229 863.973L23.413 863.269C23.8503 862.757 24.405 862.362 25.077 862.085C25.7597 861.808 26.5277 861.669 27.381 861.669C28.5223 861.669 29.4237 861.941 30.085 862.485C30.757 863.018 31.093 863.754 31.093 864.693C31.093 865.269 30.965 865.824 30.709 866.357C30.453 866.89 29.9677 867.504 29.253 868.197L25.445 871.941H31.605ZM36.1548 861.765V872.965H35.0028V862.789H32.3628V861.765H36.1548Z" fill="#2C2F32"/>
<path d="M50 905.57H54" stroke="#2C2F32"/>
<path d="M50 943.18H54" stroke="#2C2F32"/>
<path d="M50 980.785H54" stroke="#2C2F32"/>
<path d="M50 1018.39H54" stroke="#2C2F32"/>
<path d="M53.5 0V1056H54.5V0H53.5Z" fill="#2C2F32"/>
<path d="M69.5 358V391H70.5V358H69.5ZM86 357.5H70V358.5H86V357.5ZM69.5 325V358H70.5V325H69.5Z" fill="#2C2F32"/>
<path d="M86 640.5H70V641.5H86V640.5ZM69.5 439V641H70.5V439H69.5ZM69.5 641V843H70.5V641H69.5Z" fill="#2C2F32"/>
<path d="M135.792 625.528C139.12 625.528 141.563 626.125 143.12 627.32C144.699 628.515 145.488 630.157 145.488 632.248C145.488 633.571 145.157 634.765 144.496 635.832C143.856 636.877 142.864 637.709 141.52 638.328C140.197 638.947 138.576 639.256 136.656 639.256C134.971 639.256 133.371 639.021 131.856 638.552C130.341 638.061 129.083 637.4 128.08 636.568L129.552 634.04C130.405 634.765 131.451 635.341 132.688 635.768C133.947 636.195 135.28 636.408 136.688 636.408C138.459 636.408 139.824 636.045 140.784 635.32C141.765 634.595 142.256 633.613 142.256 632.376C142.256 631.053 141.723 630.051 140.656 629.368C139.589 628.664 137.765 628.312 135.184 628.312H129.744L130.928 616.6H144.08V619.384H133.616L133.008 625.528H135.792ZM164.79 627.256C166.134 627.747 167.158 628.451 167.862 629.368C168.566 630.285 168.918 631.384 168.918 632.664C168.918 634.008 168.534 635.181 167.766 636.184C167.02 637.165 165.942 637.923 164.534 638.456C163.126 638.989 161.473 639.256 159.574 639.256C157.676 639.256 156.022 638.989 154.614 638.456C153.228 637.923 152.161 637.165 151.414 636.184C150.668 635.181 150.294 634.008 150.294 632.664C150.294 631.384 150.636 630.285 151.318 629.368C152.022 628.451 153.036 627.747 154.358 627.256C153.292 626.765 152.481 626.115 151.926 625.304C151.372 624.493 151.094 623.533 151.094 622.424C151.094 621.187 151.446 620.109 152.15 619.192C152.854 618.275 153.846 617.571 155.126 617.08C156.406 616.589 157.889 616.344 159.574 616.344C161.281 616.344 162.774 616.589 164.054 617.08C165.334 617.571 166.326 618.275 167.03 619.192C167.756 620.109 168.118 621.187 168.118 622.424C168.118 623.512 167.83 624.472 167.254 625.304C166.7 626.115 165.878 626.765 164.79 627.256ZM159.574 618.936C157.932 618.936 156.63 619.267 155.67 619.928C154.71 620.568 154.23 621.443 154.23 622.552C154.23 623.64 154.7 624.515 155.638 625.176C156.598 625.816 157.91 626.136 159.574 626.136C161.238 626.136 162.55 625.816 163.51 625.176C164.492 624.515 164.982 623.64 164.982 622.552C164.982 621.443 164.492 620.568 163.51 619.928C162.529 619.267 161.217 618.936 159.574 618.936ZM159.574 636.664C161.473 636.664 162.966 636.301 164.054 635.576C165.164 634.851 165.718 633.859 165.718 632.6C165.718 631.341 165.164 630.36 164.054 629.656C162.966 628.931 161.473 628.568 159.574 628.568C157.654 628.568 156.161 628.931 155.094 629.656C154.028 630.36 153.494 631.341 153.494 632.6C153.494 633.859 154.028 634.851 155.094 635.576C156.182 636.301 157.676 636.664 159.574 636.664ZM183.037 626.008C185.319 626.221 187.079 626.904 188.317 628.056C189.554 629.187 190.173 630.637 190.173 632.408C190.173 633.688 189.842 634.851 189.181 635.896C188.519 636.92 187.517 637.741 186.173 638.36C184.85 638.957 183.239 639.256 181.341 639.256C179.549 639.256 177.906 639.021 176.413 638.552C174.941 638.061 173.735 637.389 172.797 636.536L174.429 634.008C176.242 635.608 178.546 636.408 181.341 636.408C183.111 636.408 184.487 636.056 185.469 635.352C186.471 634.627 186.972 633.656 186.972 632.44C186.972 631.224 186.471 630.275 185.469 629.592C184.466 628.888 183.005 628.536 181.085 628.536H179.26V626.296L185.213 619.384H173.341V616.6H189.277V618.776L183.037 626.008ZM196.867 639.192C196.269 639.192 195.757 638.989 195.331 638.584C194.904 638.157 194.691 637.624 194.691 636.984C194.691 636.365 194.904 635.853 195.331 635.448C195.757 635.021 196.269 634.808 196.867 634.808C197.464 634.808 197.965 635.011 198.371 635.416C198.776 635.821 198.979 636.344 198.979 636.984C198.979 637.624 198.765 638.157 198.339 638.584C197.933 638.989 197.443 639.192 196.867 639.192ZM211.669 639.256C209.855 639.256 208.245 638.797 206.837 637.88C205.45 636.941 204.362 635.608 203.573 633.88C202.805 632.152 202.421 630.125 202.421 627.8C202.421 625.475 202.805 623.448 203.573 621.72C204.362 619.992 205.45 618.669 206.837 617.752C208.245 616.813 209.855 616.344 211.669 616.344C213.482 616.344 215.082 616.813 216.469 617.752C217.877 618.669 218.965 619.992 219.733 621.72C220.522 623.448 220.917 625.475 220.917 627.8C220.917 630.125 220.522 632.152 219.733 633.88C218.965 635.608 217.877 636.941 216.469 637.88C215.082 638.797 213.482 639.256 211.669 639.256ZM211.669 636.408C213.482 636.408 214.943 635.661 216.053 634.168C217.162 632.653 217.717 630.531 217.717 627.8C217.717 625.069 217.162 622.957 216.053 621.464C214.943 619.949 213.482 619.192 211.669 619.192C209.855 619.192 208.394 619.949 207.285 621.464C206.175 622.957 205.621 625.069 205.621 627.8C205.621 630.531 206.175 632.653 207.285 634.168C208.394 635.661 209.855 636.408 211.669 636.408ZM243.387 633.496H239.163V639H236.123V633.496H224.571V631.256L234.715 616.6H238.203L228.411 630.744H236.251V626.008H239.163V630.744H243.387V633.496Z" fill="#2C2F32"/>
<path d="M252.814 621.492C252.095 621.492 251.507 621.249 251.05 620.764C250.602 620.269 250.378 619.611 250.378 618.79C250.378 617.969 250.602 617.315 251.05 616.83C251.507 616.335 252.095 616.088 252.814 616.088C253.533 616.088 254.116 616.335 254.564 616.83C255.012 617.315 255.236 617.969 255.236 618.79C255.236 619.611 255.012 620.269 254.564 620.764C254.116 621.249 253.533 621.492 252.814 621.492ZM258.652 616.2H260.318L253.626 626H251.96L258.652 616.2ZM252.814 620.344C253.131 620.344 253.379 620.213 253.556 619.952C253.743 619.691 253.836 619.303 253.836 618.79C253.836 618.277 253.743 617.889 253.556 617.628C253.379 617.367 253.131 617.236 252.814 617.236C252.506 617.236 252.259 617.371 252.072 617.642C251.885 617.903 251.792 618.286 251.792 618.79C251.792 619.294 251.885 619.681 252.072 619.952C252.259 620.213 252.506 620.344 252.814 620.344ZM259.464 626.112C258.997 626.112 258.577 626.005 258.204 625.79C257.84 625.566 257.555 625.249 257.35 624.838C257.145 624.427 257.042 623.951 257.042 623.41C257.042 622.869 257.145 622.393 257.35 621.982C257.555 621.571 257.84 621.259 258.204 621.044C258.577 620.82 258.997 620.708 259.464 620.708C260.183 620.708 260.766 620.955 261.214 621.45C261.671 621.935 261.9 622.589 261.9 623.41C261.9 624.231 261.671 624.889 261.214 625.384C260.766 625.869 260.183 626.112 259.464 626.112ZM259.464 624.964C259.781 624.964 260.029 624.833 260.206 624.572C260.393 624.301 260.486 623.914 260.486 623.41C260.486 622.906 260.393 622.523 260.206 622.262C260.029 621.991 259.781 621.856 259.464 621.856C259.156 621.856 258.909 621.987 258.722 622.248C258.535 622.509 258.442 622.897 258.442 623.41C258.442 623.923 258.535 624.311 258.722 624.572C258.909 624.833 259.156 624.964 259.464 624.964Z" fill="#2C2F32"/>
<path d="M131.292 657.2C132.561 657.2 133.56 657.503 134.288 658.11C135.016 658.717 135.38 659.552 135.38 660.616C135.38 661.68 135.016 662.515 134.288 663.122C133.56 663.729 132.561 664.032 131.292 664.032H128.87V667H127.47V657.2H131.292ZM131.25 662.814C132.137 662.814 132.813 662.627 133.28 662.254C133.747 661.871 133.98 661.325 133.98 660.616C133.98 659.907 133.747 659.365 133.28 658.992C132.813 658.609 132.137 658.418 131.25 658.418H128.87V662.814H131.25ZM145.865 657.2V667H144.717L138.837 659.692V667H137.437V657.2H138.585L144.465 664.508V657.2H145.865ZM148.798 657.2H150.198V665.782H155.504V667H148.798V657.2Z" fill="#2C2F32"/>
<path d="M323.384 625.4C324.899 625.4 326.253 625.688 327.448 626.264C328.664 626.819 329.613 627.619 330.296 628.664C330.979 629.688 331.32 630.861 331.32 632.184C331.32 633.571 330.957 634.797 330.232 635.864C329.528 636.931 328.547 637.763 327.288 638.36C326.051 638.957 324.643 639.256 323.064 639.256C320.013 639.256 317.635 638.296 315.928 636.376C314.221 634.456 313.368 631.704 313.368 628.12C313.368 625.752 313.827 623.683 314.744 621.912C315.661 620.12 316.963 618.744 318.648 617.784C320.355 616.824 322.339 616.344 324.6 616.344C325.645 616.344 326.648 616.461 327.608 616.696C328.589 616.909 329.443 617.229 330.168 617.656L328.952 620.216C327.843 619.469 326.392 619.096 324.6 619.096C323 619.096 321.592 619.427 320.376 620.088C319.16 620.749 318.211 621.72 317.528 623C316.845 624.28 316.504 625.816 316.504 627.608C316.504 627.992 316.515 628.291 316.536 628.504C317.133 627.544 318.04 626.787 319.256 626.232C320.493 625.677 321.869 625.4 323.384 625.4ZM322.968 636.664C324.483 636.664 325.72 636.259 326.68 635.448C327.661 634.637 328.152 633.592 328.152 632.312C328.152 631.032 327.661 629.997 326.68 629.208C325.699 628.397 324.408 627.992 322.808 627.992C321.251 627.992 319.949 628.397 318.904 629.208C317.88 630.019 317.368 631.053 317.368 632.312C317.368 633.037 317.592 633.741 318.04 634.424C318.488 635.085 319.128 635.629 319.96 636.056C320.813 636.461 321.816 636.664 322.968 636.664ZM337.054 639.192C336.457 639.192 335.945 638.989 335.518 638.584C335.092 638.157 334.878 637.624 334.878 636.984C334.878 636.365 335.092 635.853 335.518 635.448C335.945 635.021 336.457 634.808 337.054 634.808C337.652 634.808 338.153 635.011 338.558 635.416C338.964 635.821 339.166 636.344 339.166 636.984C339.166 637.624 338.953 638.157 338.526 638.584C338.121 638.989 337.63 639.192 337.054 639.192ZM359.568 636.216V639H345.264V636.216H351.12V619.384H345.616V616.6H354.32V636.216H359.568ZM373.399 616.344C376.449 616.344 378.828 617.304 380.535 619.224C382.241 621.144 383.095 623.896 383.095 627.48C383.095 629.848 382.636 631.928 381.719 633.72C380.801 635.491 379.489 636.856 377.783 637.816C376.097 638.776 374.124 639.256 371.863 639.256C370.817 639.256 369.804 639.149 368.823 638.936C367.863 638.701 367.02 638.371 366.295 637.944L367.511 635.384C368.62 636.131 370.071 636.504 371.863 636.504C373.463 636.504 374.871 636.173 376.087 635.512C377.303 634.851 378.252 633.88 378.935 632.6C379.617 631.32 379.958 629.784 379.958 627.992C379.958 627.608 379.948 627.309 379.927 627.096C379.329 628.056 378.412 628.813 377.175 629.368C375.959 629.923 374.593 630.2 373.079 630.2C371.564 630.2 370.199 629.923 368.983 629.368C367.788 628.792 366.849 627.992 366.167 626.968C365.484 625.923 365.143 624.739 365.143 623.416C365.143 622.029 365.495 620.803 366.199 619.736C366.924 618.669 367.905 617.837 369.143 617.24C370.401 616.643 371.82 616.344 373.399 616.344ZM373.655 627.608C375.212 627.608 376.503 627.203 377.527 626.392C378.572 625.581 379.095 624.547 379.095 623.288C379.095 622.563 378.871 621.869 378.423 621.208C377.975 620.525 377.324 619.981 376.471 619.576C375.639 619.149 374.647 618.936 373.495 618.936C371.98 618.936 370.732 619.341 369.751 620.152C368.791 620.963 368.311 622.008 368.311 623.288C368.311 624.568 368.801 625.613 369.783 626.424C370.764 627.213 372.055 627.608 373.655 627.608Z" fill="#2C2F32"/>
<path d="M392.814 621.492C392.095 621.492 391.507 621.249 391.05 620.764C390.602 620.269 390.378 619.611 390.378 618.79C390.378 617.969 390.602 617.315 391.05 616.83C391.507 616.335 392.095 616.088 392.814 616.088C393.533 616.088 394.116 616.335 394.564 616.83C395.012 617.315 395.236 617.969 395.236 618.79C395.236 619.611 395.012 620.269 394.564 620.764C394.116 621.249 393.533 621.492 392.814 621.492ZM398.652 616.2H400.318L393.626 626H391.96L398.652 616.2ZM392.814 620.344C393.131 620.344 393.379 620.213 393.556 619.952C393.743 619.691 393.836 619.303 393.836 618.79C393.836 618.277 393.743 617.889 393.556 617.628C393.379 617.367 393.131 617.236 392.814 617.236C392.506 617.236 392.259 617.371 392.072 617.642C391.885 617.903 391.792 618.286 391.792 618.79C391.792 619.294 391.885 619.681 392.072 619.952C392.259 620.213 392.506 620.344 392.814 620.344ZM399.464 626.112C398.997 626.112 398.577 626.005 398.204 625.79C397.84 625.566 397.555 625.249 397.35 624.838C397.145 624.427 397.042 623.951 397.042 623.41C397.042 622.869 397.145 622.393 397.35 621.982C397.555 621.571 397.84 621.259 398.204 621.044C398.577 620.82 398.997 620.708 399.464 620.708C400.183 620.708 400.766 620.955 401.214 621.45C401.671 621.935 401.9 622.589 401.9 623.41C401.9 624.231 401.671 624.889 401.214 625.384C400.766 625.869 400.183 626.112 399.464 626.112ZM399.464 624.964C399.781 624.964 400.029 624.833 400.206 624.572C400.393 624.301 400.486 623.914 400.486 623.41C400.486 622.906 400.393 622.523 400.206 622.262C400.029 621.991 399.781 621.856 399.464 621.856C399.156 621.856 398.909 621.987 398.722 622.248C398.535 622.509 398.442 622.897 398.442 623.41C398.442 623.923 398.535 624.311 398.722 624.572C398.909 624.833 399.156 624.964 399.464 624.964Z" fill="#2C2F32"/>
<path d="M321.556 659.51C322.489 659.51 323.227 659.781 323.768 660.322C324.319 660.863 324.594 661.666 324.594 662.73V667H323.25V662.884C323.25 662.165 323.082 661.624 322.746 661.26C322.419 660.896 321.948 660.714 321.332 660.714C320.651 660.714 320.109 660.929 319.708 661.358C319.307 661.778 319.106 662.385 319.106 663.178V667H317.762V662.884C317.762 662.165 317.594 661.624 317.258 661.26C316.931 660.896 316.46 660.714 315.844 660.714C315.163 660.714 314.621 660.929 314.22 661.358C313.819 661.778 313.618 662.385 313.618 663.178V667H312.274V659.58H313.562V660.686C313.833 660.303 314.187 660.014 314.626 659.818C315.065 659.613 315.564 659.51 316.124 659.51C316.703 659.51 317.216 659.627 317.664 659.86C318.112 660.093 318.457 660.434 318.7 660.882C318.98 660.453 319.367 660.117 319.862 659.874C320.366 659.631 320.931 659.51 321.556 659.51ZM329.769 659.51C330.796 659.51 331.58 659.762 332.121 660.266C332.672 660.77 332.947 661.521 332.947 662.52V667H331.673V666.02C331.449 666.365 331.127 666.631 330.707 666.818C330.296 666.995 329.806 667.084 329.237 667.084C328.406 667.084 327.739 666.883 327.235 666.482C326.74 666.081 326.493 665.553 326.493 664.9C326.493 664.247 326.731 663.724 327.207 663.332C327.683 662.931 328.439 662.73 329.475 662.73H331.603V662.464C331.603 661.885 331.435 661.442 331.099 661.134C330.763 660.826 330.268 660.672 329.615 660.672C329.176 660.672 328.747 660.747 328.327 660.896C327.907 661.036 327.552 661.227 327.263 661.47L326.703 660.462C327.086 660.154 327.543 659.921 328.075 659.762C328.607 659.594 329.172 659.51 329.769 659.51ZM329.461 666.048C329.974 666.048 330.418 665.936 330.791 665.712C331.164 665.479 331.435 665.152 331.603 664.732V663.696H329.531C328.392 663.696 327.823 664.079 327.823 664.844C327.823 665.217 327.968 665.511 328.257 665.726C328.546 665.941 328.948 666.048 329.461 666.048ZM340.166 667L338.024 664.158L335.854 667H334.356L337.282 663.206L334.496 659.58H335.994L338.038 662.254L340.068 659.58H341.538L338.738 663.206L341.692 667H340.166ZM343.481 667.084C343.219 667.084 342.995 666.995 342.809 666.818C342.622 666.631 342.529 666.398 342.529 666.118C342.529 665.847 342.622 665.623 342.809 665.446C342.995 665.259 343.219 665.166 343.481 665.166C343.742 665.166 343.961 665.255 344.139 665.432C344.316 665.609 344.405 665.838 344.405 666.118C344.405 666.398 344.311 666.631 344.125 666.818C343.947 666.995 343.733 667.084 343.481 667.084ZM350.09 656.612H351.434V667H350.09V656.612ZM357.179 667.084C356.441 667.084 355.779 666.921 355.191 666.594C354.603 666.267 354.141 665.819 353.805 665.25C353.478 664.671 353.315 664.018 353.315 663.29C353.315 662.562 353.478 661.913 353.805 661.344C354.141 660.765 354.603 660.317 355.191 660C355.779 659.673 356.441 659.51 357.179 659.51C357.916 659.51 358.574 659.673 359.153 660C359.741 660.317 360.198 660.765 360.525 661.344C360.861 661.913 361.029 662.562 361.029 663.29C361.029 664.018 360.861 664.671 360.525 665.25C360.198 665.819 359.741 666.267 359.153 666.594C358.574 666.921 357.916 667.084 357.179 667.084ZM357.179 665.908C357.655 665.908 358.079 665.801 358.453 665.586C358.835 665.362 359.134 665.054 359.349 664.662C359.563 664.261 359.671 663.803 359.671 663.29C359.671 662.777 359.563 662.324 359.349 661.932C359.134 661.531 358.835 661.223 358.453 661.008C358.079 660.793 357.655 660.686 357.179 660.686C356.703 660.686 356.273 660.793 355.891 661.008C355.517 661.223 355.219 661.531 354.995 661.932C354.78 662.324 354.673 662.777 354.673 663.29C354.673 663.803 354.78 664.261 354.995 664.662C355.219 665.054 355.517 665.362 355.891 665.586C356.273 665.801 356.703 665.908 357.179 665.908ZM365.015 667.084C364.409 667.084 363.825 667.005 363.265 666.846C362.705 666.678 362.267 666.468 361.949 666.216L362.509 665.152C362.836 665.385 363.233 665.572 363.699 665.712C364.166 665.852 364.637 665.922 365.113 665.922C366.289 665.922 366.877 665.586 366.877 664.914C366.877 664.69 366.798 664.513 366.639 664.382C366.481 664.251 366.28 664.158 366.037 664.102C365.804 664.037 365.468 663.967 365.029 663.892C364.432 663.799 363.942 663.691 363.559 663.57C363.186 663.449 362.864 663.243 362.593 662.954C362.323 662.665 362.187 662.259 362.187 661.736C362.187 661.064 362.467 660.527 363.027 660.126C363.587 659.715 364.339 659.51 365.281 659.51C365.776 659.51 366.271 659.571 366.765 659.692C367.26 659.813 367.666 659.977 367.983 660.182L367.409 661.246C366.803 660.854 366.089 660.658 365.267 660.658C364.698 660.658 364.264 660.751 363.965 660.938C363.667 661.125 363.517 661.372 363.517 661.68C363.517 661.923 363.601 662.114 363.769 662.254C363.937 662.394 364.143 662.497 364.385 662.562C364.637 662.627 364.987 662.702 365.435 662.786C366.033 662.889 366.513 663.001 366.877 663.122C367.251 663.234 367.568 663.43 367.829 663.71C368.091 663.99 368.221 664.382 368.221 664.886C368.221 665.558 367.932 666.095 367.353 666.496C366.784 666.888 366.005 667.084 365.015 667.084ZM372.029 667.084C371.422 667.084 370.839 667.005 370.279 666.846C369.719 666.678 369.28 666.468 368.963 666.216L369.523 665.152C369.85 665.385 370.246 665.572 370.713 665.712C371.18 665.852 371.651 665.922 372.127 665.922C373.303 665.922 373.891 665.586 373.891 664.914C373.891 664.69 373.812 664.513 373.653 664.382C373.494 664.251 373.294 664.158 373.051 664.102C372.818 664.037 372.482 663.967 372.043 663.892C371.446 663.799 370.956 663.691 370.573 663.57C370.2 663.449 369.878 663.243 369.607 662.954C369.336 662.665 369.201 662.259 369.201 661.736C369.201 661.064 369.481 660.527 370.041 660.126C370.601 659.715 371.352 659.51 372.295 659.51C372.79 659.51 373.284 659.571 373.779 659.692C374.274 659.813 374.68 659.977 374.997 660.182L374.423 661.246C373.816 660.854 373.102 660.658 372.281 660.658C371.712 660.658 371.278 660.751 370.979 660.938C370.68 661.125 370.531 661.372 370.531 661.68C370.531 661.923 370.615 662.114 370.783 662.254C370.951 662.394 371.156 662.497 371.399 662.562C371.651 662.627 372.001 662.702 372.449 662.786C373.046 662.889 373.527 663.001 373.891 663.122C374.264 663.234 374.582 663.43 374.843 663.71C375.104 663.99 375.235 664.382 375.235 664.886C375.235 665.558 374.946 666.095 374.367 666.496C373.798 666.888 373.018 667.084 372.029 667.084Z" fill="#2C2F32"/>
<path d="M145.36 353.216V356H128.816V353.824L138.256 345.024C139.408 343.957 140.187 343.04 140.592 342.272C140.997 341.483 141.2 340.693 141.2 339.904C141.2 338.752 140.763 337.845 139.888 337.184C139.013 336.523 137.755 336.192 136.112 336.192C133.488 336.192 131.483 336.992 130.096 338.592L127.92 336.736C128.837 335.648 130.021 334.816 131.472 334.24C132.944 333.643 134.576 333.344 136.368 333.344C138.843 333.344 140.795 333.909 142.224 335.04C143.675 336.171 144.4 337.685 144.4 339.584C144.4 340.757 144.123 341.877 143.568 342.944C143.035 344.011 142.021 345.237 140.528 346.624L133.488 353.216H145.36ZM159.606 356.256C157.793 356.256 156.182 355.797 154.774 354.88C153.388 353.941 152.3 352.608 151.51 350.88C150.742 349.152 150.358 347.125 150.358 344.8C150.358 342.475 150.742 340.448 151.51 338.72C152.3 336.992 153.388 335.669 154.774 334.752C156.182 333.813 157.793 333.344 159.606 333.344C161.42 333.344 163.02 333.813 164.406 334.752C165.814 335.669 166.902 336.992 167.67 338.72C168.46 340.448 168.854 342.475 168.854 344.8C168.854 347.125 168.46 349.152 167.67 350.88C166.902 352.608 165.814 353.941 164.406 354.88C163.02 355.797 161.42 356.256 159.606 356.256ZM159.606 353.408C161.42 353.408 162.881 352.661 163.99 351.168C165.1 349.653 165.654 347.531 165.654 344.8C165.654 342.069 165.1 339.957 163.99 338.464C162.881 336.949 161.42 336.192 159.606 336.192C157.793 336.192 156.332 336.949 155.222 338.464C154.113 339.957 153.558 342.069 153.558 344.8C153.558 347.531 154.113 349.653 155.222 351.168C156.332 352.661 157.793 353.408 159.606 353.408ZM183.037 343.008C185.319 343.221 187.079 343.904 188.317 345.056C189.554 346.187 190.173 347.637 190.173 349.408C190.173 350.688 189.842 351.851 189.181 352.896C188.519 353.92 187.517 354.741 186.173 355.36C184.85 355.957 183.239 356.256 181.341 356.256C179.549 356.256 177.906 356.021 176.413 355.552C174.941 355.061 173.735 354.389 172.797 353.536L174.429 351.008C176.242 352.608 178.546 353.408 181.341 353.408C183.111 353.408 184.487 353.056 185.469 352.352C186.471 351.627 186.972 350.656 186.972 349.44C186.972 348.224 186.471 347.275 185.469 346.592C184.466 345.888 183.005 345.536 181.085 345.536H179.26V343.296L185.213 336.384H173.341V333.6H189.277V335.776L183.037 343.008ZM196.867 356.192C196.269 356.192 195.757 355.989 195.331 355.584C194.904 355.157 194.691 354.624 194.691 353.984C194.691 353.365 194.904 352.853 195.331 352.448C195.757 352.021 196.269 351.808 196.867 351.808C197.464 351.808 197.965 352.011 198.371 352.416C198.776 352.821 198.979 353.344 198.979 353.984C198.979 354.624 198.765 355.157 198.339 355.584C197.933 355.989 197.443 356.192 196.867 356.192ZM220.821 333.6V335.776L210.965 356H207.637L217.141 336.384H205.877V340.384H202.805V333.6H220.821ZM241.787 353.216V356H227.483V353.216H233.339V336.384H227.835V333.6H236.539V353.216H241.787Z" fill="#2C2F32"/>
<path d="M252.814 338.492C252.095 338.492 251.507 338.249 251.05 337.764C250.602 337.269 250.378 336.611 250.378 335.79C250.378 334.969 250.602 334.315 251.05 333.83C251.507 333.335 252.095 333.088 252.814 333.088C253.533 333.088 254.116 333.335 254.564 333.83C255.012 334.315 255.236 334.969 255.236 335.79C255.236 336.611 255.012 337.269 254.564 337.764C254.116 338.249 253.533 338.492 252.814 338.492ZM258.652 333.2H260.318L253.626 343H251.96L258.652 333.2ZM252.814 337.344C253.131 337.344 253.379 337.213 253.556 336.952C253.743 336.691 253.836 336.303 253.836 335.79C253.836 335.277 253.743 334.889 253.556 334.628C253.379 334.367 253.131 334.236 252.814 334.236C252.506 334.236 252.259 334.371 252.072 334.642C251.885 334.903 251.792 335.286 251.792 335.79C251.792 336.294 251.885 336.681 252.072 336.952C252.259 337.213 252.506 337.344 252.814 337.344ZM259.464 343.112C258.997 343.112 258.577 343.005 258.204 342.79C257.84 342.566 257.555 342.249 257.35 341.838C257.145 341.427 257.042 340.951 257.042 340.41C257.042 339.869 257.145 339.393 257.35 338.982C257.555 338.571 257.84 338.259 258.204 338.044C258.577 337.82 258.997 337.708 259.464 337.708C260.183 337.708 260.766 337.955 261.214 338.45C261.671 338.935 261.9 339.589 261.9 340.41C261.9 341.231 261.671 341.889 261.214 342.384C260.766 342.869 260.183 343.112 259.464 343.112ZM259.464 341.964C259.781 341.964 260.029 341.833 260.206 341.572C260.393 341.301 260.486 340.914 260.486 340.41C260.486 339.906 260.393 339.523 260.206 339.262C260.029 338.991 259.781 338.856 259.464 338.856C259.156 338.856 258.909 338.987 258.722 339.248C258.535 339.509 258.442 339.897 258.442 340.41C258.442 340.923 258.535 341.311 258.722 341.572C258.909 341.833 259.156 341.964 259.464 341.964Z" fill="#2C2F32"/>
<path d="M131.292 374.2C132.561 374.2 133.56 374.503 134.288 375.11C135.016 375.717 135.38 376.552 135.38 377.616C135.38 378.68 135.016 379.515 134.288 380.122C133.56 380.729 132.561 381.032 131.292 381.032H128.87V384H127.47V374.2H131.292ZM131.25 379.814C132.137 379.814 132.813 379.627 133.28 379.254C133.747 378.871 133.98 378.325 133.98 377.616C133.98 376.907 133.747 376.365 133.28 375.992C132.813 375.609 132.137 375.418 131.25 375.418H128.87V379.814H131.25ZM145.865 374.2V384H144.717L138.837 376.692V384H137.437V374.2H138.585L144.465 381.508V374.2H145.865ZM148.798 374.2H150.198V382.782H155.504V384H148.798V374.2Z" fill="#2C2F32"/>
<path d="M329.912 353.216V356H315.608V353.216H321.464V336.384H315.96V333.6H324.664V353.216H329.912ZM337.054 356.192C336.457 356.192 335.945 355.989 335.518 355.584C335.092 355.157 334.878 354.624 334.878 353.984C334.878 353.365 335.092 352.853 335.518 352.448C335.945 352.021 336.457 351.808 337.054 351.808C337.652 351.808 338.153 352.011 338.558 352.416C338.964 352.821 339.166 353.344 339.166 353.984C339.166 354.624 338.953 355.157 338.526 355.584C338.121 355.989 337.63 356.192 337.054 356.192ZM350.992 333.344C354.043 333.344 356.422 334.304 358.128 336.224C359.835 338.144 360.688 340.896 360.688 344.48C360.688 346.848 360.23 348.928 359.312 350.72C358.395 352.491 357.083 353.856 355.376 354.816C353.691 355.776 351.718 356.256 349.456 356.256C348.411 356.256 347.398 356.149 346.416 355.936C345.456 355.701 344.614 355.371 343.888 354.944L345.104 352.384C346.214 353.131 347.664 353.504 349.456 353.504C351.056 353.504 352.464 353.173 353.68 352.512C354.896 351.851 355.846 350.88 356.528 349.6C357.211 348.32 357.552 346.784 357.552 344.992C357.552 344.608 357.542 344.309 357.52 344.096C356.923 345.056 356.006 345.813 354.768 346.368C353.552 346.923 352.187 347.2 350.672 347.2C349.158 347.2 347.792 346.923 346.576 346.368C345.382 345.792 344.443 344.992 343.76 343.968C343.078 342.923 342.736 341.739 342.736 340.416C342.736 339.029 343.088 337.803 343.792 336.736C344.518 335.669 345.499 334.837 346.736 334.24C347.995 333.643 349.414 333.344 350.992 333.344ZM351.248 344.608C352.806 344.608 354.096 344.203 355.12 343.392C356.166 342.581 356.688 341.547 356.688 340.288C356.688 339.563 356.464 338.869 356.016 338.208C355.568 337.525 354.918 336.981 354.064 336.576C353.232 336.149 352.24 335.936 351.088 335.936C349.574 335.936 348.326 336.341 347.344 337.152C346.384 337.963 345.904 339.008 345.904 340.288C345.904 341.568 346.395 342.613 347.376 343.424C348.358 344.213 349.648 344.608 351.248 344.608ZM383.575 350.496H379.351V356H376.311V350.496H364.759V348.256L374.903 333.6H378.391L368.599 347.744H376.439V343.008H379.351V347.744H383.575V350.496Z" fill="#2C2F32"/>
<path d="M392.814 338.492C392.095 338.492 391.507 338.249 391.05 337.764C390.602 337.269 390.378 336.611 390.378 335.79C390.378 334.969 390.602 334.315 391.05 333.83C391.507 333.335 392.095 333.088 392.814 333.088C393.533 333.088 394.116 333.335 394.564 333.83C395.012 334.315 395.236 334.969 395.236 335.79C395.236 336.611 395.012 337.269 394.564 337.764C394.116 338.249 393.533 338.492 392.814 338.492ZM398.652 333.2H400.318L393.626 343H391.96L398.652 333.2ZM392.814 337.344C393.131 337.344 393.379 337.213 393.556 336.952C393.743 336.691 393.836 336.303 393.836 335.79C393.836 335.277 393.743 334.889 393.556 334.628C393.379 334.367 393.131 334.236 392.814 334.236C392.506 334.236 392.259 334.371 392.072 334.642C391.885 334.903 391.792 335.286 391.792 335.79C391.792 336.294 391.885 336.681 392.072 336.952C392.259 337.213 392.506 337.344 392.814 337.344ZM399.464 343.112C398.997 343.112 398.577 343.005 398.204 342.79C397.84 342.566 397.555 342.249 397.35 341.838C397.145 341.427 397.042 340.951 397.042 340.41C397.042 339.869 397.145 339.393 397.35 338.982C397.555 338.571 397.84 338.259 398.204 338.044C398.577 337.82 398.997 337.708 399.464 337.708C400.183 337.708 400.766 337.955 401.214 338.45C401.671 338.935 401.9 339.589 401.9 340.41C401.9 341.231 401.671 341.889 401.214 342.384C400.766 342.869 400.183 343.112 399.464 343.112ZM399.464 341.964C399.781 341.964 400.029 341.833 400.206 341.572C400.393 341.301 400.486 340.914 400.486 340.41C400.486 339.906 400.393 339.523 400.206 339.262C400.029 338.991 399.781 338.856 399.464 338.856C399.156 338.856 398.909 338.987 398.722 339.248C398.535 339.509 398.442 339.897 398.442 340.41C398.442 340.923 398.535 341.311 398.722 341.572C398.909 341.833 399.156 341.964 399.464 341.964Z" fill="#2C2F32"/>
<path d="M321.556 376.51C322.489 376.51 323.227 376.781 323.768 377.322C324.319 377.863 324.594 378.666 324.594 379.73V384H323.25V379.884C323.25 379.165 323.082 378.624 322.746 378.26C322.419 377.896 321.948 377.714 321.332 377.714C320.651 377.714 320.109 377.929 319.708 378.358C319.307 378.778 319.106 379.385 319.106 380.178V384H317.762V379.884C317.762 379.165 317.594 378.624 317.258 378.26C316.931 377.896 316.46 377.714 315.844 377.714C315.163 377.714 314.621 377.929 314.22 378.358C313.819 378.778 313.618 379.385 313.618 380.178V384H312.274V376.58H313.562V377.686C313.833 377.303 314.187 377.014 314.626 376.818C315.065 376.613 315.564 376.51 316.124 376.51C316.703 376.51 317.216 376.627 317.664 376.86C318.112 377.093 318.457 377.434 318.7 377.882C318.98 377.453 319.367 377.117 319.862 376.874C320.366 376.631 320.931 376.51 321.556 376.51ZM329.769 376.51C330.796 376.51 331.58 376.762 332.121 377.266C332.672 377.77 332.947 378.521 332.947 379.52V384H331.673V383.02C331.449 383.365 331.127 383.631 330.707 383.818C330.296 383.995 329.806 384.084 329.237 384.084C328.406 384.084 327.739 383.883 327.235 383.482C326.74 383.081 326.493 382.553 326.493 381.9C326.493 381.247 326.731 380.724 327.207 380.332C327.683 379.931 328.439 379.73 329.475 379.73H331.603V379.464C331.603 378.885 331.435 378.442 331.099 378.134C330.763 377.826 330.268 377.672 329.615 377.672C329.176 377.672 328.747 377.747 328.327 377.896C327.907 378.036 327.552 378.227 327.263 378.47L326.703 377.462C327.086 377.154 327.543 376.921 328.075 376.762C328.607 376.594 329.172 376.51 329.769 376.51ZM329.461 383.048C329.974 383.048 330.418 382.936 330.791 382.712C331.164 382.479 331.435 382.152 331.603 381.732V380.696H329.531C328.392 380.696 327.823 381.079 327.823 381.844C327.823 382.217 327.968 382.511 328.257 382.726C328.546 382.941 328.948 383.048 329.461 383.048ZM340.166 384L338.024 381.158L335.854 384H334.356L337.282 380.206L334.496 376.58H335.994L338.038 379.254L340.068 376.58H341.538L338.738 380.206L341.692 384H340.166ZM343.481 384.084C343.219 384.084 342.995 383.995 342.809 383.818C342.622 383.631 342.529 383.398 342.529 383.118C342.529 382.847 342.622 382.623 342.809 382.446C342.995 382.259 343.219 382.166 343.481 382.166C343.742 382.166 343.961 382.255 344.139 382.432C344.316 382.609 344.405 382.838 344.405 383.118C344.405 383.398 344.311 383.631 344.125 383.818C343.947 383.995 343.733 384.084 343.481 384.084ZM350.09 373.612H351.434V384H350.09V373.612ZM357.179 384.084C356.441 384.084 355.779 383.921 355.191 383.594C354.603 383.267 354.141 382.819 353.805 382.25C353.478 381.671 353.315 381.018 353.315 380.29C353.315 379.562 353.478 378.913 353.805 378.344C354.141 377.765 354.603 377.317 355.191 377C355.779 376.673 356.441 376.51 357.179 376.51C357.916 376.51 358.574 376.673 359.153 377C359.741 377.317 360.198 377.765 360.525 378.344C360.861 378.913 361.029 379.562 361.029 380.29C361.029 381.018 360.861 381.671 360.525 382.25C360.198 382.819 359.741 383.267 359.153 383.594C358.574 383.921 357.916 384.084 357.179 384.084ZM357.179 382.908C357.655 382.908 358.079 382.801 358.453 382.586C358.835 382.362 359.134 382.054 359.349 381.662C359.563 381.261 359.671 380.803 359.671 380.29C359.671 379.777 359.563 379.324 359.349 378.932C359.134 378.531 358.835 378.223 358.453 378.008C358.079 377.793 357.655 377.686 357.179 377.686C356.703 377.686 356.273 377.793 355.891 378.008C355.517 378.223 355.219 378.531 354.995 378.932C354.78 379.324 354.673 379.777 354.673 380.29C354.673 380.803 354.78 381.261 354.995 381.662C355.219 382.054 355.517 382.362 355.891 382.586C356.273 382.801 356.703 382.908 357.179 382.908ZM365.015 384.084C364.409 384.084 363.825 384.005 363.265 383.846C362.705 383.678 362.267 383.468 361.949 383.216L362.509 382.152C362.836 382.385 363.233 382.572 363.699 382.712C364.166 382.852 364.637 382.922 365.113 382.922C366.289 382.922 366.877 382.586 366.877 381.914C366.877 381.69 366.798 381.513 366.639 381.382C366.481 381.251 366.28 381.158 366.037 381.102C365.804 381.037 365.468 380.967 365.029 380.892C364.432 380.799 363.942 380.691 363.559 380.57C363.186 380.449 362.864 380.243 362.593 379.954C362.323 379.665 362.187 379.259 362.187 378.736C362.187 378.064 362.467 377.527 363.027 377.126C363.587 376.715 364.339 376.51 365.281 376.51C365.776 376.51 366.271 376.571 366.765 376.692C367.26 376.813 367.666 376.977 367.983 377.182L367.409 378.246C366.803 377.854 366.089 377.658 365.267 377.658C364.698 377.658 364.264 377.751 363.965 377.938C363.667 378.125 363.517 378.372 363.517 378.68C363.517 378.923 363.601 379.114 363.769 379.254C363.937 379.394 364.143 379.497 364.385 379.562C364.637 379.627 364.987 379.702 365.435 379.786C366.033 379.889 366.513 380.001 366.877 380.122C367.251 380.234 367.568 380.43 367.829 380.71C368.091 380.99 368.221 381.382 368.221 381.886C368.221 382.558 367.932 383.095 367.353 383.496C366.784 383.888 366.005 384.084 365.015 384.084ZM372.029 384.084C371.422 384.084 370.839 384.005 370.279 383.846C369.719 383.678 369.28 383.468 368.963 383.216L369.523 382.152C369.85 382.385 370.246 382.572 370.713 382.712C371.18 382.852 371.651 382.922 372.127 382.922C373.303 382.922 373.891 382.586 373.891 381.914C373.891 381.69 373.812 381.513 373.653 381.382C373.494 381.251 373.294 381.158 373.051 381.102C372.818 381.037 372.482 380.967 372.043 380.892C371.446 380.799 370.956 380.691 370.573 380.57C370.2 380.449 369.878 380.243 369.607 379.954C369.336 379.665 369.201 379.259 369.201 378.736C369.201 378.064 369.481 377.527 370.041 377.126C370.601 376.715 371.352 376.51 372.295 376.51C372.79 376.51 373.284 376.571 373.779 376.692C374.274 376.813 374.68 376.977 374.997 377.182L374.423 378.246C373.816 377.854 373.102 377.658 372.281 377.658C371.712 377.658 371.278 377.751 370.979 377.938C370.68 378.125 370.531 378.372 370.531 378.68C370.531 378.923 370.615 379.114 370.783 379.254C370.951 379.394 371.156 379.497 371.399 379.562C371.651 379.627 372.001 379.702 372.449 379.786C373.046 379.889 373.527 380.001 373.891 380.122C374.264 380.234 374.582 380.43 374.843 380.71C375.104 380.99 375.235 381.382 375.235 381.886C375.235 382.558 374.946 383.095 374.367 383.496C373.798 383.888 373.018 384.084 372.029 384.084Z" fill="#2C2F32"/>
</svg>
